M48
; DRILL file {KiCad (6.0.8-1)-1} date Monday, November 07, 2022 at 02:14:40 PM
; FORMAT={-:-/ absolute / inch / decimal}
; #@! TF.CreationDate,2022-11-07T14:14:40-08:00
; #@! TF.GenerationSoftware,Kicad,Pcbnew,(6.0.8-1)-1
; #@! TF.FileFunction,MixedPlating,1,2
FMAT,2
INCH
; #@! TA.AperFunction,Plated,PTH,ViaDrill
T1C0.0157
; #@! TA.AperFunction,Plated,PTH,ViaDrill
T2C0.0200
; #@! TA.AperFunction,Plated,PTH,ComponentDrill
T3C0.0315
; #@! TA.AperFunction,Plated,PTH,ComponentDrill
T4C0.0394
; #@! TA.AperFunction,Plated,PTH,ComponentDrill
T5C0.0433
%
G90
G05
T1
X5.125Y-4.7
X5.205Y-4.68
X5.285Y-4.66
X7.65Y-5.225
X7.75Y-5.225
T2
X7.125Y-3.2
X7.125Y-3.3
X8.275Y-3.2
X8.275Y-3.3
T3
X4.525Y-3.35
X4.525Y-3.75
X4.525Y-3.85
X4.525Y-4.25
X4.525Y-4.35
X4.525Y-4.75
X4.525Y-4.8516
X4.525Y-5.0484
X4.75Y-3.9516
X4.75Y-4.1484
X4.75Y-4.85
X4.75Y-4.95
X4.75Y-5.05
X4.95Y-3.15
X4.95Y-3.75
X4.95Y-3.9
X4.95Y-4.3
X4.9502Y-4.45
X4.9502Y-5.05
X4.9554Y-2.85
X5.05Y-3.15
X5.05Y-3.75
X5.0502Y-4.45
X5.0502Y-5.05
X5.15Y-3.15
X5.15Y-3.75
X5.1502Y-3.95
X5.1502Y-4.25
X5.1502Y-4.45
X5.1502Y-5.05
X5.1523Y-2.85
X5.25Y-3.15
X5.25Y-3.75
X5.2502Y-3.95
X5.2502Y-4.25
X5.2502Y-4.45
X5.2502Y-5.05
X5.35Y-2.65
X5.35Y-2.95
X5.35Y-3.15
X5.35Y-3.75
X5.3502Y-3.95
X5.3502Y-4.25
X5.3502Y-4.45
X5.3502Y-5.05
X5.45Y-2.65
X5.45Y-2.95
X5.45Y-3.15
X5.45Y-3.75
X5.4502Y-3.95
X5.4502Y-4.25
X5.4502Y-4.45
X5.4502Y-5.05
X5.55Y-2.65
X5.55Y-2.95
X5.55Y-3.15
X5.55Y-3.75
X5.5502Y-3.95
X5.5502Y-4.25
X5.5502Y-4.45
X5.5502Y-5.05
X5.65Y-2.65
X5.65Y-2.95
X5.65Y-3.15
X5.65Y-3.75
X5.6502Y-3.95
X5.6502Y-4.25
X5.6502Y-4.45
X5.6502Y-5.05
X5.75Y-2.65
X5.75Y-2.95
X5.75Y-3.15
X5.75Y-3.75
X5.7502Y-3.95
X5.7502Y-4.25
X5.7502Y-4.45
X5.7502Y-5.05
X5.85Y-2.65
X5.85Y-2.95
X5.85Y-3.15
X5.85Y-3.75
X5.8502Y-3.95
X5.8502Y-4.25
X5.8502Y-4.45
X5.8502Y-5.05
X5.95Y-2.65
X5.95Y-2.95
X5.95Y-3.15
X5.95Y-3.75
X5.9502Y-3.95
X5.9502Y-4.25
X5.9502Y-4.45
X5.9502Y-5.05
X6.05Y-2.65
X6.05Y-2.95
X6.05Y-3.15
X6.05Y-3.75
X6.0502Y-3.95
X6.0502Y-4.25
X6.0502Y-4.45
X6.0502Y-5.05
X6.3Y-3.95
X6.3Y-4.25
X6.35Y-2.65
X6.35Y-2.95
X6.35Y-3.3
X6.35Y-3.6
X6.35Y-4.6
X6.35Y-4.9
X6.4Y-3.95
X6.4Y-4.25
X6.45Y-2.65
X6.45Y-2.95
X6.45Y-3.125
X6.45Y-3.3
X6.45Y-3.6
X6.45Y-3.775
X6.45Y-4.425
X6.45Y-4.6
X6.45Y-4.9
X6.5Y-3.95
X6.5Y-4.25
X6.55Y-2.65
X6.55Y-2.95
X6.55Y-3.3
X6.55Y-3.6
X6.55Y-4.6
X6.55Y-4.9
X6.5516Y-5.125
X6.6Y-3.95
X6.6Y-4.25
X6.65Y-2.65
X6.65Y-2.95
X6.65Y-3.3
X6.65Y-3.6
X6.65Y-4.6
X6.65Y-4.9
X6.7Y-3.95
X6.7Y-4.25
X6.7484Y-5.125
X6.75Y-2.65
X6.75Y-2.95
X6.75Y-3.3
X6.75Y-3.6
X6.75Y-4.6
X6.75Y-4.9
X6.8Y-3.95
X6.8Y-4.25
X6.85Y-2.65
X6.85Y-2.95
X6.85Y-3.125
X6.85Y-3.3
X6.85Y-3.6
X6.85Y-3.775
X6.85Y-4.425
X6.85Y-4.6
X6.85Y-4.9
X6.9Y-3.95
X6.9Y-4.25
X6.95Y-2.65
X6.95Y-2.95
X6.95Y-3.3
X6.95Y-3.6
X6.95Y-4.6
X6.95Y-4.9
X7.0Y-3.95
X7.0Y-4.25
X7.1516Y-5.05
X7.3484Y-5.05
X7.5516Y-5.05
X7.7484Y-5.05
X7.9516Y-5.05
X8.1484Y-5.05
T4
X4.65Y-3.0
X4.65Y-3.1
X4.65Y-3.2
X4.75Y-3.0
X4.75Y-3.1
X4.75Y-3.2
X7.25Y-3.2
X7.25Y-3.3
X7.25Y-4.8
X7.25Y-4.9
X7.35Y-3.2
X7.35Y-3.3
X7.35Y-4.8
X7.35Y-4.9
X7.45Y-3.2
X7.45Y-3.3
X7.45Y-4.8
X7.45Y-4.9
X7.55Y-3.2
X7.55Y-3.3
X7.55Y-4.8
X7.55Y-4.9
X7.65Y-3.2
X7.65Y-3.3
X7.65Y-4.8
X7.65Y-4.9
X7.75Y-3.2
X7.75Y-3.3
X7.75Y-4.8
X7.75Y-4.9
X7.85Y-3.2
X7.85Y-3.3
X7.85Y-4.8
X7.85Y-4.9
X7.95Y-3.2
X7.95Y-3.3
X7.95Y-4.8
X7.95Y-4.9
X8.05Y-3.2
X8.05Y-3.3
X8.05Y-4.8
X8.05Y-4.9
X8.15Y-3.2
X8.15Y-3.3
X8.15Y-4.8
X8.15Y-4.9
T5
X4.75Y-3.45
X4.75Y-3.55
X4.75Y-3.65
X4.75Y-4.45
X4.75Y-4.55
X4.75Y-4.65
T0
M30
