%TF.GenerationSoftware,KiCad,Pcbnew,(6.0.8-1)-1*%
%TF.CreationDate,2022-11-07T14:14:20-08:00*%
%TF.ProjectId,DiskII,4469736b-4949-42e6-9b69-6361645f7063,1*%
%TF.SameCoordinates,Original*%
%TF.FileFunction,Legend,Bot*%
%TF.FilePolarity,Positive*%
%FSLAX46Y46*%
G04 Gerber Fmt 4.6, Leading zero omitted, Abs format (unit mm)*
G04 Created by KiCad (PCBNEW (6.0.8-1)-1) date 2022-11-07 14:14:20*
%MOMM*%
%LPD*%
G01*
G04 APERTURE LIST*
%ADD10C,0.150000*%
%ADD11C,0.120000*%
G04 APERTURE END LIST*
D10*
%TO.C,JP17*%
X204222380Y-72350476D02*
X204936666Y-72350476D01*
X205079523Y-72302857D01*
X205174761Y-72207619D01*
X205222380Y-72064761D01*
X205222380Y-71969523D01*
X205222380Y-72826666D02*
X204222380Y-72826666D01*
X204222380Y-73207619D01*
X204270000Y-73302857D01*
X204317619Y-73350476D01*
X204412857Y-73398095D01*
X204555714Y-73398095D01*
X204650952Y-73350476D01*
X204698571Y-73302857D01*
X204746190Y-73207619D01*
X204746190Y-72826666D01*
X205222380Y-74350476D02*
X205222380Y-73779047D01*
X205222380Y-74064761D02*
X204222380Y-74064761D01*
X204365238Y-73969523D01*
X204460476Y-73874285D01*
X204508095Y-73779047D01*
X204222380Y-74683809D02*
X204222380Y-75350476D01*
X205222380Y-74921904D01*
%TO.C,JP19*%
X206462380Y-72350476D02*
X207176666Y-72350476D01*
X207319523Y-72302857D01*
X207414761Y-72207619D01*
X207462380Y-72064761D01*
X207462380Y-71969523D01*
X207462380Y-72826666D02*
X206462380Y-72826666D01*
X206462380Y-73207619D01*
X206510000Y-73302857D01*
X206557619Y-73350476D01*
X206652857Y-73398095D01*
X206795714Y-73398095D01*
X206890952Y-73350476D01*
X206938571Y-73302857D01*
X206986190Y-73207619D01*
X206986190Y-72826666D01*
X207462380Y-74350476D02*
X207462380Y-73779047D01*
X207462380Y-74064761D02*
X206462380Y-74064761D01*
X206605238Y-73969523D01*
X206700476Y-73874285D01*
X206748095Y-73779047D01*
X207462380Y-74826666D02*
X207462380Y-75017142D01*
X207414761Y-75112380D01*
X207367142Y-75160000D01*
X207224285Y-75255238D01*
X207033809Y-75302857D01*
X206652857Y-75302857D01*
X206557619Y-75255238D01*
X206510000Y-75207619D01*
X206462380Y-75112380D01*
X206462380Y-74921904D01*
X206510000Y-74826666D01*
X206557619Y-74779047D01*
X206652857Y-74731428D01*
X206890952Y-74731428D01*
X206986190Y-74779047D01*
X207033809Y-74826666D01*
X207081428Y-74921904D01*
X207081428Y-75112380D01*
X207033809Y-75207619D01*
X206986190Y-75255238D01*
X206890952Y-75302857D01*
D11*
%TO.C,JP17*%
X203470000Y-79455000D02*
G75*
G03*
X204170000Y-80155000I700000J0D01*
G01*
X204770000Y-80155000D02*
G75*
G03*
X205470000Y-79455000I0J700000D01*
G01*
X205470000Y-76755000D02*
G75*
G03*
X204770000Y-76055000I-699999J1D01*
G01*
X204170000Y-76055000D02*
G75*
G03*
X203470000Y-76755000I-1J-699999D01*
G01*
X205470000Y-79505000D02*
X205470000Y-76705000D01*
X204170000Y-80155000D02*
X204770000Y-80155000D01*
X204770000Y-76055000D02*
X204170000Y-76055000D01*
X203200000Y-76905000D02*
X202900000Y-77205000D01*
X203470000Y-76705000D02*
X203470000Y-79505000D01*
X202900000Y-77205000D02*
X202900000Y-76605000D01*
X203200000Y-76905000D02*
X202900000Y-76605000D01*
%TO.C,JP19*%
X206010000Y-76755000D02*
X206010000Y-78155000D01*
X208010000Y-78155000D02*
X208010000Y-76755000D01*
X206710000Y-78855000D02*
X207310000Y-78855000D01*
X207310000Y-76055000D02*
X206710000Y-76055000D01*
X208010000Y-76755000D02*
G75*
G03*
X207310000Y-76055000I-699999J1D01*
G01*
X206710000Y-76055000D02*
G75*
G03*
X206010000Y-76755000I-1J-699999D01*
G01*
X206010000Y-78155000D02*
G75*
G03*
X206710000Y-78855000I700000J0D01*
G01*
X207310000Y-78855000D02*
G75*
G03*
X208010000Y-78155000I0J700000D01*
G01*
%TD*%
M02*
