%TF.GenerationSoftware,KiCad,Pcbnew,(6.0.8-1)-1*%
%TF.CreationDate,2022-11-07T14:14:20-08:00*%
%TF.ProjectId,DiskII,4469736b-4949-42e6-9b69-6361645f7063,1*%
%TF.SameCoordinates,Original*%
%TF.FileFunction,Legend,Top*%
%TF.FilePolarity,Positive*%
%FSLAX46Y46*%
G04 Gerber Fmt 4.6, Leading zero omitted, Abs format (unit mm)*
G04 Created by KiCad (PCBNEW (6.0.8-1)-1) date 2022-11-07 14:14:20*
%MOMM*%
%LPD*%
G01*
G04 APERTURE LIST*
%ADD10C,0.150000*%
%ADD11C,0.300000*%
%ADD12C,0.254000*%
%ADD13C,0.127000*%
%ADD14C,0.190500*%
%ADD15C,0.508000*%
%ADD16C,0.120000*%
G04 APERTURE END LIST*
D10*
G36*
X208915000Y-92075000D02*
G01*
X207645000Y-92075000D01*
X207645000Y-94615000D01*
X206375000Y-94615000D01*
X206375000Y-92075000D01*
X205105000Y-92075000D01*
X207010000Y-90170000D01*
X208915000Y-92075000D01*
G37*
X208915000Y-92075000D02*
X207645000Y-92075000D01*
X207645000Y-94615000D01*
X206375000Y-94615000D01*
X206375000Y-92075000D01*
X205105000Y-92075000D01*
X207010000Y-90170000D01*
X208915000Y-92075000D01*
G36*
X207645000Y-105410000D02*
G01*
X208915000Y-105410000D01*
X207010000Y-107315000D01*
X205105000Y-105410000D01*
X206375000Y-105410000D01*
X206375000Y-102870000D01*
X207645000Y-102870000D01*
X207645000Y-105410000D01*
G37*
X207645000Y-105410000D02*
X208915000Y-105410000D01*
X207010000Y-107315000D01*
X205105000Y-105410000D01*
X206375000Y-105410000D01*
X206375000Y-102870000D01*
X207645000Y-102870000D01*
X207645000Y-105410000D01*
X151465595Y-131897380D02*
X151465595Y-131230714D01*
X151465595Y-131421190D02*
X151513214Y-131325952D01*
X151560833Y-131278333D01*
X151656071Y-131230714D01*
X151751309Y-131230714D01*
X152465595Y-131849761D02*
X152370357Y-131897380D01*
X152179880Y-131897380D01*
X152084642Y-131849761D01*
X152037023Y-131754523D01*
X152037023Y-131373571D01*
X152084642Y-131278333D01*
X152179880Y-131230714D01*
X152370357Y-131230714D01*
X152465595Y-131278333D01*
X152513214Y-131373571D01*
X152513214Y-131468809D01*
X152037023Y-131564047D01*
X152846547Y-131230714D02*
X153084642Y-131897380D01*
X153322738Y-131230714D01*
X154989404Y-131897380D02*
X154417976Y-131897380D01*
X154703690Y-131897380D02*
X154703690Y-130897380D01*
X154608452Y-131040238D01*
X154513214Y-131135476D01*
X154417976Y-131183095D01*
D11*
X126290000Y-131123571D02*
X126290000Y-132337857D01*
X126218571Y-132480714D01*
X126147142Y-132552142D01*
X126004285Y-132623571D01*
X125790000Y-132623571D01*
X125647142Y-132552142D01*
X126290000Y-132052142D02*
X126147142Y-132123571D01*
X125861428Y-132123571D01*
X125718571Y-132052142D01*
X125647142Y-131980714D01*
X125575714Y-131837857D01*
X125575714Y-131409285D01*
X125647142Y-131266428D01*
X125718571Y-131195000D01*
X125861428Y-131123571D01*
X126147142Y-131123571D01*
X126290000Y-131195000D01*
X127004285Y-132123571D02*
X127004285Y-131123571D01*
X127004285Y-130623571D02*
X126932857Y-130695000D01*
X127004285Y-130766428D01*
X127075714Y-130695000D01*
X127004285Y-130623571D01*
X127004285Y-130766428D01*
X127504285Y-131123571D02*
X128075714Y-131123571D01*
X127718571Y-130623571D02*
X127718571Y-131909285D01*
X127790000Y-132052142D01*
X127932857Y-132123571D01*
X128075714Y-132123571D01*
X128575714Y-132123571D02*
X128575714Y-130623571D01*
X129218571Y-132123571D02*
X129218571Y-131337857D01*
X129147142Y-131195000D01*
X129004285Y-131123571D01*
X128790000Y-131123571D01*
X128647142Y-131195000D01*
X128575714Y-131266428D01*
X130575714Y-131123571D02*
X130575714Y-132123571D01*
X129932857Y-131123571D02*
X129932857Y-131909285D01*
X130004285Y-132052142D01*
X130147142Y-132123571D01*
X130361428Y-132123571D01*
X130504285Y-132052142D01*
X130575714Y-131980714D01*
X131290000Y-132123571D02*
X131290000Y-130623571D01*
X131290000Y-131195000D02*
X131432857Y-131123571D01*
X131718571Y-131123571D01*
X131861428Y-131195000D01*
X131932857Y-131266428D01*
X132004285Y-131409285D01*
X132004285Y-131837857D01*
X131932857Y-131980714D01*
X131861428Y-132052142D01*
X131718571Y-132123571D01*
X131432857Y-132123571D01*
X131290000Y-132052142D01*
X132647142Y-131980714D02*
X132718571Y-132052142D01*
X132647142Y-132123571D01*
X132575714Y-132052142D01*
X132647142Y-131980714D01*
X132647142Y-132123571D01*
X134004285Y-132052142D02*
X133861428Y-132123571D01*
X133575714Y-132123571D01*
X133432857Y-132052142D01*
X133361428Y-131980714D01*
X133290000Y-131837857D01*
X133290000Y-131409285D01*
X133361428Y-131266428D01*
X133432857Y-131195000D01*
X133575714Y-131123571D01*
X133861428Y-131123571D01*
X134004285Y-131195000D01*
X134861428Y-132123571D02*
X134718571Y-132052142D01*
X134647142Y-131980714D01*
X134575714Y-131837857D01*
X134575714Y-131409285D01*
X134647142Y-131266428D01*
X134718571Y-131195000D01*
X134861428Y-131123571D01*
X135075714Y-131123571D01*
X135218571Y-131195000D01*
X135290000Y-131266428D01*
X135361428Y-131409285D01*
X135361428Y-131837857D01*
X135290000Y-131980714D01*
X135218571Y-132052142D01*
X135075714Y-132123571D01*
X134861428Y-132123571D01*
X136004285Y-132123571D02*
X136004285Y-131123571D01*
X136004285Y-131266428D02*
X136075714Y-131195000D01*
X136218571Y-131123571D01*
X136432857Y-131123571D01*
X136575714Y-131195000D01*
X136647142Y-131337857D01*
X136647142Y-132123571D01*
X136647142Y-131337857D02*
X136718571Y-131195000D01*
X136861428Y-131123571D01*
X137075714Y-131123571D01*
X137218571Y-131195000D01*
X137290000Y-131337857D01*
X137290000Y-132123571D01*
X139075714Y-130552142D02*
X137790000Y-132480714D01*
X139575714Y-132123571D02*
X139575714Y-130623571D01*
X139575714Y-131195000D02*
X139718571Y-131123571D01*
X140004285Y-131123571D01*
X140147142Y-131195000D01*
X140218571Y-131266428D01*
X140290000Y-131409285D01*
X140290000Y-131837857D01*
X140218571Y-131980714D01*
X140147142Y-132052142D01*
X140004285Y-132123571D01*
X139718571Y-132123571D01*
X139575714Y-132052142D01*
X140718571Y-131123571D02*
X141290000Y-131123571D01*
X140932857Y-130623571D02*
X140932857Y-131909285D01*
X141004285Y-132052142D01*
X141147142Y-132123571D01*
X141290000Y-132123571D01*
X141790000Y-132123571D02*
X141790000Y-130623571D01*
X141790000Y-131195000D02*
X141932857Y-131123571D01*
X142218571Y-131123571D01*
X142361428Y-131195000D01*
X142432857Y-131266428D01*
X142504285Y-131409285D01*
X142504285Y-131837857D01*
X142432857Y-131980714D01*
X142361428Y-132052142D01*
X142218571Y-132123571D01*
X141932857Y-132123571D01*
X141790000Y-132052142D01*
X144218571Y-130552142D02*
X142932857Y-132480714D01*
X144718571Y-132123571D02*
X144718571Y-130623571D01*
X145075714Y-130623571D01*
X145290000Y-130695000D01*
X145432857Y-130837857D01*
X145504285Y-130980714D01*
X145575714Y-131266428D01*
X145575714Y-131480714D01*
X145504285Y-131766428D01*
X145432857Y-131909285D01*
X145290000Y-132052142D01*
X145075714Y-132123571D01*
X144718571Y-132123571D01*
X146218571Y-132123571D02*
X146218571Y-131123571D01*
X146218571Y-130623571D02*
X146147142Y-130695000D01*
X146218571Y-130766428D01*
X146290000Y-130695000D01*
X146218571Y-130623571D01*
X146218571Y-130766428D01*
X146861428Y-132052142D02*
X147004285Y-132123571D01*
X147290000Y-132123571D01*
X147432857Y-132052142D01*
X147504285Y-131909285D01*
X147504285Y-131837857D01*
X147432857Y-131695000D01*
X147290000Y-131623571D01*
X147075714Y-131623571D01*
X146932857Y-131552142D01*
X146861428Y-131409285D01*
X146861428Y-131337857D01*
X146932857Y-131195000D01*
X147075714Y-131123571D01*
X147290000Y-131123571D01*
X147432857Y-131195000D01*
X148147142Y-132123571D02*
X148147142Y-130623571D01*
X148290000Y-131552142D02*
X148718571Y-132123571D01*
X148718571Y-131123571D02*
X148147142Y-131695000D01*
X149361428Y-132123571D02*
X149361428Y-130623571D01*
X150075714Y-132123571D02*
X150075714Y-130623571D01*
D12*
X148698857Y-66012785D02*
X148698857Y-64107785D01*
X149152428Y-64107785D01*
X149424571Y-64198500D01*
X149606000Y-64379928D01*
X149696714Y-64561357D01*
X149787428Y-64924214D01*
X149787428Y-65196357D01*
X149696714Y-65559214D01*
X149606000Y-65740642D01*
X149424571Y-65922071D01*
X149152428Y-66012785D01*
X148698857Y-66012785D01*
X150603857Y-66012785D02*
X150603857Y-64107785D01*
X151420285Y-65922071D02*
X151692428Y-66012785D01*
X152146000Y-66012785D01*
X152327428Y-65922071D01*
X152418142Y-65831357D01*
X152508857Y-65649928D01*
X152508857Y-65468500D01*
X152418142Y-65287071D01*
X152327428Y-65196357D01*
X152146000Y-65105642D01*
X151783142Y-65014928D01*
X151601714Y-64924214D01*
X151511000Y-64833500D01*
X151420285Y-64652071D01*
X151420285Y-64470642D01*
X151511000Y-64289214D01*
X151601714Y-64198500D01*
X151783142Y-64107785D01*
X152236714Y-64107785D01*
X152508857Y-64198500D01*
X153325285Y-66012785D02*
X153325285Y-64107785D01*
X154413857Y-66012785D02*
X153597428Y-64924214D01*
X154413857Y-64107785D02*
X153325285Y-65196357D01*
X156500285Y-66647785D02*
X156953857Y-66647785D01*
X156953857Y-63926357D01*
X156500285Y-63926357D01*
X158496000Y-66647785D02*
X158042428Y-66647785D01*
X158042428Y-63926357D01*
X158496000Y-63926357D01*
X160673142Y-66012785D02*
X160673142Y-64107785D01*
X161580285Y-66012785D02*
X161580285Y-64107785D01*
X162668857Y-66012785D01*
X162668857Y-64107785D01*
X163303857Y-64107785D02*
X164392428Y-64107785D01*
X163848142Y-66012785D02*
X163848142Y-64107785D01*
X165027428Y-65014928D02*
X165662428Y-65014928D01*
X165934571Y-66012785D02*
X165027428Y-66012785D01*
X165027428Y-64107785D01*
X165934571Y-64107785D01*
X167839571Y-66012785D02*
X167204571Y-65105642D01*
X166751000Y-66012785D02*
X166751000Y-64107785D01*
X167476714Y-64107785D01*
X167658142Y-64198500D01*
X167748857Y-64289214D01*
X167839571Y-64470642D01*
X167839571Y-64742785D01*
X167748857Y-64924214D01*
X167658142Y-65014928D01*
X167476714Y-65105642D01*
X166751000Y-65105642D01*
X169291000Y-65014928D02*
X168656000Y-65014928D01*
X168656000Y-66012785D02*
X168656000Y-64107785D01*
X169563142Y-64107785D01*
X170198142Y-65468500D02*
X171105285Y-65468500D01*
X170016714Y-66012785D02*
X170651714Y-64107785D01*
X171286714Y-66012785D01*
X173010285Y-65831357D02*
X172919571Y-65922071D01*
X172647428Y-66012785D01*
X172465999Y-66012785D01*
X172193857Y-65922071D01*
X172012428Y-65740642D01*
X171921714Y-65559214D01*
X171830999Y-65196357D01*
X171830999Y-64924214D01*
X171921714Y-64561357D01*
X172012428Y-64379928D01*
X172193857Y-64198500D01*
X172465999Y-64107785D01*
X172647428Y-64107785D01*
X172919571Y-64198500D01*
X173010285Y-64289214D01*
X173826714Y-65014928D02*
X174461714Y-65014928D01*
X174733857Y-66012785D02*
X173826714Y-66012785D01*
X173826714Y-64107785D01*
X174733857Y-64107785D01*
D10*
%TO.C,R2*%
X112847380Y-103036666D02*
X112371190Y-103370000D01*
X112847380Y-103608095D02*
X111847380Y-103608095D01*
X111847380Y-103227142D01*
X111895000Y-103131904D01*
X111942619Y-103084285D01*
X112037857Y-103036666D01*
X112180714Y-103036666D01*
X112275952Y-103084285D01*
X112323571Y-103131904D01*
X112371190Y-103227142D01*
X112371190Y-103608095D01*
X111942619Y-102655714D02*
X111895000Y-102608095D01*
X111847380Y-102512857D01*
X111847380Y-102274761D01*
X111895000Y-102179523D01*
X111942619Y-102131904D01*
X112037857Y-102084285D01*
X112133095Y-102084285D01*
X112275952Y-102131904D01*
X112847380Y-102703333D01*
X112847380Y-102084285D01*
X114387380Y-103155714D02*
X114387380Y-103346190D01*
X114435000Y-103441428D01*
X114482619Y-103489047D01*
X114625476Y-103584285D01*
X114815952Y-103631904D01*
X115196904Y-103631904D01*
X115292142Y-103584285D01*
X115339761Y-103536666D01*
X115387380Y-103441428D01*
X115387380Y-103250952D01*
X115339761Y-103155714D01*
X115292142Y-103108095D01*
X115196904Y-103060476D01*
X114958809Y-103060476D01*
X114863571Y-103108095D01*
X114815952Y-103155714D01*
X114768333Y-103250952D01*
X114768333Y-103441428D01*
X114815952Y-103536666D01*
X114863571Y-103584285D01*
X114958809Y-103631904D01*
X114815952Y-102489047D02*
X114768333Y-102584285D01*
X114720714Y-102631904D01*
X114625476Y-102679523D01*
X114577857Y-102679523D01*
X114482619Y-102631904D01*
X114435000Y-102584285D01*
X114387380Y-102489047D01*
X114387380Y-102298571D01*
X114435000Y-102203333D01*
X114482619Y-102155714D01*
X114577857Y-102108095D01*
X114625476Y-102108095D01*
X114720714Y-102155714D01*
X114768333Y-102203333D01*
X114815952Y-102298571D01*
X114815952Y-102489047D01*
X114863571Y-102584285D01*
X114911190Y-102631904D01*
X115006428Y-102679523D01*
X115196904Y-102679523D01*
X115292142Y-102631904D01*
X115339761Y-102584285D01*
X115387380Y-102489047D01*
X115387380Y-102298571D01*
X115339761Y-102203333D01*
X115292142Y-102155714D01*
X115196904Y-102108095D01*
X115006428Y-102108095D01*
X114911190Y-102155714D01*
X114863571Y-102203333D01*
X114815952Y-102298571D01*
%TO.C,R3*%
X168743333Y-77922380D02*
X168410000Y-77446190D01*
X168171904Y-77922380D02*
X168171904Y-76922380D01*
X168552857Y-76922380D01*
X168648095Y-76970000D01*
X168695714Y-77017619D01*
X168743333Y-77112857D01*
X168743333Y-77255714D01*
X168695714Y-77350952D01*
X168648095Y-77398571D01*
X168552857Y-77446190D01*
X168171904Y-77446190D01*
X169076666Y-76922380D02*
X169695714Y-76922380D01*
X169362380Y-77303333D01*
X169505238Y-77303333D01*
X169600476Y-77350952D01*
X169648095Y-77398571D01*
X169695714Y-77493809D01*
X169695714Y-77731904D01*
X169648095Y-77827142D01*
X169600476Y-77874761D01*
X169505238Y-77922380D01*
X169219523Y-77922380D01*
X169124285Y-77874761D01*
X169076666Y-77827142D01*
X168076666Y-78827380D02*
X168695714Y-78827380D01*
X168362380Y-79208333D01*
X168505238Y-79208333D01*
X168600476Y-79255952D01*
X168648095Y-79303571D01*
X168695714Y-79398809D01*
X168695714Y-79636904D01*
X168648095Y-79732142D01*
X168600476Y-79779761D01*
X168505238Y-79827380D01*
X168219523Y-79827380D01*
X168124285Y-79779761D01*
X168076666Y-79732142D01*
X169124285Y-79827380D02*
X169124285Y-78827380D01*
X169695714Y-79827380D02*
X169267142Y-79255952D01*
X169695714Y-78827380D02*
X169124285Y-79398809D01*
%TO.C,C1*%
X167552857Y-130532142D02*
X167600476Y-130579761D01*
X167552857Y-130627380D01*
X167505238Y-130579761D01*
X167552857Y-130532142D01*
X167552857Y-130627380D01*
X168552857Y-130627380D02*
X167981428Y-130627380D01*
X168267142Y-130627380D02*
X168267142Y-129627380D01*
X168171904Y-129770238D01*
X168076666Y-129865476D01*
X167981428Y-129913095D01*
X169410000Y-129960714D02*
X169410000Y-130627380D01*
X168981428Y-129960714D02*
X168981428Y-130484523D01*
X169029047Y-130579761D01*
X169124285Y-130627380D01*
X169267142Y-130627380D01*
X169362380Y-130579761D01*
X169410000Y-130532142D01*
X170219523Y-130103571D02*
X169886190Y-130103571D01*
X169886190Y-130627380D02*
X169886190Y-129627380D01*
X170362380Y-129627380D01*
X168743333Y-132437142D02*
X168695714Y-132484761D01*
X168552857Y-132532380D01*
X168457619Y-132532380D01*
X168314761Y-132484761D01*
X168219523Y-132389523D01*
X168171904Y-132294285D01*
X168124285Y-132103809D01*
X168124285Y-131960952D01*
X168171904Y-131770476D01*
X168219523Y-131675238D01*
X168314761Y-131580000D01*
X168457619Y-131532380D01*
X168552857Y-131532380D01*
X168695714Y-131580000D01*
X168743333Y-131627619D01*
X169695714Y-132532380D02*
X169124285Y-132532380D01*
X169410000Y-132532380D02*
X169410000Y-131532380D01*
X169314761Y-131675238D01*
X169219523Y-131770476D01*
X169124285Y-131818095D01*
%TO.C,R4*%
X168743333Y-115387380D02*
X168410000Y-114911190D01*
X168171904Y-115387380D02*
X168171904Y-114387380D01*
X168552857Y-114387380D01*
X168648095Y-114435000D01*
X168695714Y-114482619D01*
X168743333Y-114577857D01*
X168743333Y-114720714D01*
X168695714Y-114815952D01*
X168648095Y-114863571D01*
X168552857Y-114911190D01*
X168171904Y-114911190D01*
X169600476Y-114720714D02*
X169600476Y-115387380D01*
X169362380Y-114339761D02*
X169124285Y-115054047D01*
X169743333Y-115054047D01*
X168624285Y-112847380D02*
X168052857Y-112847380D01*
X168338571Y-112847380D02*
X168338571Y-111847380D01*
X168243333Y-111990238D01*
X168148095Y-112085476D01*
X168052857Y-112133095D01*
X169052857Y-112847380D02*
X169052857Y-111847380D01*
X169386190Y-112561666D01*
X169719523Y-111847380D01*
X169719523Y-112847380D01*
%TO.C,R1*%
X113017380Y-115736666D02*
X112541190Y-116070000D01*
X113017380Y-116308095D02*
X112017380Y-116308095D01*
X112017380Y-115927142D01*
X112065000Y-115831904D01*
X112112619Y-115784285D01*
X112207857Y-115736666D01*
X112350714Y-115736666D01*
X112445952Y-115784285D01*
X112493571Y-115831904D01*
X112541190Y-115927142D01*
X112541190Y-116308095D01*
X113017380Y-114784285D02*
X113017380Y-115355714D01*
X113017380Y-115070000D02*
X112017380Y-115070000D01*
X112160238Y-115165238D01*
X112255476Y-115260476D01*
X112303095Y-115355714D01*
X115387380Y-116236666D02*
X115387380Y-116808095D01*
X115387380Y-116522380D02*
X114387380Y-116522380D01*
X114530238Y-116617619D01*
X114625476Y-116712857D01*
X114673095Y-116808095D01*
X114387380Y-115331904D02*
X114387380Y-115808095D01*
X114863571Y-115855714D01*
X114815952Y-115808095D01*
X114768333Y-115712857D01*
X114768333Y-115474761D01*
X114815952Y-115379523D01*
X114863571Y-115331904D01*
X114958809Y-115284285D01*
X115196904Y-115284285D01*
X115292142Y-115331904D01*
X115339761Y-115379523D01*
X115387380Y-115474761D01*
X115387380Y-115712857D01*
X115339761Y-115808095D01*
X115292142Y-115855714D01*
X114387380Y-114665238D02*
X114387380Y-114570000D01*
X114435000Y-114474761D01*
X114482619Y-114427142D01*
X114577857Y-114379523D01*
X114768333Y-114331904D01*
X115006428Y-114331904D01*
X115196904Y-114379523D01*
X115292142Y-114427142D01*
X115339761Y-114474761D01*
X115387380Y-114570000D01*
X115387380Y-114665238D01*
X115339761Y-114760476D01*
X115292142Y-114808095D01*
X115196904Y-114855714D01*
X115006428Y-114903333D01*
X114768333Y-114903333D01*
X114577857Y-114855714D01*
X114482619Y-114808095D01*
X114435000Y-114760476D01*
X114387380Y-114665238D01*
%TO.C,C4*%
X115292142Y-127087142D02*
X115339761Y-127039523D01*
X115387380Y-127087142D01*
X115339761Y-127134761D01*
X115292142Y-127087142D01*
X115387380Y-127087142D01*
X115387380Y-126087142D02*
X115387380Y-126658571D01*
X115387380Y-126372857D02*
X114387380Y-126372857D01*
X114530238Y-126468095D01*
X114625476Y-126563333D01*
X114673095Y-126658571D01*
X114720714Y-125230000D02*
X115387380Y-125230000D01*
X114720714Y-125658571D02*
X115244523Y-125658571D01*
X115339761Y-125610952D01*
X115387380Y-125515714D01*
X115387380Y-125372857D01*
X115339761Y-125277619D01*
X115292142Y-125230000D01*
X114863571Y-124420476D02*
X114863571Y-124753809D01*
X115387380Y-124753809D02*
X114387380Y-124753809D01*
X114387380Y-124277619D01*
X113387142Y-123951666D02*
X113434761Y-123999285D01*
X113482380Y-124142142D01*
X113482380Y-124237380D01*
X113434761Y-124380238D01*
X113339523Y-124475476D01*
X113244285Y-124523095D01*
X113053809Y-124570714D01*
X112910952Y-124570714D01*
X112720476Y-124523095D01*
X112625238Y-124475476D01*
X112530000Y-124380238D01*
X112482380Y-124237380D01*
X112482380Y-124142142D01*
X112530000Y-123999285D01*
X112577619Y-123951666D01*
X112815714Y-123094523D02*
X113482380Y-123094523D01*
X112434761Y-123332619D02*
X113149047Y-123570714D01*
X113149047Y-122951666D01*
D13*
%TO.C,JP5A10*%
X137522857Y-116332000D02*
X137885714Y-116332000D01*
X137450285Y-116549714D02*
X137704285Y-115787714D01*
X137958285Y-116549714D01*
X138611428Y-116549714D02*
X138176000Y-116549714D01*
X138393714Y-116549714D02*
X138393714Y-115787714D01*
X138321142Y-115896571D01*
X138248571Y-115969142D01*
X138176000Y-116005428D01*
X139083142Y-115787714D02*
X139155714Y-115787714D01*
X139228285Y-115824000D01*
X139264571Y-115860285D01*
X139300857Y-115932857D01*
X139337142Y-116078000D01*
X139337142Y-116259428D01*
X139300857Y-116404571D01*
X139264571Y-116477142D01*
X139228285Y-116513428D01*
X139155714Y-116549714D01*
X139083142Y-116549714D01*
X139010571Y-116513428D01*
X138974285Y-116477142D01*
X138938000Y-116404571D01*
X138901714Y-116259428D01*
X138901714Y-116078000D01*
X138938000Y-115932857D01*
X138974285Y-115860285D01*
X139010571Y-115824000D01*
X139083142Y-115787714D01*
X136361714Y-118454714D02*
X135998857Y-118454714D01*
X135998857Y-117692714D01*
X136760857Y-117692714D02*
X136906000Y-117692714D01*
X136978571Y-117729000D01*
X137051142Y-117801571D01*
X137087428Y-117946714D01*
X137087428Y-118200714D01*
X137051142Y-118345857D01*
X136978571Y-118418428D01*
X136906000Y-118454714D01*
X136760857Y-118454714D01*
X136688285Y-118418428D01*
X136615714Y-118345857D01*
X136579428Y-118200714D01*
X136579428Y-117946714D01*
X136615714Y-117801571D01*
X136688285Y-117729000D01*
X136760857Y-117692714D01*
X133585857Y-118454714D02*
X133585857Y-117692714D01*
X133585857Y-118055571D02*
X134021285Y-118055571D01*
X134021285Y-118454714D02*
X134021285Y-117692714D01*
X134384142Y-118454714D02*
X134384142Y-117692714D01*
D10*
%TO.C,UC2*%
X163347380Y-103592380D02*
X164014047Y-103592380D01*
X163585476Y-104592380D01*
X164823571Y-103925714D02*
X164823571Y-104592380D01*
X164585476Y-103544761D02*
X164347380Y-104259047D01*
X164966428Y-104259047D01*
X165823571Y-104592380D02*
X165347380Y-104592380D01*
X165347380Y-103592380D01*
X166109285Y-104544761D02*
X166252142Y-104592380D01*
X166490238Y-104592380D01*
X166585476Y-104544761D01*
X166633095Y-104497142D01*
X166680714Y-104401904D01*
X166680714Y-104306666D01*
X166633095Y-104211428D01*
X166585476Y-104163809D01*
X166490238Y-104116190D01*
X166299761Y-104068571D01*
X166204523Y-104020952D01*
X166156904Y-103973333D01*
X166109285Y-103878095D01*
X166109285Y-103782857D01*
X166156904Y-103687619D01*
X166204523Y-103640000D01*
X166299761Y-103592380D01*
X166537857Y-103592380D01*
X166680714Y-103640000D01*
X167061666Y-103687619D02*
X167109285Y-103640000D01*
X167204523Y-103592380D01*
X167442619Y-103592380D01*
X167537857Y-103640000D01*
X167585476Y-103687619D01*
X167633095Y-103782857D01*
X167633095Y-103878095D01*
X167585476Y-104020952D01*
X167014047Y-104592380D01*
X167633095Y-104592380D01*
X168537857Y-103592380D02*
X168061666Y-103592380D01*
X168014047Y-104068571D01*
X168061666Y-104020952D01*
X168156904Y-103973333D01*
X168395000Y-103973333D01*
X168490238Y-104020952D01*
X168537857Y-104068571D01*
X168585476Y-104163809D01*
X168585476Y-104401904D01*
X168537857Y-104497142D01*
X168490238Y-104544761D01*
X168395000Y-104592380D01*
X168156904Y-104592380D01*
X168061666Y-104544761D01*
X168014047Y-104497142D01*
X169061666Y-104592380D02*
X169252142Y-104592380D01*
X169347380Y-104544761D01*
X169395000Y-104497142D01*
X169490238Y-104354285D01*
X169537857Y-104163809D01*
X169537857Y-103782857D01*
X169490238Y-103687619D01*
X169442619Y-103640000D01*
X169347380Y-103592380D01*
X169156904Y-103592380D01*
X169061666Y-103640000D01*
X169014047Y-103687619D01*
X168966428Y-103782857D01*
X168966428Y-104020952D01*
X169014047Y-104116190D01*
X169061666Y-104163809D01*
X169156904Y-104211428D01*
X169347380Y-104211428D01*
X169442619Y-104163809D01*
X169490238Y-104116190D01*
X169537857Y-104020952D01*
X170680714Y-103544761D02*
X169823571Y-104830476D01*
X171061666Y-104592380D02*
X171252142Y-104592380D01*
X171347380Y-104544761D01*
X171395000Y-104497142D01*
X171490238Y-104354285D01*
X171537857Y-104163809D01*
X171537857Y-103782857D01*
X171490238Y-103687619D01*
X171442619Y-103640000D01*
X171347380Y-103592380D01*
X171156904Y-103592380D01*
X171061666Y-103640000D01*
X171014047Y-103687619D01*
X170966428Y-103782857D01*
X170966428Y-104020952D01*
X171014047Y-104116190D01*
X171061666Y-104163809D01*
X171156904Y-104211428D01*
X171347380Y-104211428D01*
X171442619Y-104163809D01*
X171490238Y-104116190D01*
X171537857Y-104020952D01*
X171871190Y-103592380D02*
X172490238Y-103592380D01*
X172156904Y-103973333D01*
X172299761Y-103973333D01*
X172395000Y-104020952D01*
X172442619Y-104068571D01*
X172490238Y-104163809D01*
X172490238Y-104401904D01*
X172442619Y-104497142D01*
X172395000Y-104544761D01*
X172299761Y-104592380D01*
X172014047Y-104592380D01*
X171918809Y-104544761D01*
X171871190Y-104497142D01*
X172823571Y-103592380D02*
X173442619Y-103592380D01*
X173109285Y-103973333D01*
X173252142Y-103973333D01*
X173347380Y-104020952D01*
X173395000Y-104068571D01*
X173442619Y-104163809D01*
X173442619Y-104401904D01*
X173395000Y-104497142D01*
X173347380Y-104544761D01*
X173252142Y-104592380D01*
X172966428Y-104592380D01*
X172871190Y-104544761D01*
X172823571Y-104497142D01*
X174299761Y-103925714D02*
X174299761Y-104592380D01*
X174061666Y-103544761D02*
X173823571Y-104259047D01*
X174442619Y-104259047D01*
X157127380Y-105401904D02*
X157936904Y-105401904D01*
X158032142Y-105354285D01*
X158079761Y-105306666D01*
X158127380Y-105211428D01*
X158127380Y-105020952D01*
X158079761Y-104925714D01*
X158032142Y-104878095D01*
X157936904Y-104830476D01*
X157127380Y-104830476D01*
X158032142Y-103782857D02*
X158079761Y-103830476D01*
X158127380Y-103973333D01*
X158127380Y-104068571D01*
X158079761Y-104211428D01*
X157984523Y-104306666D01*
X157889285Y-104354285D01*
X157698809Y-104401904D01*
X157555952Y-104401904D01*
X157365476Y-104354285D01*
X157270238Y-104306666D01*
X157175000Y-104211428D01*
X157127380Y-104068571D01*
X157127380Y-103973333D01*
X157175000Y-103830476D01*
X157222619Y-103782857D01*
X157222619Y-103401904D02*
X157175000Y-103354285D01*
X157127380Y-103259047D01*
X157127380Y-103020952D01*
X157175000Y-102925714D01*
X157222619Y-102878095D01*
X157317857Y-102830476D01*
X157413095Y-102830476D01*
X157555952Y-102878095D01*
X158127380Y-103449523D01*
X158127380Y-102830476D01*
%TO.C,UD2*%
X166748333Y-121102380D02*
X166748333Y-120102380D01*
X167319761Y-121102380D01*
X167319761Y-120102380D01*
X167795952Y-120578571D02*
X168129285Y-120578571D01*
X168272142Y-121102380D02*
X167795952Y-121102380D01*
X167795952Y-120102380D01*
X168272142Y-120102380D01*
X169176904Y-120102380D02*
X168700714Y-120102380D01*
X168653095Y-120578571D01*
X168700714Y-120530952D01*
X168795952Y-120483333D01*
X169034047Y-120483333D01*
X169129285Y-120530952D01*
X169176904Y-120578571D01*
X169224523Y-120673809D01*
X169224523Y-120911904D01*
X169176904Y-121007142D01*
X169129285Y-121054761D01*
X169034047Y-121102380D01*
X168795952Y-121102380D01*
X168700714Y-121054761D01*
X168653095Y-121007142D01*
X170129285Y-120102380D02*
X169653095Y-120102380D01*
X169605476Y-120578571D01*
X169653095Y-120530952D01*
X169748333Y-120483333D01*
X169986428Y-120483333D01*
X170081666Y-120530952D01*
X170129285Y-120578571D01*
X170176904Y-120673809D01*
X170176904Y-120911904D01*
X170129285Y-121007142D01*
X170081666Y-121054761D01*
X169986428Y-121102380D01*
X169748333Y-121102380D01*
X169653095Y-121054761D01*
X169605476Y-121007142D01*
X171034047Y-120102380D02*
X170843571Y-120102380D01*
X170748333Y-120150000D01*
X170700714Y-120197619D01*
X170605476Y-120340476D01*
X170557857Y-120530952D01*
X170557857Y-120911904D01*
X170605476Y-121007142D01*
X170653095Y-121054761D01*
X170748333Y-121102380D01*
X170938809Y-121102380D01*
X171034047Y-121054761D01*
X171081666Y-121007142D01*
X171129285Y-120911904D01*
X171129285Y-120673809D01*
X171081666Y-120578571D01*
X171034047Y-120530952D01*
X170938809Y-120483333D01*
X170748333Y-120483333D01*
X170653095Y-120530952D01*
X170605476Y-120578571D01*
X170557857Y-120673809D01*
X158417380Y-121911904D02*
X159226904Y-121911904D01*
X159322142Y-121864285D01*
X159369761Y-121816666D01*
X159417380Y-121721428D01*
X159417380Y-121530952D01*
X159369761Y-121435714D01*
X159322142Y-121388095D01*
X159226904Y-121340476D01*
X158417380Y-121340476D01*
X159417380Y-120864285D02*
X158417380Y-120864285D01*
X158417380Y-120626190D01*
X158465000Y-120483333D01*
X158560238Y-120388095D01*
X158655476Y-120340476D01*
X158845952Y-120292857D01*
X158988809Y-120292857D01*
X159179285Y-120340476D01*
X159274523Y-120388095D01*
X159369761Y-120483333D01*
X159417380Y-120626190D01*
X159417380Y-120864285D01*
X158512619Y-119911904D02*
X158465000Y-119864285D01*
X158417380Y-119769047D01*
X158417380Y-119530952D01*
X158465000Y-119435714D01*
X158512619Y-119388095D01*
X158607857Y-119340476D01*
X158703095Y-119340476D01*
X158845952Y-119388095D01*
X159417380Y-119959523D01*
X159417380Y-119340476D01*
D14*
%TO.C,UD3*%
X132049761Y-120075476D02*
X132110238Y-120015000D01*
X132231190Y-119954523D01*
X132533571Y-119954523D01*
X132654523Y-120015000D01*
X132715000Y-120075476D01*
X132775476Y-120196428D01*
X132775476Y-120317380D01*
X132715000Y-120498809D01*
X131989285Y-121224523D01*
X132775476Y-121224523D01*
X133198809Y-119954523D02*
X134045476Y-119954523D01*
X133501190Y-121224523D01*
X135134047Y-119954523D02*
X134529285Y-119954523D01*
X134468809Y-120559285D01*
X134529285Y-120498809D01*
X134650238Y-120438333D01*
X134952619Y-120438333D01*
X135073571Y-120498809D01*
X135134047Y-120559285D01*
X135194523Y-120680238D01*
X135194523Y-120982619D01*
X135134047Y-121103571D01*
X135073571Y-121164047D01*
X134952619Y-121224523D01*
X134650238Y-121224523D01*
X134529285Y-121164047D01*
X134468809Y-121103571D01*
X135920238Y-120498809D02*
X135799285Y-120438333D01*
X135738809Y-120377857D01*
X135678333Y-120256904D01*
X135678333Y-120196428D01*
X135738809Y-120075476D01*
X135799285Y-120015000D01*
X135920238Y-119954523D01*
X136162142Y-119954523D01*
X136283095Y-120015000D01*
X136343571Y-120075476D01*
X136404047Y-120196428D01*
X136404047Y-120256904D01*
X136343571Y-120377857D01*
X136283095Y-120438333D01*
X136162142Y-120498809D01*
X135920238Y-120498809D01*
X135799285Y-120559285D01*
X135738809Y-120619761D01*
X135678333Y-120740714D01*
X135678333Y-120982619D01*
X135738809Y-121103571D01*
X135799285Y-121164047D01*
X135920238Y-121224523D01*
X136162142Y-121224523D01*
X136283095Y-121164047D01*
X136343571Y-121103571D01*
X136404047Y-120982619D01*
X136404047Y-120740714D01*
X136343571Y-120619761D01*
X136283095Y-120559285D01*
X136162142Y-120498809D01*
X137855476Y-119894047D02*
X136766904Y-121526904D01*
X138944047Y-121224523D02*
X138218333Y-121224523D01*
X138581190Y-121224523D02*
X138581190Y-119954523D01*
X138460238Y-120135952D01*
X138339285Y-120256904D01*
X138218333Y-120317380D01*
X140032619Y-119954523D02*
X139790714Y-119954523D01*
X139669761Y-120015000D01*
X139609285Y-120075476D01*
X139488333Y-120256904D01*
X139427857Y-120498809D01*
X139427857Y-120982619D01*
X139488333Y-121103571D01*
X139548809Y-121164047D01*
X139669761Y-121224523D01*
X139911666Y-121224523D01*
X140032619Y-121164047D01*
X140093095Y-121103571D01*
X140153571Y-120982619D01*
X140153571Y-120680238D01*
X140093095Y-120559285D01*
X140032619Y-120498809D01*
X139911666Y-120438333D01*
X139669761Y-120438333D01*
X139548809Y-120498809D01*
X139488333Y-120559285D01*
X139427857Y-120680238D01*
X141605000Y-119894047D02*
X140516428Y-121526904D01*
X141907380Y-119954523D02*
X142693571Y-119954523D01*
X142270238Y-120438333D01*
X142451666Y-120438333D01*
X142572619Y-120498809D01*
X142633095Y-120559285D01*
X142693571Y-120680238D01*
X142693571Y-120982619D01*
X142633095Y-121103571D01*
X142572619Y-121164047D01*
X142451666Y-121224523D01*
X142088809Y-121224523D01*
X141967857Y-121164047D01*
X141907380Y-121103571D01*
X143177380Y-120075476D02*
X143237857Y-120015000D01*
X143358809Y-119954523D01*
X143661190Y-119954523D01*
X143782142Y-120015000D01*
X143842619Y-120075476D01*
X143903095Y-120196428D01*
X143903095Y-120317380D01*
X143842619Y-120498809D01*
X143116904Y-121224523D01*
X143903095Y-121224523D01*
X145415000Y-121224523D02*
X145415000Y-119954523D01*
X145898809Y-119954523D01*
X146019761Y-120015000D01*
X146080238Y-120075476D01*
X146140714Y-120196428D01*
X146140714Y-120377857D01*
X146080238Y-120498809D01*
X146019761Y-120559285D01*
X145898809Y-120619761D01*
X145415000Y-120619761D01*
X147289761Y-119954523D02*
X146685000Y-119954523D01*
X146624523Y-120559285D01*
X146685000Y-120498809D01*
X146805952Y-120438333D01*
X147108333Y-120438333D01*
X147229285Y-120498809D01*
X147289761Y-120559285D01*
X147350238Y-120680238D01*
X147350238Y-120982619D01*
X147289761Y-121103571D01*
X147229285Y-121164047D01*
X147108333Y-121224523D01*
X146805952Y-121224523D01*
X146685000Y-121164047D01*
X146624523Y-121103571D01*
D10*
X122852380Y-120641904D02*
X123661904Y-120641904D01*
X123757142Y-120594285D01*
X123804761Y-120546666D01*
X123852380Y-120451428D01*
X123852380Y-120260952D01*
X123804761Y-120165714D01*
X123757142Y-120118095D01*
X123661904Y-120070476D01*
X122852380Y-120070476D01*
X123852380Y-119594285D02*
X122852380Y-119594285D01*
X122852380Y-119356190D01*
X122900000Y-119213333D01*
X122995238Y-119118095D01*
X123090476Y-119070476D01*
X123280952Y-119022857D01*
X123423809Y-119022857D01*
X123614285Y-119070476D01*
X123709523Y-119118095D01*
X123804761Y-119213333D01*
X123852380Y-119356190D01*
X123852380Y-119594285D01*
X122852380Y-118689523D02*
X122852380Y-118070476D01*
X123233333Y-118403809D01*
X123233333Y-118260952D01*
X123280952Y-118165714D01*
X123328571Y-118118095D01*
X123423809Y-118070476D01*
X123661904Y-118070476D01*
X123757142Y-118118095D01*
X123804761Y-118165714D01*
X123852380Y-118260952D01*
X123852380Y-118546666D01*
X123804761Y-118641904D01*
X123757142Y-118689523D01*
%TO.C,C6*%
X203112857Y-128627142D02*
X203160476Y-128674761D01*
X203112857Y-128722380D01*
X203065238Y-128674761D01*
X203112857Y-128627142D01*
X203112857Y-128722380D01*
X204112857Y-128722380D02*
X203541428Y-128722380D01*
X203827142Y-128722380D02*
X203827142Y-127722380D01*
X203731904Y-127865238D01*
X203636666Y-127960476D01*
X203541428Y-128008095D01*
X204970000Y-128055714D02*
X204970000Y-128722380D01*
X204541428Y-128055714D02*
X204541428Y-128579523D01*
X204589047Y-128674761D01*
X204684285Y-128722380D01*
X204827142Y-128722380D01*
X204922380Y-128674761D01*
X204970000Y-128627142D01*
X205779523Y-128198571D02*
X205446190Y-128198571D01*
X205446190Y-128722380D02*
X205446190Y-127722380D01*
X205922380Y-127722380D01*
X204303333Y-130877142D02*
X204255714Y-130924761D01*
X204112857Y-130972380D01*
X204017619Y-130972380D01*
X203874761Y-130924761D01*
X203779523Y-130829523D01*
X203731904Y-130734285D01*
X203684285Y-130543809D01*
X203684285Y-130400952D01*
X203731904Y-130210476D01*
X203779523Y-130115238D01*
X203874761Y-130020000D01*
X204017619Y-129972380D01*
X204112857Y-129972380D01*
X204255714Y-130020000D01*
X204303333Y-130067619D01*
X205160476Y-129972380D02*
X204970000Y-129972380D01*
X204874761Y-130020000D01*
X204827142Y-130067619D01*
X204731904Y-130210476D01*
X204684285Y-130400952D01*
X204684285Y-130781904D01*
X204731904Y-130877142D01*
X204779523Y-130924761D01*
X204874761Y-130972380D01*
X205065238Y-130972380D01*
X205160476Y-130924761D01*
X205208095Y-130877142D01*
X205255714Y-130781904D01*
X205255714Y-130543809D01*
X205208095Y-130448571D01*
X205160476Y-130400952D01*
X205065238Y-130353333D01*
X204874761Y-130353333D01*
X204779523Y-130400952D01*
X204731904Y-130448571D01*
X204684285Y-130543809D01*
%TO.C,Q2*%
X118038571Y-118308095D02*
X118038571Y-117974761D01*
X118562380Y-117831904D02*
X118562380Y-118308095D01*
X117562380Y-118308095D01*
X117562380Y-117831904D01*
X118038571Y-115546190D02*
X118086190Y-115403333D01*
X118133809Y-115355714D01*
X118229047Y-115308095D01*
X118371904Y-115308095D01*
X118467142Y-115355714D01*
X118514761Y-115403333D01*
X118562380Y-115498571D01*
X118562380Y-115879523D01*
X117562380Y-115879523D01*
X117562380Y-115546190D01*
X117610000Y-115450952D01*
X117657619Y-115403333D01*
X117752857Y-115355714D01*
X117848095Y-115355714D01*
X117943333Y-115403333D01*
X117990952Y-115450952D01*
X118038571Y-115546190D01*
X118038571Y-115879523D01*
X118467142Y-112784285D02*
X118514761Y-112831904D01*
X118562380Y-112974761D01*
X118562380Y-113070000D01*
X118514761Y-113212857D01*
X118419523Y-113308095D01*
X118324285Y-113355714D01*
X118133809Y-113403333D01*
X117990952Y-113403333D01*
X117800476Y-113355714D01*
X117705238Y-113308095D01*
X117610000Y-113212857D01*
X117562380Y-113070000D01*
X117562380Y-112974761D01*
X117610000Y-112831904D01*
X117657619Y-112784285D01*
X120554761Y-109767619D02*
X120459523Y-109720000D01*
X120364285Y-109624761D01*
X120221428Y-109481904D01*
X120126190Y-109434285D01*
X120030952Y-109434285D01*
X120078571Y-109672380D02*
X119983333Y-109624761D01*
X119888095Y-109529523D01*
X119840476Y-109339047D01*
X119840476Y-109005714D01*
X119888095Y-108815238D01*
X119983333Y-108720000D01*
X120078571Y-108672380D01*
X120269047Y-108672380D01*
X120364285Y-108720000D01*
X120459523Y-108815238D01*
X120507142Y-109005714D01*
X120507142Y-109339047D01*
X120459523Y-109529523D01*
X120364285Y-109624761D01*
X120269047Y-109672380D01*
X120078571Y-109672380D01*
X120888095Y-108767619D02*
X120935714Y-108720000D01*
X121030952Y-108672380D01*
X121269047Y-108672380D01*
X121364285Y-108720000D01*
X121411904Y-108767619D01*
X121459523Y-108862857D01*
X121459523Y-108958095D01*
X121411904Y-109100952D01*
X120840476Y-109672380D01*
X121459523Y-109672380D01*
%TO.C,Q1*%
X122987619Y-128444285D02*
X122940000Y-128396666D01*
X122892380Y-128301428D01*
X122892380Y-128063333D01*
X122940000Y-127968095D01*
X122987619Y-127920476D01*
X123082857Y-127872857D01*
X123178095Y-127872857D01*
X123320952Y-127920476D01*
X123892380Y-128491904D01*
X123892380Y-127872857D01*
X123892380Y-127444285D02*
X122892380Y-127444285D01*
X123892380Y-126872857D01*
X122892380Y-126872857D01*
X122892380Y-126491904D02*
X122892380Y-125872857D01*
X123273333Y-126206190D01*
X123273333Y-126063333D01*
X123320952Y-125968095D01*
X123368571Y-125920476D01*
X123463809Y-125872857D01*
X123701904Y-125872857D01*
X123797142Y-125920476D01*
X123844761Y-125968095D01*
X123892380Y-126063333D01*
X123892380Y-126349047D01*
X123844761Y-126444285D01*
X123797142Y-126491904D01*
X123892380Y-125396666D02*
X123892380Y-125206190D01*
X123844761Y-125110952D01*
X123797142Y-125063333D01*
X123654285Y-124968095D01*
X123463809Y-124920476D01*
X123082857Y-124920476D01*
X122987619Y-124968095D01*
X122940000Y-125015714D01*
X122892380Y-125110952D01*
X122892380Y-125301428D01*
X122940000Y-125396666D01*
X122987619Y-125444285D01*
X123082857Y-125491904D01*
X123320952Y-125491904D01*
X123416190Y-125444285D01*
X123463809Y-125396666D01*
X123511428Y-125301428D01*
X123511428Y-125110952D01*
X123463809Y-125015714D01*
X123416190Y-124968095D01*
X123320952Y-124920476D01*
X122892380Y-124301428D02*
X122892380Y-124206190D01*
X122940000Y-124110952D01*
X122987619Y-124063333D01*
X123082857Y-124015714D01*
X123273333Y-123968095D01*
X123511428Y-123968095D01*
X123701904Y-124015714D01*
X123797142Y-124063333D01*
X123844761Y-124110952D01*
X123892380Y-124206190D01*
X123892380Y-124301428D01*
X123844761Y-124396666D01*
X123797142Y-124444285D01*
X123701904Y-124491904D01*
X123511428Y-124539523D01*
X123273333Y-124539523D01*
X123082857Y-124491904D01*
X122987619Y-124444285D01*
X122940000Y-124396666D01*
X122892380Y-124301428D01*
X122892380Y-123110952D02*
X122892380Y-123301428D01*
X122940000Y-123396666D01*
X122987619Y-123444285D01*
X123130476Y-123539523D01*
X123320952Y-123587142D01*
X123701904Y-123587142D01*
X123797142Y-123539523D01*
X123844761Y-123491904D01*
X123892380Y-123396666D01*
X123892380Y-123206190D01*
X123844761Y-123110952D01*
X123797142Y-123063333D01*
X123701904Y-123015714D01*
X123463809Y-123015714D01*
X123368571Y-123063333D01*
X123320952Y-123110952D01*
X123273333Y-123206190D01*
X123273333Y-123396666D01*
X123320952Y-123491904D01*
X123368571Y-123539523D01*
X123463809Y-123587142D01*
X117387619Y-125825238D02*
X117340000Y-125920476D01*
X117244761Y-126015714D01*
X117101904Y-126158571D01*
X117054285Y-126253809D01*
X117054285Y-126349047D01*
X117292380Y-126301428D02*
X117244761Y-126396666D01*
X117149523Y-126491904D01*
X116959047Y-126539523D01*
X116625714Y-126539523D01*
X116435238Y-126491904D01*
X116340000Y-126396666D01*
X116292380Y-126301428D01*
X116292380Y-126110952D01*
X116340000Y-126015714D01*
X116435238Y-125920476D01*
X116625714Y-125872857D01*
X116959047Y-125872857D01*
X117149523Y-125920476D01*
X117244761Y-126015714D01*
X117292380Y-126110952D01*
X117292380Y-126301428D01*
X117292380Y-124920476D02*
X117292380Y-125491904D01*
X117292380Y-125206190D02*
X116292380Y-125206190D01*
X116435238Y-125301428D01*
X116530476Y-125396666D01*
X116578095Y-125491904D01*
%TO.C,C7*%
X182792857Y-128627142D02*
X182840476Y-128674761D01*
X182792857Y-128722380D01*
X182745238Y-128674761D01*
X182792857Y-128627142D01*
X182792857Y-128722380D01*
X183792857Y-128722380D02*
X183221428Y-128722380D01*
X183507142Y-128722380D02*
X183507142Y-127722380D01*
X183411904Y-127865238D01*
X183316666Y-127960476D01*
X183221428Y-128008095D01*
X184650000Y-128055714D02*
X184650000Y-128722380D01*
X184221428Y-128055714D02*
X184221428Y-128579523D01*
X184269047Y-128674761D01*
X184364285Y-128722380D01*
X184507142Y-128722380D01*
X184602380Y-128674761D01*
X184650000Y-128627142D01*
X185459523Y-128198571D02*
X185126190Y-128198571D01*
X185126190Y-128722380D02*
X185126190Y-127722380D01*
X185602380Y-127722380D01*
X183983333Y-131167142D02*
X183935714Y-131214761D01*
X183792857Y-131262380D01*
X183697619Y-131262380D01*
X183554761Y-131214761D01*
X183459523Y-131119523D01*
X183411904Y-131024285D01*
X183364285Y-130833809D01*
X183364285Y-130690952D01*
X183411904Y-130500476D01*
X183459523Y-130405238D01*
X183554761Y-130310000D01*
X183697619Y-130262380D01*
X183792857Y-130262380D01*
X183935714Y-130310000D01*
X183983333Y-130357619D01*
X184316666Y-130262380D02*
X184983333Y-130262380D01*
X184554761Y-131262380D01*
%TO.C,R5*%
X168743333Y-93797380D02*
X168410000Y-93321190D01*
X168171904Y-93797380D02*
X168171904Y-92797380D01*
X168552857Y-92797380D01*
X168648095Y-92845000D01*
X168695714Y-92892619D01*
X168743333Y-92987857D01*
X168743333Y-93130714D01*
X168695714Y-93225952D01*
X168648095Y-93273571D01*
X168552857Y-93321190D01*
X168171904Y-93321190D01*
X169648095Y-92797380D02*
X169171904Y-92797380D01*
X169124285Y-93273571D01*
X169171904Y-93225952D01*
X169267142Y-93178333D01*
X169505238Y-93178333D01*
X169600476Y-93225952D01*
X169648095Y-93273571D01*
X169695714Y-93368809D01*
X169695714Y-93606904D01*
X169648095Y-93702142D01*
X169600476Y-93749761D01*
X169505238Y-93797380D01*
X169267142Y-93797380D01*
X169171904Y-93749761D01*
X169124285Y-93702142D01*
X168124285Y-95670714D02*
X168124285Y-96337380D01*
X167886190Y-95289761D02*
X167648095Y-96004047D01*
X168267142Y-96004047D01*
X168695714Y-96337380D02*
X168886190Y-96337380D01*
X168981428Y-96289761D01*
X169029047Y-96242142D01*
X169124285Y-96099285D01*
X169171904Y-95908809D01*
X169171904Y-95527857D01*
X169124285Y-95432619D01*
X169076666Y-95385000D01*
X168981428Y-95337380D01*
X168790952Y-95337380D01*
X168695714Y-95385000D01*
X168648095Y-95432619D01*
X168600476Y-95527857D01*
X168600476Y-95765952D01*
X168648095Y-95861190D01*
X168695714Y-95908809D01*
X168790952Y-95956428D01*
X168981428Y-95956428D01*
X169076666Y-95908809D01*
X169124285Y-95861190D01*
X169171904Y-95765952D01*
X169600476Y-96337380D02*
X169600476Y-95337380D01*
X170171904Y-96337380D02*
X169743333Y-95765952D01*
X170171904Y-95337380D02*
X169600476Y-95908809D01*
D13*
%TO.C,JP6A9*%
X126455714Y-83312000D02*
X126818571Y-83312000D01*
X126383142Y-83529714D02*
X126637142Y-82767714D01*
X126891142Y-83529714D01*
X127181428Y-83529714D02*
X127326571Y-83529714D01*
X127399142Y-83493428D01*
X127435428Y-83457142D01*
X127508000Y-83348285D01*
X127544285Y-83203142D01*
X127544285Y-82912857D01*
X127508000Y-82840285D01*
X127471714Y-82804000D01*
X127399142Y-82767714D01*
X127254000Y-82767714D01*
X127181428Y-82804000D01*
X127145142Y-82840285D01*
X127108857Y-82912857D01*
X127108857Y-83094285D01*
X127145142Y-83166857D01*
X127181428Y-83203142D01*
X127254000Y-83239428D01*
X127399142Y-83239428D01*
X127471714Y-83203142D01*
X127508000Y-83166857D01*
X127544285Y-83094285D01*
X128741714Y-85434714D02*
X128378857Y-85434714D01*
X128378857Y-84672714D01*
X129140857Y-84672714D02*
X129286000Y-84672714D01*
X129358571Y-84709000D01*
X129431142Y-84781571D01*
X129467428Y-84926714D01*
X129467428Y-85180714D01*
X129431142Y-85325857D01*
X129358571Y-85398428D01*
X129286000Y-85434714D01*
X129140857Y-85434714D01*
X129068285Y-85398428D01*
X128995714Y-85325857D01*
X128959428Y-85180714D01*
X128959428Y-84926714D01*
X128995714Y-84781571D01*
X129068285Y-84709000D01*
X129140857Y-84672714D01*
X131045857Y-85434714D02*
X131045857Y-84672714D01*
X131045857Y-85035571D02*
X131481285Y-85035571D01*
X131481285Y-85434714D02*
X131481285Y-84672714D01*
X131844142Y-85434714D02*
X131844142Y-84672714D01*
D15*
%TO.C,J3*%
X182212342Y-94433571D02*
X182212342Y-90623571D01*
X183119485Y-90623571D01*
X183663771Y-90805000D01*
X184026628Y-91167857D01*
X184208057Y-91530714D01*
X184389485Y-92256428D01*
X184389485Y-92800714D01*
X184208057Y-93526428D01*
X184026628Y-93889285D01*
X183663771Y-94252142D01*
X183119485Y-94433571D01*
X182212342Y-94433571D01*
X188199485Y-94433571D02*
X186929485Y-92619285D01*
X186022342Y-94433571D02*
X186022342Y-90623571D01*
X187473771Y-90623571D01*
X187836628Y-90805000D01*
X188018057Y-90986428D01*
X188199485Y-91349285D01*
X188199485Y-91893571D01*
X188018057Y-92256428D01*
X187836628Y-92437857D01*
X187473771Y-92619285D01*
X186022342Y-92619285D01*
X189832342Y-94433571D02*
X189832342Y-90623571D01*
X191102342Y-90623571D02*
X192372342Y-94433571D01*
X193642342Y-90623571D01*
X194912342Y-92437857D02*
X196182342Y-92437857D01*
X196726628Y-94433571D02*
X194912342Y-94433571D01*
X194912342Y-90623571D01*
X196726628Y-90623571D01*
X203258057Y-94433571D02*
X201080914Y-94433571D01*
X202169485Y-94433571D02*
X202169485Y-90623571D01*
X201806628Y-91167857D01*
X201443771Y-91530714D01*
X201080914Y-91712142D01*
D10*
X181062380Y-78438333D02*
X181776666Y-78438333D01*
X181919523Y-78485952D01*
X182014761Y-78581190D01*
X182062380Y-78724047D01*
X182062380Y-78819285D01*
X181062380Y-78057380D02*
X181062380Y-77438333D01*
X181443333Y-77771666D01*
X181443333Y-77628809D01*
X181490952Y-77533571D01*
X181538571Y-77485952D01*
X181633809Y-77438333D01*
X181871904Y-77438333D01*
X181967142Y-77485952D01*
X182014761Y-77533571D01*
X182062380Y-77628809D01*
X182062380Y-77914523D01*
X182014761Y-78009761D01*
X181967142Y-78057380D01*
%TO.C,SWA8*%
X118665714Y-73811666D02*
X119141904Y-73811666D01*
X118570476Y-74097380D02*
X118903809Y-73097380D01*
X119237142Y-74097380D01*
X119713333Y-73525952D02*
X119618095Y-73478333D01*
X119570476Y-73430714D01*
X119522857Y-73335476D01*
X119522857Y-73287857D01*
X119570476Y-73192619D01*
X119618095Y-73145000D01*
X119713333Y-73097380D01*
X119903809Y-73097380D01*
X119999047Y-73145000D01*
X120046666Y-73192619D01*
X120094285Y-73287857D01*
X120094285Y-73335476D01*
X120046666Y-73430714D01*
X119999047Y-73478333D01*
X119903809Y-73525952D01*
X119713333Y-73525952D01*
X119618095Y-73573571D01*
X119570476Y-73621190D01*
X119522857Y-73716428D01*
X119522857Y-73906904D01*
X119570476Y-74002142D01*
X119618095Y-74049761D01*
X119713333Y-74097380D01*
X119903809Y-74097380D01*
X119999047Y-74049761D01*
X120046666Y-74002142D01*
X120094285Y-73906904D01*
X120094285Y-73716428D01*
X120046666Y-73621190D01*
X119999047Y-73573571D01*
X119903809Y-73525952D01*
X122793190Y-76652380D02*
X122793190Y-75652380D01*
X122793190Y-76128571D02*
X123364619Y-76128571D01*
X123364619Y-76652380D02*
X123364619Y-75652380D01*
X123840809Y-76652380D02*
X123840809Y-75652380D01*
X123229714Y-81732380D02*
X122753523Y-81732380D01*
X122753523Y-80732380D01*
X123753523Y-80732380D02*
X123944000Y-80732380D01*
X124039238Y-80780000D01*
X124134476Y-80875238D01*
X124182095Y-81065714D01*
X124182095Y-81399047D01*
X124134476Y-81589523D01*
X124039238Y-81684761D01*
X123944000Y-81732380D01*
X123753523Y-81732380D01*
X123658285Y-81684761D01*
X123563047Y-81589523D01*
X123515428Y-81399047D01*
X123515428Y-81065714D01*
X123563047Y-80875238D01*
X123658285Y-80780000D01*
X123753523Y-80732380D01*
%TO.C,UA2*%
X165795952Y-70572380D02*
X166462619Y-70572380D01*
X166034047Y-71572380D01*
X167272142Y-70905714D02*
X167272142Y-71572380D01*
X167034047Y-70524761D02*
X166795952Y-71239047D01*
X167415000Y-71239047D01*
X168272142Y-71572380D02*
X167795952Y-71572380D01*
X167795952Y-70572380D01*
X168557857Y-71524761D02*
X168700714Y-71572380D01*
X168938809Y-71572380D01*
X169034047Y-71524761D01*
X169081666Y-71477142D01*
X169129285Y-71381904D01*
X169129285Y-71286666D01*
X169081666Y-71191428D01*
X169034047Y-71143809D01*
X168938809Y-71096190D01*
X168748333Y-71048571D01*
X168653095Y-71000952D01*
X168605476Y-70953333D01*
X168557857Y-70858095D01*
X168557857Y-70762857D01*
X168605476Y-70667619D01*
X168653095Y-70620000D01*
X168748333Y-70572380D01*
X168986428Y-70572380D01*
X169129285Y-70620000D01*
X170081666Y-71572380D02*
X169510238Y-71572380D01*
X169795952Y-71572380D02*
X169795952Y-70572380D01*
X169700714Y-70715238D01*
X169605476Y-70810476D01*
X169510238Y-70858095D01*
X170415000Y-70572380D02*
X171034047Y-70572380D01*
X170700714Y-70953333D01*
X170843571Y-70953333D01*
X170938809Y-71000952D01*
X170986428Y-71048571D01*
X171034047Y-71143809D01*
X171034047Y-71381904D01*
X170986428Y-71477142D01*
X170938809Y-71524761D01*
X170843571Y-71572380D01*
X170557857Y-71572380D01*
X170462619Y-71524761D01*
X170415000Y-71477142D01*
X171415000Y-70667619D02*
X171462619Y-70620000D01*
X171557857Y-70572380D01*
X171795952Y-70572380D01*
X171891190Y-70620000D01*
X171938809Y-70667619D01*
X171986428Y-70762857D01*
X171986428Y-70858095D01*
X171938809Y-71000952D01*
X171367380Y-71572380D01*
X171986428Y-71572380D01*
X158417380Y-72310476D02*
X159226904Y-72310476D01*
X159322142Y-72262857D01*
X159369761Y-72215238D01*
X159417380Y-72120000D01*
X159417380Y-71929523D01*
X159369761Y-71834285D01*
X159322142Y-71786666D01*
X159226904Y-71739047D01*
X158417380Y-71739047D01*
X159131666Y-71310476D02*
X159131666Y-70834285D01*
X159417380Y-71405714D02*
X158417380Y-71072380D01*
X159417380Y-70739047D01*
X158512619Y-70453333D02*
X158465000Y-70405714D01*
X158417380Y-70310476D01*
X158417380Y-70072380D01*
X158465000Y-69977142D01*
X158512619Y-69929523D01*
X158607857Y-69881904D01*
X158703095Y-69881904D01*
X158845952Y-69929523D01*
X159417380Y-70500952D01*
X159417380Y-69881904D01*
%TO.C,UC3*%
X139120952Y-103592380D02*
X139787619Y-103592380D01*
X139359047Y-104592380D01*
X140597142Y-103925714D02*
X140597142Y-104592380D01*
X140359047Y-103544761D02*
X140120952Y-104259047D01*
X140740000Y-104259047D01*
X141597142Y-104592380D02*
X141120952Y-104592380D01*
X141120952Y-103592380D01*
X141882857Y-104544761D02*
X142025714Y-104592380D01*
X142263809Y-104592380D01*
X142359047Y-104544761D01*
X142406666Y-104497142D01*
X142454285Y-104401904D01*
X142454285Y-104306666D01*
X142406666Y-104211428D01*
X142359047Y-104163809D01*
X142263809Y-104116190D01*
X142073333Y-104068571D01*
X141978095Y-104020952D01*
X141930476Y-103973333D01*
X141882857Y-103878095D01*
X141882857Y-103782857D01*
X141930476Y-103687619D01*
X141978095Y-103640000D01*
X142073333Y-103592380D01*
X142311428Y-103592380D01*
X142454285Y-103640000D01*
X142787619Y-103592380D02*
X143406666Y-103592380D01*
X143073333Y-103973333D01*
X143216190Y-103973333D01*
X143311428Y-104020952D01*
X143359047Y-104068571D01*
X143406666Y-104163809D01*
X143406666Y-104401904D01*
X143359047Y-104497142D01*
X143311428Y-104544761D01*
X143216190Y-104592380D01*
X142930476Y-104592380D01*
X142835238Y-104544761D01*
X142787619Y-104497142D01*
X143787619Y-103687619D02*
X143835238Y-103640000D01*
X143930476Y-103592380D01*
X144168571Y-103592380D01*
X144263809Y-103640000D01*
X144311428Y-103687619D01*
X144359047Y-103782857D01*
X144359047Y-103878095D01*
X144311428Y-104020952D01*
X143740000Y-104592380D01*
X144359047Y-104592380D01*
X144692380Y-103592380D02*
X145311428Y-103592380D01*
X144978095Y-103973333D01*
X145120952Y-103973333D01*
X145216190Y-104020952D01*
X145263809Y-104068571D01*
X145311428Y-104163809D01*
X145311428Y-104401904D01*
X145263809Y-104497142D01*
X145216190Y-104544761D01*
X145120952Y-104592380D01*
X144835238Y-104592380D01*
X144740000Y-104544761D01*
X144692380Y-104497142D01*
X127722380Y-100956904D02*
X128531904Y-100956904D01*
X128627142Y-100909285D01*
X128674761Y-100861666D01*
X128722380Y-100766428D01*
X128722380Y-100575952D01*
X128674761Y-100480714D01*
X128627142Y-100433095D01*
X128531904Y-100385476D01*
X127722380Y-100385476D01*
X128627142Y-99337857D02*
X128674761Y-99385476D01*
X128722380Y-99528333D01*
X128722380Y-99623571D01*
X128674761Y-99766428D01*
X128579523Y-99861666D01*
X128484285Y-99909285D01*
X128293809Y-99956904D01*
X128150952Y-99956904D01*
X127960476Y-99909285D01*
X127865238Y-99861666D01*
X127770000Y-99766428D01*
X127722380Y-99623571D01*
X127722380Y-99528333D01*
X127770000Y-99385476D01*
X127817619Y-99337857D01*
X127722380Y-99004523D02*
X127722380Y-98385476D01*
X128103333Y-98718809D01*
X128103333Y-98575952D01*
X128150952Y-98480714D01*
X128198571Y-98433095D01*
X128293809Y-98385476D01*
X128531904Y-98385476D01*
X128627142Y-98433095D01*
X128674761Y-98480714D01*
X128722380Y-98575952D01*
X128722380Y-98861666D01*
X128674761Y-98956904D01*
X128627142Y-99004523D01*
D14*
%TO.C,UB3*%
X131414761Y-87055476D02*
X131475238Y-86995000D01*
X131596190Y-86934523D01*
X131898571Y-86934523D01*
X132019523Y-86995000D01*
X132080000Y-87055476D01*
X132140476Y-87176428D01*
X132140476Y-87297380D01*
X132080000Y-87478809D01*
X131354285Y-88204523D01*
X132140476Y-88204523D01*
X132563809Y-86934523D02*
X133410476Y-86934523D01*
X132866190Y-88204523D01*
X134499047Y-86934523D02*
X133894285Y-86934523D01*
X133833809Y-87539285D01*
X133894285Y-87478809D01*
X134015238Y-87418333D01*
X134317619Y-87418333D01*
X134438571Y-87478809D01*
X134499047Y-87539285D01*
X134559523Y-87660238D01*
X134559523Y-87962619D01*
X134499047Y-88083571D01*
X134438571Y-88144047D01*
X134317619Y-88204523D01*
X134015238Y-88204523D01*
X133894285Y-88144047D01*
X133833809Y-88083571D01*
X135285238Y-87478809D02*
X135164285Y-87418333D01*
X135103809Y-87357857D01*
X135043333Y-87236904D01*
X135043333Y-87176428D01*
X135103809Y-87055476D01*
X135164285Y-86995000D01*
X135285238Y-86934523D01*
X135527142Y-86934523D01*
X135648095Y-86995000D01*
X135708571Y-87055476D01*
X135769047Y-87176428D01*
X135769047Y-87236904D01*
X135708571Y-87357857D01*
X135648095Y-87418333D01*
X135527142Y-87478809D01*
X135285238Y-87478809D01*
X135164285Y-87539285D01*
X135103809Y-87599761D01*
X135043333Y-87720714D01*
X135043333Y-87962619D01*
X135103809Y-88083571D01*
X135164285Y-88144047D01*
X135285238Y-88204523D01*
X135527142Y-88204523D01*
X135648095Y-88144047D01*
X135708571Y-88083571D01*
X135769047Y-87962619D01*
X135769047Y-87720714D01*
X135708571Y-87599761D01*
X135648095Y-87539285D01*
X135527142Y-87478809D01*
X137220476Y-86874047D02*
X136131904Y-88506904D01*
X138309047Y-88204523D02*
X137583333Y-88204523D01*
X137946190Y-88204523D02*
X137946190Y-86934523D01*
X137825238Y-87115952D01*
X137704285Y-87236904D01*
X137583333Y-87297380D01*
X139397619Y-86934523D02*
X139155714Y-86934523D01*
X139034761Y-86995000D01*
X138974285Y-87055476D01*
X138853333Y-87236904D01*
X138792857Y-87478809D01*
X138792857Y-87962619D01*
X138853333Y-88083571D01*
X138913809Y-88144047D01*
X139034761Y-88204523D01*
X139276666Y-88204523D01*
X139397619Y-88144047D01*
X139458095Y-88083571D01*
X139518571Y-87962619D01*
X139518571Y-87660238D01*
X139458095Y-87539285D01*
X139397619Y-87478809D01*
X139276666Y-87418333D01*
X139034761Y-87418333D01*
X138913809Y-87478809D01*
X138853333Y-87539285D01*
X138792857Y-87660238D01*
X140970000Y-86874047D02*
X139881428Y-88506904D01*
X141272380Y-86934523D02*
X142058571Y-86934523D01*
X141635238Y-87418333D01*
X141816666Y-87418333D01*
X141937619Y-87478809D01*
X141998095Y-87539285D01*
X142058571Y-87660238D01*
X142058571Y-87962619D01*
X141998095Y-88083571D01*
X141937619Y-88144047D01*
X141816666Y-88204523D01*
X141453809Y-88204523D01*
X141332857Y-88144047D01*
X141272380Y-88083571D01*
X142542380Y-87055476D02*
X142602857Y-86995000D01*
X142723809Y-86934523D01*
X143026190Y-86934523D01*
X143147142Y-86995000D01*
X143207619Y-87055476D01*
X143268095Y-87176428D01*
X143268095Y-87297380D01*
X143207619Y-87478809D01*
X142481904Y-88204523D01*
X143268095Y-88204523D01*
X144780000Y-88204523D02*
X144780000Y-86934523D01*
X145263809Y-86934523D01*
X145384761Y-86995000D01*
X145445238Y-87055476D01*
X145505714Y-87176428D01*
X145505714Y-87357857D01*
X145445238Y-87478809D01*
X145384761Y-87539285D01*
X145263809Y-87599761D01*
X144780000Y-87599761D01*
X146594285Y-86934523D02*
X146352380Y-86934523D01*
X146231428Y-86995000D01*
X146170952Y-87055476D01*
X146050000Y-87236904D01*
X145989523Y-87478809D01*
X145989523Y-87962619D01*
X146050000Y-88083571D01*
X146110476Y-88144047D01*
X146231428Y-88204523D01*
X146473333Y-88204523D01*
X146594285Y-88144047D01*
X146654761Y-88083571D01*
X146715238Y-87962619D01*
X146715238Y-87660238D01*
X146654761Y-87539285D01*
X146594285Y-87478809D01*
X146473333Y-87418333D01*
X146231428Y-87418333D01*
X146110476Y-87478809D01*
X146050000Y-87539285D01*
X145989523Y-87660238D01*
D10*
X122852380Y-88891904D02*
X123661904Y-88891904D01*
X123757142Y-88844285D01*
X123804761Y-88796666D01*
X123852380Y-88701428D01*
X123852380Y-88510952D01*
X123804761Y-88415714D01*
X123757142Y-88368095D01*
X123661904Y-88320476D01*
X122852380Y-88320476D01*
X123328571Y-87510952D02*
X123376190Y-87368095D01*
X123423809Y-87320476D01*
X123519047Y-87272857D01*
X123661904Y-87272857D01*
X123757142Y-87320476D01*
X123804761Y-87368095D01*
X123852380Y-87463333D01*
X123852380Y-87844285D01*
X122852380Y-87844285D01*
X122852380Y-87510952D01*
X122900000Y-87415714D01*
X122947619Y-87368095D01*
X123042857Y-87320476D01*
X123138095Y-87320476D01*
X123233333Y-87368095D01*
X123280952Y-87415714D01*
X123328571Y-87510952D01*
X123328571Y-87844285D01*
X122852380Y-86939523D02*
X122852380Y-86320476D01*
X123233333Y-86653809D01*
X123233333Y-86510952D01*
X123280952Y-86415714D01*
X123328571Y-86368095D01*
X123423809Y-86320476D01*
X123661904Y-86320476D01*
X123757142Y-86368095D01*
X123804761Y-86415714D01*
X123852380Y-86510952D01*
X123852380Y-86796666D01*
X123804761Y-86891904D01*
X123757142Y-86939523D01*
%TO.C,C3*%
X192952857Y-128627142D02*
X193000476Y-128674761D01*
X192952857Y-128722380D01*
X192905238Y-128674761D01*
X192952857Y-128627142D01*
X192952857Y-128722380D01*
X193952857Y-128722380D02*
X193381428Y-128722380D01*
X193667142Y-128722380D02*
X193667142Y-127722380D01*
X193571904Y-127865238D01*
X193476666Y-127960476D01*
X193381428Y-128008095D01*
X194810000Y-128055714D02*
X194810000Y-128722380D01*
X194381428Y-128055714D02*
X194381428Y-128579523D01*
X194429047Y-128674761D01*
X194524285Y-128722380D01*
X194667142Y-128722380D01*
X194762380Y-128674761D01*
X194810000Y-128627142D01*
X195619523Y-128198571D02*
X195286190Y-128198571D01*
X195286190Y-128722380D02*
X195286190Y-127722380D01*
X195762380Y-127722380D01*
X194143333Y-130877142D02*
X194095714Y-130924761D01*
X193952857Y-130972380D01*
X193857619Y-130972380D01*
X193714761Y-130924761D01*
X193619523Y-130829523D01*
X193571904Y-130734285D01*
X193524285Y-130543809D01*
X193524285Y-130400952D01*
X193571904Y-130210476D01*
X193619523Y-130115238D01*
X193714761Y-130020000D01*
X193857619Y-129972380D01*
X193952857Y-129972380D01*
X194095714Y-130020000D01*
X194143333Y-130067619D01*
X194476666Y-129972380D02*
X195095714Y-129972380D01*
X194762380Y-130353333D01*
X194905238Y-130353333D01*
X195000476Y-130400952D01*
X195048095Y-130448571D01*
X195095714Y-130543809D01*
X195095714Y-130781904D01*
X195048095Y-130877142D01*
X195000476Y-130924761D01*
X194905238Y-130972380D01*
X194619523Y-130972380D01*
X194524285Y-130924761D01*
X194476666Y-130877142D01*
%TO.C,R6*%
X123812380Y-104306666D02*
X123336190Y-104640000D01*
X123812380Y-104878095D02*
X122812380Y-104878095D01*
X122812380Y-104497142D01*
X122860000Y-104401904D01*
X122907619Y-104354285D01*
X123002857Y-104306666D01*
X123145714Y-104306666D01*
X123240952Y-104354285D01*
X123288571Y-104401904D01*
X123336190Y-104497142D01*
X123336190Y-104878095D01*
X122812380Y-103449523D02*
X122812380Y-103640000D01*
X122860000Y-103735238D01*
X122907619Y-103782857D01*
X123050476Y-103878095D01*
X123240952Y-103925714D01*
X123621904Y-103925714D01*
X123717142Y-103878095D01*
X123764761Y-103830476D01*
X123812380Y-103735238D01*
X123812380Y-103544761D01*
X123764761Y-103449523D01*
X123717142Y-103401904D01*
X123621904Y-103354285D01*
X123383809Y-103354285D01*
X123288571Y-103401904D01*
X123240952Y-103449523D01*
X123193333Y-103544761D01*
X123193333Y-103735238D01*
X123240952Y-103830476D01*
X123288571Y-103878095D01*
X123383809Y-103925714D01*
X125182380Y-104854285D02*
X125182380Y-105330476D01*
X125658571Y-105378095D01*
X125610952Y-105330476D01*
X125563333Y-105235238D01*
X125563333Y-104997142D01*
X125610952Y-104901904D01*
X125658571Y-104854285D01*
X125753809Y-104806666D01*
X125991904Y-104806666D01*
X126087142Y-104854285D01*
X126134761Y-104901904D01*
X126182380Y-104997142D01*
X126182380Y-105235238D01*
X126134761Y-105330476D01*
X126087142Y-105378095D01*
X125182380Y-103949523D02*
X125182380Y-104140000D01*
X125230000Y-104235238D01*
X125277619Y-104282857D01*
X125420476Y-104378095D01*
X125610952Y-104425714D01*
X125991904Y-104425714D01*
X126087142Y-104378095D01*
X126134761Y-104330476D01*
X126182380Y-104235238D01*
X126182380Y-104044761D01*
X126134761Y-103949523D01*
X126087142Y-103901904D01*
X125991904Y-103854285D01*
X125753809Y-103854285D01*
X125658571Y-103901904D01*
X125610952Y-103949523D01*
X125563333Y-104044761D01*
X125563333Y-104235238D01*
X125610952Y-104330476D01*
X125658571Y-104378095D01*
X125753809Y-104425714D01*
X125182380Y-103235238D02*
X125182380Y-103140000D01*
X125230000Y-103044761D01*
X125277619Y-102997142D01*
X125372857Y-102949523D01*
X125563333Y-102901904D01*
X125801428Y-102901904D01*
X125991904Y-102949523D01*
X126087142Y-102997142D01*
X126134761Y-103044761D01*
X126182380Y-103140000D01*
X126182380Y-103235238D01*
X126134761Y-103330476D01*
X126087142Y-103378095D01*
X125991904Y-103425714D01*
X125801428Y-103473333D01*
X125563333Y-103473333D01*
X125372857Y-103425714D01*
X125277619Y-103378095D01*
X125230000Y-103330476D01*
X125182380Y-103235238D01*
D13*
%TO.C,JP5A9*%
X126455714Y-116332000D02*
X126818571Y-116332000D01*
X126383142Y-116549714D02*
X126637142Y-115787714D01*
X126891142Y-116549714D01*
X127181428Y-116549714D02*
X127326571Y-116549714D01*
X127399142Y-116513428D01*
X127435428Y-116477142D01*
X127508000Y-116368285D01*
X127544285Y-116223142D01*
X127544285Y-115932857D01*
X127508000Y-115860285D01*
X127471714Y-115824000D01*
X127399142Y-115787714D01*
X127254000Y-115787714D01*
X127181428Y-115824000D01*
X127145142Y-115860285D01*
X127108857Y-115932857D01*
X127108857Y-116114285D01*
X127145142Y-116186857D01*
X127181428Y-116223142D01*
X127254000Y-116259428D01*
X127399142Y-116259428D01*
X127471714Y-116223142D01*
X127508000Y-116186857D01*
X127544285Y-116114285D01*
X128741714Y-118454714D02*
X128378857Y-118454714D01*
X128378857Y-117692714D01*
X129140857Y-117692714D02*
X129286000Y-117692714D01*
X129358571Y-117729000D01*
X129431142Y-117801571D01*
X129467428Y-117946714D01*
X129467428Y-118200714D01*
X129431142Y-118345857D01*
X129358571Y-118418428D01*
X129286000Y-118454714D01*
X129140857Y-118454714D01*
X129068285Y-118418428D01*
X128995714Y-118345857D01*
X128959428Y-118200714D01*
X128959428Y-117946714D01*
X128995714Y-117801571D01*
X129068285Y-117729000D01*
X129140857Y-117692714D01*
X131045857Y-118454714D02*
X131045857Y-117692714D01*
X131045857Y-118055571D02*
X131481285Y-118055571D01*
X131481285Y-118454714D02*
X131481285Y-117692714D01*
X131844142Y-118454714D02*
X131844142Y-117692714D01*
D10*
%TO.C,Q3*%
X118038571Y-92908095D02*
X118038571Y-92574761D01*
X118562380Y-92431904D02*
X118562380Y-92908095D01*
X117562380Y-92908095D01*
X117562380Y-92431904D01*
X118038571Y-90146190D02*
X118086190Y-90003333D01*
X118133809Y-89955714D01*
X118229047Y-89908095D01*
X118371904Y-89908095D01*
X118467142Y-89955714D01*
X118514761Y-90003333D01*
X118562380Y-90098571D01*
X118562380Y-90479523D01*
X117562380Y-90479523D01*
X117562380Y-90146190D01*
X117610000Y-90050952D01*
X117657619Y-90003333D01*
X117752857Y-89955714D01*
X117848095Y-89955714D01*
X117943333Y-90003333D01*
X117990952Y-90050952D01*
X118038571Y-90146190D01*
X118038571Y-90479523D01*
X118467142Y-87384285D02*
X118514761Y-87431904D01*
X118562380Y-87574761D01*
X118562380Y-87670000D01*
X118514761Y-87812857D01*
X118419523Y-87908095D01*
X118324285Y-87955714D01*
X118133809Y-88003333D01*
X117990952Y-88003333D01*
X117800476Y-87955714D01*
X117705238Y-87908095D01*
X117610000Y-87812857D01*
X117562380Y-87670000D01*
X117562380Y-87574761D01*
X117610000Y-87431904D01*
X117657619Y-87384285D01*
X120554761Y-84367619D02*
X120459523Y-84320000D01*
X120364285Y-84224761D01*
X120221428Y-84081904D01*
X120126190Y-84034285D01*
X120030952Y-84034285D01*
X120078571Y-84272380D02*
X119983333Y-84224761D01*
X119888095Y-84129523D01*
X119840476Y-83939047D01*
X119840476Y-83605714D01*
X119888095Y-83415238D01*
X119983333Y-83320000D01*
X120078571Y-83272380D01*
X120269047Y-83272380D01*
X120364285Y-83320000D01*
X120459523Y-83415238D01*
X120507142Y-83605714D01*
X120507142Y-83939047D01*
X120459523Y-84129523D01*
X120364285Y-84224761D01*
X120269047Y-84272380D01*
X120078571Y-84272380D01*
X120840476Y-83272380D02*
X121459523Y-83272380D01*
X121126190Y-83653333D01*
X121269047Y-83653333D01*
X121364285Y-83700952D01*
X121411904Y-83748571D01*
X121459523Y-83843809D01*
X121459523Y-84081904D01*
X121411904Y-84177142D01*
X121364285Y-84224761D01*
X121269047Y-84272380D01*
X120983333Y-84272380D01*
X120888095Y-84224761D01*
X120840476Y-84177142D01*
%TO.C,C5*%
X121007142Y-104227142D02*
X121054761Y-104179523D01*
X121102380Y-104227142D01*
X121054761Y-104274761D01*
X121007142Y-104227142D01*
X121102380Y-104227142D01*
X121102380Y-103227142D02*
X121102380Y-103798571D01*
X121102380Y-103512857D02*
X120102380Y-103512857D01*
X120245238Y-103608095D01*
X120340476Y-103703333D01*
X120388095Y-103798571D01*
X120435714Y-102370000D02*
X121102380Y-102370000D01*
X120435714Y-102798571D02*
X120959523Y-102798571D01*
X121054761Y-102750952D01*
X121102380Y-102655714D01*
X121102380Y-102512857D01*
X121054761Y-102417619D01*
X121007142Y-102370000D01*
X120578571Y-101560476D02*
X120578571Y-101893809D01*
X121102380Y-101893809D02*
X120102380Y-101893809D01*
X120102380Y-101417619D01*
X119105287Y-103198187D02*
X119152906Y-103245806D01*
X119200525Y-103388663D01*
X119200525Y-103483901D01*
X119152906Y-103626759D01*
X119057668Y-103721997D01*
X118962430Y-103769616D01*
X118771954Y-103817235D01*
X118629097Y-103817235D01*
X118438621Y-103769616D01*
X118343383Y-103721997D01*
X118248145Y-103626759D01*
X118200525Y-103483901D01*
X118200525Y-103388663D01*
X118248145Y-103245806D01*
X118295764Y-103198187D01*
X118200525Y-102293425D02*
X118200525Y-102769616D01*
X118676716Y-102817235D01*
X118629097Y-102769616D01*
X118581478Y-102674378D01*
X118581478Y-102436282D01*
X118629097Y-102341044D01*
X118676716Y-102293425D01*
X118771954Y-102245806D01*
X119010049Y-102245806D01*
X119105287Y-102293425D01*
X119152906Y-102341044D01*
X119200525Y-102436282D01*
X119200525Y-102674378D01*
X119152906Y-102769616D01*
X119105287Y-102817235D01*
%TO.C,UA3*%
X141645952Y-70572380D02*
X142312619Y-70572380D01*
X141884047Y-71572380D01*
X143122142Y-70905714D02*
X143122142Y-71572380D01*
X142884047Y-70524761D02*
X142645952Y-71239047D01*
X143265000Y-71239047D01*
X144122142Y-71572380D02*
X143645952Y-71572380D01*
X143645952Y-70572380D01*
X144407857Y-71524761D02*
X144550714Y-71572380D01*
X144788809Y-71572380D01*
X144884047Y-71524761D01*
X144931666Y-71477142D01*
X144979285Y-71381904D01*
X144979285Y-71286666D01*
X144931666Y-71191428D01*
X144884047Y-71143809D01*
X144788809Y-71096190D01*
X144598333Y-71048571D01*
X144503095Y-71000952D01*
X144455476Y-70953333D01*
X144407857Y-70858095D01*
X144407857Y-70762857D01*
X144455476Y-70667619D01*
X144503095Y-70620000D01*
X144598333Y-70572380D01*
X144836428Y-70572380D01*
X144979285Y-70620000D01*
X145931666Y-71572380D02*
X145360238Y-71572380D01*
X145645952Y-71572380D02*
X145645952Y-70572380D01*
X145550714Y-70715238D01*
X145455476Y-70810476D01*
X145360238Y-70858095D01*
X146265000Y-70572380D02*
X146931666Y-70572380D01*
X146503095Y-71572380D01*
X147741190Y-70905714D02*
X147741190Y-71572380D01*
X147503095Y-70524761D02*
X147265000Y-71239047D01*
X147884047Y-71239047D01*
X132802380Y-72310476D02*
X133611904Y-72310476D01*
X133707142Y-72262857D01*
X133754761Y-72215238D01*
X133802380Y-72120000D01*
X133802380Y-71929523D01*
X133754761Y-71834285D01*
X133707142Y-71786666D01*
X133611904Y-71739047D01*
X132802380Y-71739047D01*
X133516666Y-71310476D02*
X133516666Y-70834285D01*
X133802380Y-71405714D02*
X132802380Y-71072380D01*
X133802380Y-70739047D01*
X132802380Y-70500952D02*
X132802380Y-69881904D01*
X133183333Y-70215238D01*
X133183333Y-70072380D01*
X133230952Y-69977142D01*
X133278571Y-69929523D01*
X133373809Y-69881904D01*
X133611904Y-69881904D01*
X133707142Y-69929523D01*
X133754761Y-69977142D01*
X133802380Y-70072380D01*
X133802380Y-70358095D01*
X133754761Y-70453333D01*
X133707142Y-70500952D01*
%TO.C,C2*%
X127182619Y-74032857D02*
X127135000Y-73985238D01*
X127087380Y-73890000D01*
X127087380Y-73651904D01*
X127135000Y-73556666D01*
X127182619Y-73509047D01*
X127277857Y-73461428D01*
X127373095Y-73461428D01*
X127515952Y-73509047D01*
X128087380Y-74080476D01*
X128087380Y-73461428D01*
X127182619Y-73080476D02*
X127135000Y-73032857D01*
X127087380Y-72937619D01*
X127087380Y-72699523D01*
X127135000Y-72604285D01*
X127182619Y-72556666D01*
X127277857Y-72509047D01*
X127373095Y-72509047D01*
X127515952Y-72556666D01*
X128087380Y-73128095D01*
X128087380Y-72509047D01*
X127420714Y-71651904D02*
X128087380Y-71651904D01*
X127420714Y-72080476D02*
X127944523Y-72080476D01*
X128039761Y-72032857D01*
X128087380Y-71937619D01*
X128087380Y-71794761D01*
X128039761Y-71699523D01*
X127992142Y-71651904D01*
X127563571Y-70842380D02*
X127563571Y-71175714D01*
X128087380Y-71175714D02*
X127087380Y-71175714D01*
X127087380Y-70699523D01*
X123547142Y-72556666D02*
X123594761Y-72604285D01*
X123642380Y-72747142D01*
X123642380Y-72842380D01*
X123594761Y-72985238D01*
X123499523Y-73080476D01*
X123404285Y-73128095D01*
X123213809Y-73175714D01*
X123070952Y-73175714D01*
X122880476Y-73128095D01*
X122785238Y-73080476D01*
X122690000Y-72985238D01*
X122642380Y-72842380D01*
X122642380Y-72747142D01*
X122690000Y-72604285D01*
X122737619Y-72556666D01*
X122737619Y-72175714D02*
X122690000Y-72128095D01*
X122642380Y-72032857D01*
X122642380Y-71794761D01*
X122690000Y-71699523D01*
X122737619Y-71651904D01*
X122832857Y-71604285D01*
X122928095Y-71604285D01*
X123070952Y-71651904D01*
X123642380Y-72223333D01*
X123642380Y-71604285D01*
D13*
%TO.C,JP6A10*%
X137522857Y-83312000D02*
X137885714Y-83312000D01*
X137450285Y-83529714D02*
X137704285Y-82767714D01*
X137958285Y-83529714D01*
X138611428Y-83529714D02*
X138176000Y-83529714D01*
X138393714Y-83529714D02*
X138393714Y-82767714D01*
X138321142Y-82876571D01*
X138248571Y-82949142D01*
X138176000Y-82985428D01*
X139083142Y-82767714D02*
X139155714Y-82767714D01*
X139228285Y-82804000D01*
X139264571Y-82840285D01*
X139300857Y-82912857D01*
X139337142Y-83058000D01*
X139337142Y-83239428D01*
X139300857Y-83384571D01*
X139264571Y-83457142D01*
X139228285Y-83493428D01*
X139155714Y-83529714D01*
X139083142Y-83529714D01*
X139010571Y-83493428D01*
X138974285Y-83457142D01*
X138938000Y-83384571D01*
X138901714Y-83239428D01*
X138901714Y-83058000D01*
X138938000Y-82912857D01*
X138974285Y-82840285D01*
X139010571Y-82804000D01*
X139083142Y-82767714D01*
X133585857Y-85434714D02*
X133585857Y-84672714D01*
X133585857Y-85035571D02*
X134021285Y-85035571D01*
X134021285Y-85434714D02*
X134021285Y-84672714D01*
X134384142Y-85434714D02*
X134384142Y-84672714D01*
X136361714Y-85434714D02*
X135998857Y-85434714D01*
X135998857Y-84672714D01*
X136760857Y-84672714D02*
X136906000Y-84672714D01*
X136978571Y-84709000D01*
X137051142Y-84781571D01*
X137087428Y-84926714D01*
X137087428Y-85180714D01*
X137051142Y-85325857D01*
X136978571Y-85398428D01*
X136906000Y-85434714D01*
X136760857Y-85434714D01*
X136688285Y-85398428D01*
X136615714Y-85325857D01*
X136579428Y-85180714D01*
X136579428Y-84926714D01*
X136615714Y-84781571D01*
X136688285Y-84709000D01*
X136760857Y-84672714D01*
D15*
%TO.C,J2*%
X182212342Y-106498571D02*
X182212342Y-102688571D01*
X183119485Y-102688571D01*
X183663771Y-102870000D01*
X184026628Y-103232857D01*
X184208057Y-103595714D01*
X184389485Y-104321428D01*
X184389485Y-104865714D01*
X184208057Y-105591428D01*
X184026628Y-105954285D01*
X183663771Y-106317142D01*
X183119485Y-106498571D01*
X182212342Y-106498571D01*
X188199485Y-106498571D02*
X186929485Y-104684285D01*
X186022342Y-106498571D02*
X186022342Y-102688571D01*
X187473771Y-102688571D01*
X187836628Y-102870000D01*
X188018057Y-103051428D01*
X188199485Y-103414285D01*
X188199485Y-103958571D01*
X188018057Y-104321428D01*
X187836628Y-104502857D01*
X187473771Y-104684285D01*
X186022342Y-104684285D01*
X189832342Y-106498571D02*
X189832342Y-102688571D01*
X191102342Y-102688571D02*
X192372342Y-106498571D01*
X193642342Y-102688571D01*
X194912342Y-104502857D02*
X196182342Y-104502857D01*
X196726628Y-106498571D02*
X194912342Y-106498571D01*
X194912342Y-102688571D01*
X196726628Y-102688571D01*
X201080914Y-103051428D02*
X201262342Y-102870000D01*
X201625200Y-102688571D01*
X202532342Y-102688571D01*
X202895200Y-102870000D01*
X203076628Y-103051428D01*
X203258057Y-103414285D01*
X203258057Y-103777142D01*
X203076628Y-104321428D01*
X200899485Y-106498571D01*
X203258057Y-106498571D01*
D10*
X181062380Y-119078333D02*
X181776666Y-119078333D01*
X181919523Y-119125952D01*
X182014761Y-119221190D01*
X182062380Y-119364047D01*
X182062380Y-119459285D01*
X181157619Y-118649761D02*
X181110000Y-118602142D01*
X181062380Y-118506904D01*
X181062380Y-118268809D01*
X181110000Y-118173571D01*
X181157619Y-118125952D01*
X181252857Y-118078333D01*
X181348095Y-118078333D01*
X181490952Y-118125952D01*
X182062380Y-118697380D01*
X182062380Y-118078333D01*
%TO.C,UB2*%
X166272142Y-87082380D02*
X166938809Y-87082380D01*
X166510238Y-88082380D01*
X167748333Y-87415714D02*
X167748333Y-88082380D01*
X167510238Y-87034761D02*
X167272142Y-87749047D01*
X167891190Y-87749047D01*
X168748333Y-88082380D02*
X168272142Y-88082380D01*
X168272142Y-87082380D01*
X169034047Y-88034761D02*
X169176904Y-88082380D01*
X169415000Y-88082380D01*
X169510238Y-88034761D01*
X169557857Y-87987142D01*
X169605476Y-87891904D01*
X169605476Y-87796666D01*
X169557857Y-87701428D01*
X169510238Y-87653809D01*
X169415000Y-87606190D01*
X169224523Y-87558571D01*
X169129285Y-87510952D01*
X169081666Y-87463333D01*
X169034047Y-87368095D01*
X169034047Y-87272857D01*
X169081666Y-87177619D01*
X169129285Y-87130000D01*
X169224523Y-87082380D01*
X169462619Y-87082380D01*
X169605476Y-87130000D01*
X170224523Y-87082380D02*
X170319761Y-87082380D01*
X170415000Y-87130000D01*
X170462619Y-87177619D01*
X170510238Y-87272857D01*
X170557857Y-87463333D01*
X170557857Y-87701428D01*
X170510238Y-87891904D01*
X170462619Y-87987142D01*
X170415000Y-88034761D01*
X170319761Y-88082380D01*
X170224523Y-88082380D01*
X170129285Y-88034761D01*
X170081666Y-87987142D01*
X170034047Y-87891904D01*
X169986428Y-87701428D01*
X169986428Y-87463333D01*
X170034047Y-87272857D01*
X170081666Y-87177619D01*
X170129285Y-87130000D01*
X170224523Y-87082380D01*
X171462619Y-87082380D02*
X170986428Y-87082380D01*
X170938809Y-87558571D01*
X170986428Y-87510952D01*
X171081666Y-87463333D01*
X171319761Y-87463333D01*
X171415000Y-87510952D01*
X171462619Y-87558571D01*
X171510238Y-87653809D01*
X171510238Y-87891904D01*
X171462619Y-87987142D01*
X171415000Y-88034761D01*
X171319761Y-88082380D01*
X171081666Y-88082380D01*
X170986428Y-88034761D01*
X170938809Y-87987142D01*
X158417380Y-88891904D02*
X159226904Y-88891904D01*
X159322142Y-88844285D01*
X159369761Y-88796666D01*
X159417380Y-88701428D01*
X159417380Y-88510952D01*
X159369761Y-88415714D01*
X159322142Y-88368095D01*
X159226904Y-88320476D01*
X158417380Y-88320476D01*
X158893571Y-87510952D02*
X158941190Y-87368095D01*
X158988809Y-87320476D01*
X159084047Y-87272857D01*
X159226904Y-87272857D01*
X159322142Y-87320476D01*
X159369761Y-87368095D01*
X159417380Y-87463333D01*
X159417380Y-87844285D01*
X158417380Y-87844285D01*
X158417380Y-87510952D01*
X158465000Y-87415714D01*
X158512619Y-87368095D01*
X158607857Y-87320476D01*
X158703095Y-87320476D01*
X158798333Y-87368095D01*
X158845952Y-87415714D01*
X158893571Y-87510952D01*
X158893571Y-87844285D01*
X158512619Y-86891904D02*
X158465000Y-86844285D01*
X158417380Y-86749047D01*
X158417380Y-86510952D01*
X158465000Y-86415714D01*
X158512619Y-86368095D01*
X158607857Y-86320476D01*
X158703095Y-86320476D01*
X158845952Y-86368095D01*
X159417380Y-86939523D01*
X159417380Y-86320476D01*
%TO.C,R7*%
X113017380Y-90336666D02*
X112541190Y-90670000D01*
X113017380Y-90908095D02*
X112017380Y-90908095D01*
X112017380Y-90527142D01*
X112065000Y-90431904D01*
X112112619Y-90384285D01*
X112207857Y-90336666D01*
X112350714Y-90336666D01*
X112445952Y-90384285D01*
X112493571Y-90431904D01*
X112541190Y-90527142D01*
X112541190Y-90908095D01*
X112017380Y-90003333D02*
X112017380Y-89336666D01*
X113017380Y-89765238D01*
X114387380Y-91003333D02*
X114387380Y-90384285D01*
X114768333Y-90717619D01*
X114768333Y-90574761D01*
X114815952Y-90479523D01*
X114863571Y-90431904D01*
X114958809Y-90384285D01*
X115196904Y-90384285D01*
X115292142Y-90431904D01*
X115339761Y-90479523D01*
X115387380Y-90574761D01*
X115387380Y-90860476D01*
X115339761Y-90955714D01*
X115292142Y-91003333D01*
X115387380Y-89955714D02*
X114387380Y-89955714D01*
X115387380Y-89384285D02*
X114815952Y-89812857D01*
X114387380Y-89384285D02*
X114958809Y-89955714D01*
D16*
%TO.C,R2*%
X114935000Y-98830000D02*
X114935000Y-99600000D01*
X116305000Y-106140000D02*
X116305000Y-99600000D01*
X113565000Y-106140000D02*
X116305000Y-106140000D01*
X116305000Y-99600000D02*
X113565000Y-99600000D01*
X114935000Y-106910000D02*
X114935000Y-106140000D01*
X113565000Y-99600000D02*
X113565000Y-106140000D01*
%TO.C,R3*%
X172950000Y-79375000D02*
X172180000Y-79375000D01*
X172180000Y-80518000D02*
X172180000Y-78232000D01*
X165640000Y-80518000D02*
X172180000Y-80518000D01*
X172180000Y-78232000D02*
X165640000Y-78232000D01*
X165640000Y-78232000D02*
X165640000Y-80518000D01*
X164870000Y-79375000D02*
X165640000Y-79375000D01*
%TO.C,C1*%
X165290000Y-131295000D02*
X172530000Y-131295000D01*
X165290000Y-129055000D02*
X172530000Y-129055000D01*
X172530000Y-129055000D02*
X172530000Y-131295000D01*
X165290000Y-129055000D02*
X165290000Y-131295000D01*
%TO.C,R4*%
X172950000Y-112395000D02*
X172180000Y-112395000D01*
X172180000Y-113765000D02*
X172180000Y-111025000D01*
X172180000Y-111025000D02*
X165640000Y-111025000D01*
X165640000Y-113765000D02*
X172180000Y-113765000D01*
X165640000Y-111025000D02*
X165640000Y-113765000D01*
X164870000Y-112395000D02*
X165640000Y-112395000D01*
%TO.C,R1*%
X116305000Y-118840000D02*
X116305000Y-112300000D01*
X114935000Y-111530000D02*
X114935000Y-112300000D01*
X114935000Y-119610000D02*
X114935000Y-118840000D01*
X116305000Y-112300000D02*
X113565000Y-112300000D01*
X113565000Y-118840000D02*
X116305000Y-118840000D01*
X113565000Y-112300000D02*
X113565000Y-118840000D01*
%TO.C,C4*%
X113815000Y-129350000D02*
X116055000Y-129350000D01*
X113815000Y-122110000D02*
X116055000Y-122110000D01*
X113815000Y-129350000D02*
X113815000Y-122110000D01*
X116055000Y-129350000D02*
X116055000Y-122110000D01*
%TO.C,JP5A10*%
X137305000Y-115905000D02*
X137305000Y-116505000D01*
X136655000Y-117205000D02*
X133855000Y-117205000D01*
X133855000Y-115205000D02*
X136655000Y-115205000D01*
X133205000Y-116505000D02*
X133205000Y-115905000D01*
X137305000Y-115905000D02*
G75*
G03*
X136605000Y-115205000I-699999J1D01*
G01*
X133905000Y-115205000D02*
G75*
G03*
X133205000Y-115905000I0J-700000D01*
G01*
X133205000Y-116505000D02*
G75*
G03*
X133905000Y-117205000I700000J0D01*
G01*
X136605000Y-117205000D02*
G75*
G03*
X137305000Y-116505000I1J699999D01*
G01*
%TO.C,UC2*%
X179130000Y-106790000D02*
X179130000Y-101490000D01*
X158690000Y-101490000D02*
X158690000Y-103140000D01*
X158690000Y-105140000D02*
X158690000Y-106790000D01*
X158690000Y-106790000D02*
X179130000Y-106790000D01*
X179130000Y-101490000D02*
X158690000Y-101490000D01*
X158690000Y-105140000D02*
G75*
G03*
X158690000Y-103140000I0J1000000D01*
G01*
%TO.C,UD2*%
X177860000Y-118000000D02*
X159960000Y-118000000D01*
X159960000Y-121650000D02*
X159960000Y-123300000D01*
X177860000Y-123300000D02*
X177860000Y-118000000D01*
X159960000Y-123300000D02*
X177860000Y-123300000D01*
X159960000Y-118000000D02*
X159960000Y-119650000D01*
X159960000Y-121650000D02*
G75*
G03*
X159960000Y-119650000I0J1000000D01*
G01*
%TO.C,UD3*%
X155005000Y-114190000D02*
X124405000Y-114190000D01*
X155005000Y-127110000D02*
X155005000Y-114190000D01*
X124405000Y-121650000D02*
X124405000Y-127110000D01*
X124405000Y-127110000D02*
X155005000Y-127110000D01*
X124405000Y-114190000D02*
X124405000Y-119650000D01*
X124405000Y-121650000D02*
G75*
G03*
X124405000Y-119650000I0J1000000D01*
G01*
%TO.C,C6*%
X208090000Y-129390000D02*
X200850000Y-129390000D01*
X208090000Y-129390000D02*
X208090000Y-127150000D01*
X208090000Y-127150000D02*
X200850000Y-127150000D01*
X200850000Y-129390000D02*
X200850000Y-127150000D01*
%TO.C,Q2*%
X117380000Y-113719000D02*
X118890000Y-113719000D01*
X118890000Y-120690000D02*
X118890000Y-110450000D01*
X117380000Y-120690000D02*
X122021000Y-120690000D01*
X117380000Y-117420000D02*
X118890000Y-117420000D01*
X122021000Y-120690000D02*
X122021000Y-110450000D01*
X117380000Y-120690000D02*
X117380000Y-110450000D01*
X117380000Y-110450000D02*
X122021000Y-110450000D01*
%TO.C,Q1*%
X122500000Y-127530000D02*
X122500000Y-123930000D01*
X119551193Y-123373600D02*
G75*
G03*
X118050000Y-125730000I1098807J-2356400D01*
G01*
X122500000Y-123930000D02*
G75*
G03*
X121772795Y-123405816I-1850000J-1800000D01*
G01*
X118050000Y-125730000D02*
G75*
G03*
X119551193Y-128086400I2600000J0D01*
G01*
X121772795Y-128054184D02*
G75*
G03*
X122500000Y-127530000I-1122795J2324184D01*
G01*
%TO.C,C7*%
X180530000Y-129390000D02*
X187770000Y-129390000D01*
X180530000Y-127150000D02*
X180530000Y-129390000D01*
X187770000Y-127150000D02*
X187770000Y-129390000D01*
X180530000Y-127150000D02*
X187770000Y-127150000D01*
%TO.C,R5*%
X172950000Y-95885000D02*
X172180000Y-95885000D01*
X164870000Y-95885000D02*
X165640000Y-95885000D01*
X172180000Y-97255000D02*
X172180000Y-94515000D01*
X165640000Y-97255000D02*
X172180000Y-97255000D01*
X172180000Y-94515000D02*
X165640000Y-94515000D01*
X165640000Y-94515000D02*
X165640000Y-97255000D01*
%TO.C,JP6A9*%
X128775000Y-82185000D02*
X131575000Y-82185000D01*
X128125000Y-83485000D02*
X128125000Y-82885000D01*
X131575000Y-84185000D02*
X128775000Y-84185000D01*
X132225000Y-82885000D02*
X132225000Y-83485000D01*
X131525000Y-84185000D02*
G75*
G03*
X132225000Y-83485000I0J700000D01*
G01*
X132225000Y-82885000D02*
G75*
G03*
X131525000Y-82185000I-700000J0D01*
G01*
X128125000Y-83485000D02*
G75*
G03*
X128825000Y-84185000I699999J-1D01*
G01*
X128825000Y-82185000D02*
G75*
G03*
X128125000Y-82885000I-1J-699999D01*
G01*
%TO.C,J3*%
X193930000Y-80237071D02*
X193930000Y-79840000D01*
X182820000Y-77180000D02*
X182820000Y-79840000D01*
X191390000Y-82777071D02*
X191390000Y-82322929D01*
X192150000Y-80237071D02*
X192150000Y-79840000D01*
X207390000Y-71180000D02*
X207390000Y-77180000D01*
X183770000Y-80237071D02*
X183770000Y-79840000D01*
X204850000Y-82777071D02*
X204850000Y-82322929D01*
X184530000Y-71180000D02*
X184530000Y-77180000D01*
X187070000Y-80237071D02*
X187070000Y-79840000D01*
X201550000Y-77180000D02*
X201550000Y-71180000D01*
X204850000Y-71180000D02*
X204850000Y-77180000D01*
X186310000Y-80237071D02*
X186310000Y-79840000D01*
X201550000Y-71180000D02*
X202310000Y-71180000D01*
X183830000Y-77180000D02*
X183830000Y-71180000D01*
X201550000Y-82777071D02*
X201550000Y-82322929D01*
X182880000Y-85090000D02*
X182880000Y-83820000D01*
X206630000Y-77180000D02*
X206630000Y-71180000D01*
X199770000Y-80237071D02*
X199770000Y-79840000D01*
X198120000Y-79840000D02*
X198120000Y-77180000D01*
X184070000Y-77180000D02*
X184070000Y-71180000D01*
X200660000Y-79840000D02*
X200660000Y-77180000D01*
X205740000Y-79840000D02*
X205740000Y-77180000D01*
X194690000Y-71180000D02*
X194690000Y-77180000D01*
X183770000Y-71180000D02*
X184530000Y-71180000D01*
X194690000Y-80237071D02*
X194690000Y-79840000D01*
X187070000Y-82777071D02*
X187070000Y-82322929D01*
X202310000Y-71180000D02*
X202310000Y-77180000D01*
X201550000Y-80237071D02*
X201550000Y-79840000D01*
X196470000Y-77180000D02*
X196470000Y-71180000D01*
X197230000Y-82777071D02*
X197230000Y-82322929D01*
X188850000Y-71180000D02*
X189610000Y-71180000D01*
X187960000Y-79840000D02*
X187960000Y-77180000D01*
X199010000Y-80237071D02*
X199010000Y-79840000D01*
X193930000Y-82777071D02*
X193930000Y-82322929D01*
X192150000Y-71180000D02*
X192150000Y-77180000D01*
X184530000Y-80237071D02*
X184530000Y-79840000D01*
X194690000Y-82777071D02*
X194690000Y-82322929D01*
X191390000Y-80237071D02*
X191390000Y-79840000D01*
X189610000Y-82777071D02*
X189610000Y-82322929D01*
X191390000Y-77180000D02*
X191390000Y-71180000D01*
X207390000Y-82777071D02*
X207390000Y-82322929D01*
X207390000Y-80237071D02*
X207390000Y-79840000D01*
X197230000Y-71180000D02*
X197230000Y-77180000D01*
X192150000Y-82777071D02*
X192150000Y-82322929D01*
X199010000Y-71180000D02*
X199770000Y-71180000D01*
X182820000Y-79840000D02*
X208340000Y-79840000D01*
X202310000Y-82777071D02*
X202310000Y-82322929D01*
X191390000Y-71180000D02*
X192150000Y-71180000D01*
X206630000Y-71180000D02*
X207390000Y-71180000D01*
X183770000Y-77180000D02*
X183770000Y-71180000D01*
X199770000Y-82777071D02*
X199770000Y-82322929D01*
X193930000Y-71180000D02*
X194690000Y-71180000D01*
X208340000Y-79840000D02*
X208340000Y-77180000D01*
X199770000Y-71180000D02*
X199770000Y-77180000D01*
X184310000Y-77180000D02*
X184310000Y-71180000D01*
X190500000Y-79840000D02*
X190500000Y-77180000D01*
X203200000Y-79840000D02*
X203200000Y-77180000D01*
X183950000Y-77180000D02*
X183950000Y-71180000D01*
X193040000Y-79840000D02*
X193040000Y-77180000D01*
X208340000Y-77180000D02*
X182820000Y-77180000D01*
X183770000Y-82710000D02*
X183770000Y-82322929D01*
X204090000Y-71180000D02*
X204850000Y-71180000D01*
X186310000Y-82777071D02*
X186310000Y-82322929D01*
X196470000Y-82777071D02*
X196470000Y-82322929D01*
X195580000Y-79840000D02*
X195580000Y-77180000D01*
X188850000Y-82777071D02*
X188850000Y-82322929D01*
X204090000Y-82777071D02*
X204090000Y-82322929D01*
X199010000Y-77180000D02*
X199010000Y-71180000D01*
X186310000Y-77180000D02*
X186310000Y-71180000D01*
X184430000Y-77180000D02*
X184430000Y-71180000D01*
X206630000Y-80237071D02*
X206630000Y-79840000D01*
X206630000Y-82777071D02*
X206630000Y-82322929D01*
X184150000Y-85090000D02*
X182880000Y-85090000D01*
X197230000Y-80237071D02*
X197230000Y-79840000D01*
X204090000Y-80237071D02*
X204090000Y-79840000D01*
X189610000Y-71180000D02*
X189610000Y-77180000D01*
X189610000Y-80237071D02*
X189610000Y-79840000D01*
X186310000Y-71180000D02*
X187070000Y-71180000D01*
X204850000Y-80237071D02*
X204850000Y-79840000D01*
X193930000Y-77180000D02*
X193930000Y-71180000D01*
X184530000Y-82710000D02*
X184530000Y-82322929D01*
X204090000Y-77180000D02*
X204090000Y-71180000D01*
X188850000Y-80237071D02*
X188850000Y-79840000D01*
X196470000Y-80237071D02*
X196470000Y-79840000D01*
X188850000Y-77180000D02*
X188850000Y-71180000D01*
X185420000Y-79840000D02*
X185420000Y-77180000D01*
X196470000Y-71180000D02*
X197230000Y-71180000D01*
X202310000Y-80237071D02*
X202310000Y-79840000D01*
X187070000Y-71180000D02*
X187070000Y-77180000D01*
X199010000Y-82777071D02*
X199010000Y-82322929D01*
X184190000Y-77180000D02*
X184190000Y-71180000D01*
%TO.C,SWA8*%
X116780000Y-77470000D02*
X116780000Y-82610000D01*
X116780000Y-76200000D02*
X116780000Y-74870000D01*
X116780000Y-82610000D02*
X121980000Y-82610000D01*
X119380000Y-77470000D02*
X119380000Y-74870000D01*
X121980000Y-74870000D02*
X121980000Y-82610000D01*
X116780000Y-74870000D02*
X118110000Y-74870000D01*
X116780000Y-77470000D02*
X119380000Y-77470000D01*
X119380000Y-74870000D02*
X121980000Y-74870000D01*
%TO.C,UA2*%
X159960000Y-73770000D02*
X177860000Y-73770000D01*
X159960000Y-72120000D02*
X159960000Y-73770000D01*
X177860000Y-68470000D02*
X159960000Y-68470000D01*
X177860000Y-73770000D02*
X177860000Y-68470000D01*
X159960000Y-68470000D02*
X159960000Y-70120000D01*
X159960000Y-72120000D02*
G75*
G03*
X159960000Y-70120000I0J1000000D01*
G01*
%TO.C,UC3*%
X155005000Y-101490000D02*
X129485000Y-101490000D01*
X129485000Y-106790000D02*
X155005000Y-106790000D01*
X155005000Y-106790000D02*
X155005000Y-101490000D01*
X129485000Y-105140000D02*
X129485000Y-106790000D01*
X129485000Y-101490000D02*
X129485000Y-103140000D01*
X129485000Y-105140000D02*
G75*
G03*
X129485000Y-103140000I0J1000000D01*
G01*
%TO.C,UB3*%
X124400000Y-94090000D02*
X155000000Y-94090000D01*
X155000000Y-94090000D02*
X155000000Y-81170000D01*
X124400000Y-88630000D02*
X124400000Y-94090000D01*
X124400000Y-81170000D02*
X124400000Y-86630000D01*
X155000000Y-81170000D02*
X124400000Y-81170000D01*
X124400000Y-88630000D02*
G75*
G03*
X124400000Y-86630000I0J1000000D01*
G01*
%TO.C,C3*%
X197930000Y-129390000D02*
X190690000Y-129390000D01*
X197930000Y-127150000D02*
X190690000Y-127150000D01*
X190690000Y-129390000D02*
X190690000Y-127150000D01*
X197930000Y-129390000D02*
X197930000Y-127150000D01*
%TO.C,R6*%
X125730000Y-100100000D02*
X125730000Y-100870000D01*
X124360000Y-100870000D02*
X124360000Y-107410000D01*
X127100000Y-107410000D02*
X127100000Y-100870000D01*
X124360000Y-107410000D02*
X127100000Y-107410000D01*
X125730000Y-108180000D02*
X125730000Y-107410000D01*
X127100000Y-100870000D02*
X124360000Y-100870000D01*
%TO.C,JP5A9*%
X128775000Y-115205000D02*
X131575000Y-115205000D01*
X132225000Y-115905000D02*
X132225000Y-116505000D01*
X128125000Y-116505000D02*
X128125000Y-115905000D01*
X131575000Y-117205000D02*
X128775000Y-117205000D01*
X131525000Y-117205000D02*
G75*
G03*
X132225000Y-116505000I0J700000D01*
G01*
X132225000Y-115905000D02*
G75*
G03*
X131525000Y-115205000I-700000J0D01*
G01*
X128825000Y-115205000D02*
G75*
G03*
X128125000Y-115905000I-1J-699999D01*
G01*
X128125000Y-116505000D02*
G75*
G03*
X128825000Y-117205000I699999J-1D01*
G01*
%TO.C,Q3*%
X118890000Y-95290000D02*
X118890000Y-85050000D01*
X117380000Y-88319000D02*
X118890000Y-88319000D01*
X117380000Y-95290000D02*
X122021000Y-95290000D01*
X117380000Y-92020000D02*
X118890000Y-92020000D01*
X117380000Y-85050000D02*
X122021000Y-85050000D01*
X122021000Y-95290000D02*
X122021000Y-85050000D01*
X117380000Y-95290000D02*
X117380000Y-85050000D01*
%TO.C,C5*%
X119530000Y-99250000D02*
X119530000Y-106490000D01*
X121770000Y-106490000D02*
X119530000Y-106490000D01*
X121770000Y-99250000D02*
X119530000Y-99250000D01*
X121770000Y-99250000D02*
X121770000Y-106490000D01*
%TO.C,UA3*%
X155000000Y-68470000D02*
X134560000Y-68470000D01*
X134560000Y-72120000D02*
X134560000Y-73770000D01*
X134560000Y-68470000D02*
X134560000Y-70120000D01*
X134560000Y-73770000D02*
X155000000Y-73770000D01*
X155000000Y-73770000D02*
X155000000Y-68470000D01*
X134560000Y-72120000D02*
G75*
G03*
X134560000Y-70120000I0J1000000D01*
G01*
%TO.C,C2*%
X131968349Y-70426000D02*
X131968349Y-74354000D01*
X130208349Y-73430000D02*
X130208349Y-76037000D01*
X129007349Y-68360000D02*
X129007349Y-76420000D01*
X132408349Y-71622000D02*
X132408349Y-73158000D01*
X129168349Y-68388000D02*
X129168349Y-76392000D01*
X129288349Y-68414000D02*
X129288349Y-76366000D01*
X129848349Y-73430000D02*
X129848349Y-76195000D01*
X130168349Y-73430000D02*
X130168349Y-76056000D01*
X131808349Y-73430000D02*
X131808349Y-74618000D01*
X131368349Y-69606000D02*
X131368349Y-71350000D01*
X130368349Y-68828000D02*
X130368349Y-71350000D01*
X130208349Y-68743000D02*
X130208349Y-71350000D01*
X131048349Y-73430000D02*
X131048349Y-75480000D01*
X130088349Y-68686000D02*
X130088349Y-71350000D01*
X130568349Y-68946000D02*
X130568349Y-71350000D01*
X130248349Y-68763000D02*
X130248349Y-71350000D01*
X129968349Y-68633000D02*
X129968349Y-71350000D01*
X124357651Y-69675000D02*
X124357651Y-70475000D01*
X131488349Y-73430000D02*
X131488349Y-75041000D01*
X132328349Y-71292000D02*
X132328349Y-73488000D01*
X131848349Y-70224000D02*
X131848349Y-71350000D01*
X131168349Y-73430000D02*
X131168349Y-75373000D01*
X131648349Y-69936000D02*
X131648349Y-71350000D01*
X131728349Y-70045000D02*
X131728349Y-71350000D01*
X131608349Y-73430000D02*
X131608349Y-74895000D01*
X131608349Y-69885000D02*
X131608349Y-71350000D01*
X131888349Y-70288000D02*
X131888349Y-71350000D01*
X130928349Y-69201000D02*
X130928349Y-71350000D01*
X130488349Y-73430000D02*
X130488349Y-75883000D01*
X129608349Y-68501000D02*
X129608349Y-76279000D01*
X129848349Y-68585000D02*
X129848349Y-71350000D01*
X131248349Y-69483000D02*
X131248349Y-71350000D01*
X128927349Y-68348000D02*
X128927349Y-76432000D01*
X128527349Y-68313000D02*
X128527349Y-76467000D01*
X129448349Y-68454000D02*
X129448349Y-76326000D01*
X131648349Y-73430000D02*
X131648349Y-74844000D01*
X130688349Y-69025000D02*
X130688349Y-71350000D01*
X131168349Y-69407000D02*
X131168349Y-71350000D01*
X131288349Y-69523000D02*
X131288349Y-71350000D01*
X131128349Y-69371000D02*
X131128349Y-71350000D01*
X132208349Y-70937000D02*
X132208349Y-73843000D01*
X129368349Y-68433000D02*
X129368349Y-76347000D01*
X131048349Y-69300000D02*
X131048349Y-71350000D01*
X130728349Y-69052000D02*
X130728349Y-71350000D01*
X129488349Y-68465000D02*
X129488349Y-76315000D01*
X130448349Y-68873000D02*
X130448349Y-71350000D01*
X131248349Y-73430000D02*
X131248349Y-75297000D01*
X128447349Y-68310000D02*
X128447349Y-76470000D01*
X130848349Y-69140000D02*
X130848349Y-71350000D01*
X129328349Y-68423000D02*
X129328349Y-76357000D01*
X131128349Y-73430000D02*
X131128349Y-75409000D01*
X129208349Y-68396000D02*
X129208349Y-76384000D01*
X131008349Y-69266000D02*
X131008349Y-71350000D01*
X130008349Y-68650000D02*
X130008349Y-71350000D01*
X131208349Y-73430000D02*
X131208349Y-75335000D01*
X130608349Y-73430000D02*
X130608349Y-75808000D01*
X130648349Y-73430000D02*
X130648349Y-75782000D01*
X130288349Y-68784000D02*
X130288349Y-71350000D01*
X132008349Y-70500000D02*
X132008349Y-74280000D01*
X131328349Y-69564000D02*
X131328349Y-71350000D01*
X129568349Y-68488000D02*
X129568349Y-76292000D01*
X131408349Y-69649000D02*
X131408349Y-71350000D01*
X132248349Y-71044000D02*
X132248349Y-73736000D01*
X131528349Y-73430000D02*
X131528349Y-74994000D01*
X131688349Y-69990000D02*
X131688349Y-71350000D01*
X130128349Y-68704000D02*
X130128349Y-71350000D01*
X128847349Y-68338000D02*
X128847349Y-76442000D01*
X130408349Y-68850000D02*
X130408349Y-71350000D01*
X131448349Y-73430000D02*
X131448349Y-75087000D01*
X130648349Y-68998000D02*
X130648349Y-71350000D01*
X130768349Y-73430000D02*
X130768349Y-75699000D01*
X130488349Y-68897000D02*
X130488349Y-71350000D01*
X131488349Y-69739000D02*
X131488349Y-71350000D01*
X129088349Y-68373000D02*
X129088349Y-76407000D01*
X131808349Y-70162000D02*
X131808349Y-71350000D01*
X131408349Y-73430000D02*
X131408349Y-75131000D01*
X129528349Y-68476000D02*
X129528349Y-76304000D01*
X129248349Y-68405000D02*
X129248349Y-76375000D01*
X128807349Y-68333000D02*
X128807349Y-76447000D01*
X129808349Y-68569000D02*
X129808349Y-76211000D01*
X131088349Y-73430000D02*
X131088349Y-75445000D01*
X131088349Y-69335000D02*
X131088349Y-71350000D01*
X130608349Y-68972000D02*
X130608349Y-71350000D01*
X128767349Y-68329000D02*
X128767349Y-76451000D01*
X130928349Y-73430000D02*
X130928349Y-75579000D01*
X132088349Y-70659000D02*
X132088349Y-74121000D01*
X130768349Y-69081000D02*
X130768349Y-71350000D01*
X131288349Y-73430000D02*
X131288349Y-75257000D01*
X129928349Y-68616000D02*
X129928349Y-71350000D01*
X130288349Y-73430000D02*
X130288349Y-75996000D01*
X130888349Y-73430000D02*
X130888349Y-75610000D01*
X131568349Y-69834000D02*
X131568349Y-71350000D01*
X131448349Y-69693000D02*
X131448349Y-71350000D01*
X130968349Y-69234000D02*
X130968349Y-71350000D01*
X130888349Y-69170000D02*
X130888349Y-71350000D01*
X132368349Y-71442000D02*
X132368349Y-73338000D01*
X131208349Y-69445000D02*
X131208349Y-71350000D01*
X130168349Y-68724000D02*
X130168349Y-71350000D01*
X129888349Y-73430000D02*
X129888349Y-76180000D01*
X131848349Y-73430000D02*
X131848349Y-74556000D01*
X128887349Y-68342000D02*
X128887349Y-76438000D01*
X128487349Y-68311000D02*
X128487349Y-76469000D01*
X128647349Y-68319000D02*
X128647349Y-76461000D01*
X130328349Y-73430000D02*
X130328349Y-75974000D01*
X128367349Y-68310000D02*
X128367349Y-76470000D01*
X128407349Y-68310000D02*
X128407349Y-76470000D01*
X130328349Y-68806000D02*
X130328349Y-71350000D01*
X130368349Y-73430000D02*
X130368349Y-75952000D01*
X129128349Y-68380000D02*
X129128349Y-76400000D01*
X128727349Y-68325000D02*
X128727349Y-76455000D01*
X129928349Y-73430000D02*
X129928349Y-76164000D01*
X132448349Y-71857000D02*
X132448349Y-72923000D01*
X129408349Y-68443000D02*
X129408349Y-76337000D01*
X131328349Y-73430000D02*
X131328349Y-75216000D01*
X128567349Y-68314000D02*
X128567349Y-76466000D01*
X130808349Y-73430000D02*
X130808349Y-75670000D01*
X128967349Y-68353000D02*
X128967349Y-76427000D01*
X130968349Y-73430000D02*
X130968349Y-75546000D01*
X131528349Y-69786000D02*
X131528349Y-71350000D01*
X131768349Y-70103000D02*
X131768349Y-71350000D01*
X131568349Y-73430000D02*
X131568349Y-74946000D01*
X132128349Y-70745000D02*
X132128349Y-74035000D01*
X132168349Y-70838000D02*
X132168349Y-73942000D01*
X131768349Y-73430000D02*
X131768349Y-74677000D01*
X130128349Y-73430000D02*
X130128349Y-76076000D01*
X129888349Y-68600000D02*
X129888349Y-71350000D01*
X131688349Y-73430000D02*
X131688349Y-74790000D01*
X130528349Y-73430000D02*
X130528349Y-75859000D01*
X132288349Y-71161000D02*
X132288349Y-73619000D01*
X129047349Y-68366000D02*
X129047349Y-76414000D01*
X130448349Y-73430000D02*
X130448349Y-75907000D01*
X131928349Y-70356000D02*
X131928349Y-74424000D01*
X130568349Y-73430000D02*
X130568349Y-75834000D01*
X130048349Y-68668000D02*
X130048349Y-71350000D01*
X129768349Y-68555000D02*
X129768349Y-76225000D01*
X131888349Y-73430000D02*
X131888349Y-74492000D01*
X130008349Y-73430000D02*
X130008349Y-76130000D01*
X130248349Y-73430000D02*
X130248349Y-76017000D01*
X130848349Y-73430000D02*
X130848349Y-75640000D01*
X131728349Y-73430000D02*
X131728349Y-74735000D01*
X130088349Y-73430000D02*
X130088349Y-76094000D01*
X130528349Y-68921000D02*
X130528349Y-71350000D01*
X130688349Y-73430000D02*
X130688349Y-75755000D01*
X129688349Y-68527000D02*
X129688349Y-76253000D01*
X131008349Y-73430000D02*
X131008349Y-75514000D01*
X131368349Y-73430000D02*
X131368349Y-75174000D01*
X130048349Y-73430000D02*
X130048349Y-76112000D01*
X123957651Y-70075000D02*
X124757651Y-70075000D01*
X128607349Y-68316000D02*
X128607349Y-76464000D01*
X130728349Y-73430000D02*
X130728349Y-75728000D01*
X132048349Y-70577000D02*
X132048349Y-74203000D01*
X129968349Y-73430000D02*
X129968349Y-76147000D01*
X129728349Y-68540000D02*
X129728349Y-76240000D01*
X129648349Y-68513000D02*
X129648349Y-76267000D01*
X130408349Y-73430000D02*
X130408349Y-75930000D01*
X130808349Y-69110000D02*
X130808349Y-71350000D01*
X128687349Y-68322000D02*
X128687349Y-76458000D01*
X132487349Y-72390000D02*
G75*
G03*
X132487349Y-72390000I-4120000J0D01*
G01*
%TO.C,JP6A10*%
X136655000Y-84185000D02*
X133855000Y-84185000D01*
X137305000Y-82885000D02*
X137305000Y-83485000D01*
X133855000Y-82185000D02*
X136655000Y-82185000D01*
X133205000Y-83485000D02*
X133205000Y-82885000D01*
X137305000Y-82885000D02*
G75*
G03*
X136605000Y-82185000I-699999J1D01*
G01*
X136605000Y-84185000D02*
G75*
G03*
X137305000Y-83485000I1J699999D01*
G01*
X133205000Y-83485000D02*
G75*
G03*
X133905000Y-84185000I700000J0D01*
G01*
X133905000Y-82185000D02*
G75*
G03*
X133205000Y-82885000I0J-700000D01*
G01*
%TO.C,J2*%
X199770000Y-120877071D02*
X199770000Y-120480000D01*
X192150000Y-120877071D02*
X192150000Y-120480000D01*
X187960000Y-120480000D02*
X187960000Y-117820000D01*
X189610000Y-123417071D02*
X189610000Y-122962929D01*
X191390000Y-117820000D02*
X191390000Y-111820000D01*
X202310000Y-120877071D02*
X202310000Y-120480000D01*
X199010000Y-120877071D02*
X199010000Y-120480000D01*
X187070000Y-120877071D02*
X187070000Y-120480000D01*
X184530000Y-111820000D02*
X184530000Y-117820000D01*
X184530000Y-120877071D02*
X184530000Y-120480000D01*
X196470000Y-117820000D02*
X196470000Y-111820000D01*
X183950000Y-117820000D02*
X183950000Y-111820000D01*
X182820000Y-117820000D02*
X182820000Y-120480000D01*
X199010000Y-117820000D02*
X199010000Y-111820000D01*
X184430000Y-117820000D02*
X184430000Y-111820000D01*
X196470000Y-111820000D02*
X197230000Y-111820000D01*
X193930000Y-123417071D02*
X193930000Y-122962929D01*
X204090000Y-117820000D02*
X204090000Y-111820000D01*
X195580000Y-120480000D02*
X195580000Y-117820000D01*
X196470000Y-120877071D02*
X196470000Y-120480000D01*
X199770000Y-111820000D02*
X199770000Y-117820000D01*
X197230000Y-111820000D02*
X197230000Y-117820000D01*
X199010000Y-111820000D02*
X199770000Y-111820000D01*
X201550000Y-120877071D02*
X201550000Y-120480000D01*
X188850000Y-123417071D02*
X188850000Y-122962929D01*
X208340000Y-120480000D02*
X208340000Y-117820000D01*
X188850000Y-111820000D02*
X189610000Y-111820000D01*
X186310000Y-120877071D02*
X186310000Y-120480000D01*
X204850000Y-120877071D02*
X204850000Y-120480000D01*
X204850000Y-111820000D02*
X204850000Y-117820000D01*
X184190000Y-117820000D02*
X184190000Y-111820000D01*
X207390000Y-123417071D02*
X207390000Y-122962929D01*
X193930000Y-120877071D02*
X193930000Y-120480000D01*
X184070000Y-117820000D02*
X184070000Y-111820000D01*
X189610000Y-111820000D02*
X189610000Y-117820000D01*
X206630000Y-111820000D02*
X207390000Y-111820000D01*
X207390000Y-111820000D02*
X207390000Y-117820000D01*
X204850000Y-123417071D02*
X204850000Y-122962929D01*
X183770000Y-117820000D02*
X183770000Y-111820000D01*
X201550000Y-117820000D02*
X201550000Y-111820000D01*
X184530000Y-123350000D02*
X184530000Y-122962929D01*
X186310000Y-111820000D02*
X187070000Y-111820000D01*
X192150000Y-111820000D02*
X192150000Y-117820000D01*
X202310000Y-111820000D02*
X202310000Y-117820000D01*
X182880000Y-125730000D02*
X182880000Y-124460000D01*
X190500000Y-120480000D02*
X190500000Y-117820000D01*
X202310000Y-123417071D02*
X202310000Y-122962929D01*
X199770000Y-123417071D02*
X199770000Y-122962929D01*
X196470000Y-123417071D02*
X196470000Y-122962929D01*
X182820000Y-120480000D02*
X208340000Y-120480000D01*
X204090000Y-120877071D02*
X204090000Y-120480000D01*
X193930000Y-111820000D02*
X194690000Y-111820000D01*
X188850000Y-120877071D02*
X188850000Y-120480000D01*
X197230000Y-120877071D02*
X197230000Y-120480000D01*
X184310000Y-117820000D02*
X184310000Y-111820000D01*
X185420000Y-120480000D02*
X185420000Y-117820000D01*
X208340000Y-117820000D02*
X182820000Y-117820000D01*
X193930000Y-117820000D02*
X193930000Y-111820000D01*
X204090000Y-123417071D02*
X204090000Y-122962929D01*
X192150000Y-123417071D02*
X192150000Y-122962929D01*
X191390000Y-120877071D02*
X191390000Y-120480000D01*
X197230000Y-123417071D02*
X197230000Y-122962929D01*
X189610000Y-120877071D02*
X189610000Y-120480000D01*
X194690000Y-120877071D02*
X194690000Y-120480000D01*
X183770000Y-120877071D02*
X183770000Y-120480000D01*
X194690000Y-123417071D02*
X194690000Y-122962929D01*
X188850000Y-117820000D02*
X188850000Y-111820000D01*
X193040000Y-120480000D02*
X193040000Y-117820000D01*
X184150000Y-125730000D02*
X182880000Y-125730000D01*
X199010000Y-123417071D02*
X199010000Y-122962929D01*
X205740000Y-120480000D02*
X205740000Y-117820000D01*
X191390000Y-123417071D02*
X191390000Y-122962929D01*
X198120000Y-120480000D02*
X198120000Y-117820000D01*
X186310000Y-123417071D02*
X186310000Y-122962929D01*
X206630000Y-117820000D02*
X206630000Y-111820000D01*
X187070000Y-123417071D02*
X187070000Y-122962929D01*
X201550000Y-111820000D02*
X202310000Y-111820000D01*
X201550000Y-123417071D02*
X201550000Y-122962929D01*
X206630000Y-123417071D02*
X206630000Y-122962929D01*
X187070000Y-111820000D02*
X187070000Y-117820000D01*
X207390000Y-120877071D02*
X207390000Y-120480000D01*
X194690000Y-111820000D02*
X194690000Y-117820000D01*
X186310000Y-117820000D02*
X186310000Y-111820000D01*
X206630000Y-120877071D02*
X206630000Y-120480000D01*
X183830000Y-117820000D02*
X183830000Y-111820000D01*
X203200000Y-120480000D02*
X203200000Y-117820000D01*
X183770000Y-123350000D02*
X183770000Y-122962929D01*
X191390000Y-111820000D02*
X192150000Y-111820000D01*
X183770000Y-111820000D02*
X184530000Y-111820000D01*
X200660000Y-120480000D02*
X200660000Y-117820000D01*
X204090000Y-111820000D02*
X204850000Y-111820000D01*
%TO.C,UB2*%
X159960000Y-90280000D02*
X177860000Y-90280000D01*
X159960000Y-84980000D02*
X159960000Y-86630000D01*
X177860000Y-84980000D02*
X159960000Y-84980000D01*
X159960000Y-88630000D02*
X159960000Y-90280000D01*
X177860000Y-90280000D02*
X177860000Y-84980000D01*
X159960000Y-88630000D02*
G75*
G03*
X159960000Y-86630000I0J1000000D01*
G01*
%TO.C,R7*%
X113565000Y-86900000D02*
X113565000Y-93440000D01*
X113565000Y-93440000D02*
X116305000Y-93440000D01*
X116305000Y-86900000D02*
X113565000Y-86900000D01*
X114935000Y-86130000D02*
X114935000Y-86900000D01*
X114935000Y-94210000D02*
X114935000Y-93440000D01*
X116305000Y-93440000D02*
X116305000Y-86900000D01*
%TD*%
M02*
