%TF.GenerationSoftware,KiCad,Pcbnew,(6.0.5-0)*%
%TF.CreationDate,2022-08-03T01:41:10-07:00*%
%TF.ProjectId,DiskII,4469736b-4949-42e6-9b69-6361645f7063,rev?*%
%TF.SameCoordinates,Original*%
%TF.FileFunction,Soldermask,Top*%
%TF.FilePolarity,Negative*%
%FSLAX46Y46*%
G04 Gerber Fmt 4.6, Leading zero omitted, Abs format (unit mm)*
G04 Created by KiCad (PCBNEW (6.0.5-0)) date 2022-08-03 01:41:10*
%MOMM*%
%LPD*%
G01*
G04 APERTURE LIST*
G04 Aperture macros list*
%AMRoundRect*
0 Rectangle with rounded corners*
0 $1 Rounding radius*
0 $2 $3 $4 $5 $6 $7 $8 $9 X,Y pos of 4 corners*
0 Add a 4 corners polygon primitive as box body*
4,1,4,$2,$3,$4,$5,$6,$7,$8,$9,$2,$3,0*
0 Add four circle primitives for the rounded corners*
1,1,$1+$1,$2,$3*
1,1,$1+$1,$4,$5*
1,1,$1+$1,$6,$7*
1,1,$1+$1,$8,$9*
0 Add four rect primitives between the rounded corners*
20,1,$1+$1,$2,$3,$4,$5,0*
20,1,$1+$1,$4,$5,$6,$7,0*
20,1,$1+$1,$6,$7,$8,$9,0*
20,1,$1+$1,$8,$9,$2,$3,0*%
G04 Aperture macros list end*
%ADD10C,0.150000*%
%ADD11C,1.600000*%
%ADD12O,1.600000X1.600000*%
%ADD13RoundRect,0.317500X-0.317500X-3.365500X0.317500X-3.365500X0.317500X3.365500X-0.317500X3.365500X0*%
%ADD14R,1.600000X1.600000*%
%ADD15R,1.905000X2.000000*%
%ADD16O,1.905000X2.000000*%
%ADD17R,1.500000X1.500000*%
%ADD18C,1.500000*%
%ADD19R,1.700000X1.700000*%
%ADD20O,1.700000X1.700000*%
%ADD21C,1.700000*%
G04 APERTURE END LIST*
%TO.C,J1*%
G36*
X201295000Y-140980000D02*
G01*
X136525000Y-140980000D01*
X136525000Y-133360000D01*
X201295000Y-133360000D01*
X201295000Y-140980000D01*
G37*
D10*
X201295000Y-140980000D02*
X136525000Y-140980000D01*
X136525000Y-133360000D01*
X201295000Y-133360000D01*
X201295000Y-140980000D01*
%TD*%
D11*
%TO.C,R2*%
X114935000Y-97790000D03*
D12*
X114935000Y-105410000D03*
%TD*%
D11*
%TO.C,R3*%
X159385000Y-79375000D03*
D12*
X167005000Y-79375000D03*
%TD*%
D11*
%TO.C,C1*%
X163830000Y-128905000D03*
X158830000Y-128905000D03*
%TD*%
%TO.C,R4*%
X161290000Y-112395000D03*
D12*
X173990000Y-112395000D03*
%TD*%
D11*
%TO.C,R1*%
X114935000Y-122555000D03*
D12*
X114935000Y-114935000D03*
%TD*%
D13*
%TO.C,J1*%
X138430000Y-137043000D03*
X140970000Y-137043000D03*
X143510000Y-137043000D03*
X146050000Y-137043000D03*
X148590000Y-137043000D03*
X151130000Y-137043000D03*
X153670000Y-137043000D03*
X156210000Y-137043000D03*
X158750000Y-137043000D03*
X161290000Y-137043000D03*
X163830000Y-137043000D03*
X166370000Y-137043000D03*
X168910000Y-137043000D03*
X171450000Y-137043000D03*
X173990000Y-137043000D03*
X176530000Y-137043000D03*
X179070000Y-137043000D03*
X181610000Y-137043000D03*
X184150000Y-137043000D03*
X186690000Y-137043000D03*
X189230000Y-137043000D03*
X191770000Y-137043000D03*
X194310000Y-137043000D03*
X196850000Y-137043000D03*
X199390000Y-137043000D03*
%TD*%
D11*
%TO.C,C4*%
X122555000Y-130770000D03*
X122555000Y-125770000D03*
%TD*%
D14*
%TO.C,UC2*%
X161305000Y-107950000D03*
D12*
X163845000Y-107950000D03*
X166385000Y-107950000D03*
X168925000Y-107950000D03*
X171465000Y-107950000D03*
X174005000Y-107950000D03*
X176545000Y-107950000D03*
X179085000Y-107950000D03*
X179085000Y-100330000D03*
X176545000Y-100330000D03*
X174005000Y-100330000D03*
X171465000Y-100330000D03*
X168925000Y-100330000D03*
X166385000Y-100330000D03*
X163845000Y-100330000D03*
X161305000Y-100330000D03*
%TD*%
D14*
%TO.C,UD2*%
X161285000Y-124450000D03*
D12*
X163825000Y-124450000D03*
X166365000Y-124450000D03*
X168905000Y-124450000D03*
X171445000Y-124450000D03*
X173985000Y-124450000D03*
X176525000Y-124450000D03*
X176525000Y-116830000D03*
X173985000Y-116830000D03*
X171445000Y-116830000D03*
X168905000Y-116830000D03*
X166365000Y-116830000D03*
X163825000Y-116830000D03*
X161285000Y-116830000D03*
%TD*%
D14*
%TO.C,UD3*%
X125735000Y-128270000D03*
D12*
X128275000Y-128270000D03*
X130815000Y-128270000D03*
X133355000Y-128270000D03*
X135895000Y-128270000D03*
X138435000Y-128270000D03*
X140975000Y-128270000D03*
X143515000Y-128270000D03*
X146055000Y-128270000D03*
X148595000Y-128270000D03*
X151135000Y-128270000D03*
X153675000Y-128270000D03*
X153675000Y-113030000D03*
X151135000Y-113030000D03*
X148595000Y-113030000D03*
X146055000Y-113030000D03*
X143515000Y-113030000D03*
X140975000Y-113030000D03*
X138435000Y-113030000D03*
X135895000Y-113030000D03*
X133355000Y-113030000D03*
X130815000Y-113030000D03*
X128275000Y-113030000D03*
X125735000Y-113030000D03*
%TD*%
D11*
%TO.C,C6*%
X206970000Y-128270000D03*
X201970000Y-128270000D03*
%TD*%
D15*
%TO.C,Q2*%
X119380000Y-110180000D03*
D16*
X116840000Y-110180000D03*
X114300000Y-110180000D03*
%TD*%
D17*
%TO.C,Q1*%
X114935000Y-126725000D03*
D18*
X117475000Y-126725000D03*
X120015000Y-126725000D03*
%TD*%
D11*
%TO.C,C7*%
X184150000Y-128270000D03*
X189150000Y-128270000D03*
%TD*%
%TO.C,R5*%
X173990000Y-95885000D03*
D12*
X161290000Y-95885000D03*
%TD*%
D19*
%TO.C,SW3*%
X128900000Y-67310000D03*
D20*
X128900000Y-69850000D03*
X128900000Y-72390000D03*
X131440000Y-67310000D03*
X131440000Y-69850000D03*
X131440000Y-72390000D03*
%TD*%
D19*
%TO.C,J3*%
X184150000Y-83820000D03*
D20*
X184150000Y-81280000D03*
X186690000Y-83820000D03*
X186690000Y-81280000D03*
X189230000Y-83820000D03*
X189230000Y-81280000D03*
X191770000Y-83820000D03*
X191770000Y-81280000D03*
X194310000Y-83820000D03*
X194310000Y-81280000D03*
X196850000Y-83820000D03*
X196850000Y-81280000D03*
X199390000Y-83820000D03*
X199390000Y-81280000D03*
X201930000Y-83820000D03*
X201930000Y-81280000D03*
X204470000Y-83820000D03*
X204470000Y-81280000D03*
X207010000Y-83820000D03*
X207010000Y-81280000D03*
%TD*%
D19*
%TO.C,SW1*%
X114930000Y-67310000D03*
D20*
X114930000Y-69850000D03*
X114930000Y-72390000D03*
X117470000Y-67310000D03*
X117470000Y-69850000D03*
X117470000Y-72390000D03*
%TD*%
D14*
%TO.C,UA2*%
X161285000Y-74930000D03*
D12*
X163825000Y-74930000D03*
X166365000Y-74930000D03*
X168905000Y-74930000D03*
X171445000Y-74930000D03*
X173985000Y-74930000D03*
X176525000Y-74930000D03*
X176525000Y-67310000D03*
X173985000Y-67310000D03*
X171445000Y-67310000D03*
X168905000Y-67310000D03*
X166365000Y-67310000D03*
X163825000Y-67310000D03*
X161285000Y-67310000D03*
%TD*%
D14*
%TO.C,UC3*%
X130815000Y-107950000D03*
D12*
X133355000Y-107950000D03*
X135895000Y-107950000D03*
X138435000Y-107950000D03*
X140975000Y-107950000D03*
X143515000Y-107950000D03*
X146055000Y-107950000D03*
X148595000Y-107950000D03*
X151135000Y-107950000D03*
X153675000Y-107950000D03*
X153675000Y-100330000D03*
X151135000Y-100330000D03*
X148595000Y-100330000D03*
X146055000Y-100330000D03*
X143515000Y-100330000D03*
X140975000Y-100330000D03*
X138435000Y-100330000D03*
X135895000Y-100330000D03*
X133355000Y-100330000D03*
X130815000Y-100330000D03*
%TD*%
D14*
%TO.C,UB3*%
X125735000Y-95250000D03*
D12*
X128275000Y-95250000D03*
X130815000Y-95250000D03*
X133355000Y-95250000D03*
X135895000Y-95250000D03*
X138435000Y-95250000D03*
X140975000Y-95250000D03*
X143515000Y-95250000D03*
X146055000Y-95250000D03*
X148595000Y-95250000D03*
X151135000Y-95250000D03*
X153675000Y-95250000D03*
X153675000Y-80010000D03*
X151135000Y-80010000D03*
X148595000Y-80010000D03*
X146055000Y-80010000D03*
X143515000Y-80010000D03*
X140975000Y-80010000D03*
X138435000Y-80010000D03*
X135895000Y-80010000D03*
X133355000Y-80010000D03*
X130815000Y-80010000D03*
X128275000Y-80010000D03*
X125735000Y-80010000D03*
%TD*%
D11*
%TO.C,C3*%
X198080000Y-128270000D03*
X193080000Y-128270000D03*
%TD*%
%TO.C,R6*%
X114935000Y-77470000D03*
D12*
X122555000Y-77470000D03*
%TD*%
D15*
%TO.C,Q3*%
X119380000Y-82875000D03*
D16*
X116840000Y-82875000D03*
X114300000Y-82875000D03*
%TD*%
D11*
%TO.C,C5*%
X119380000Y-115102000D03*
X119380000Y-120102000D03*
%TD*%
D14*
%TO.C,UA3*%
X135905000Y-74930000D03*
D12*
X138445000Y-74930000D03*
X140985000Y-74930000D03*
X143525000Y-74930000D03*
X146065000Y-74930000D03*
X148605000Y-74930000D03*
X151145000Y-74930000D03*
X153685000Y-74930000D03*
X153685000Y-67310000D03*
X151145000Y-67310000D03*
X148605000Y-67310000D03*
X146065000Y-67310000D03*
X143525000Y-67310000D03*
X140985000Y-67310000D03*
X138445000Y-67310000D03*
X135905000Y-67310000D03*
%TD*%
D14*
%TO.C,C2*%
X123190000Y-100467349D03*
D11*
X123190000Y-105467349D03*
%TD*%
D19*
%TO.C,J2*%
X184150000Y-124460000D03*
D20*
X184150000Y-121920000D03*
X186690000Y-124460000D03*
X186690000Y-121920000D03*
X189230000Y-124460000D03*
X189230000Y-121920000D03*
X191770000Y-124460000D03*
X191770000Y-121920000D03*
X194310000Y-124460000D03*
D21*
X194310000Y-121920000D03*
D20*
X196850000Y-124460000D03*
D21*
X196850000Y-121920000D03*
D20*
X199390000Y-124460000D03*
X199390000Y-121920000D03*
X201930000Y-124460000D03*
X201930000Y-121920000D03*
X204470000Y-124460000D03*
X204470000Y-121920000D03*
X207010000Y-124460000D03*
X207010000Y-121920000D03*
%TD*%
D19*
%TO.C,SW2*%
X121915000Y-67310000D03*
D20*
X121915000Y-69850000D03*
X121915000Y-72390000D03*
X124455000Y-67310000D03*
X124455000Y-69850000D03*
X124455000Y-72390000D03*
%TD*%
D14*
%TO.C,UB2*%
X161285000Y-91430000D03*
D12*
X163825000Y-91430000D03*
X166365000Y-91430000D03*
X168905000Y-91430000D03*
X171445000Y-91430000D03*
X173985000Y-91430000D03*
X176525000Y-91430000D03*
X176525000Y-83810000D03*
X173985000Y-83810000D03*
X171445000Y-83810000D03*
X168905000Y-83810000D03*
X166365000Y-83810000D03*
X163825000Y-83810000D03*
X161285000Y-83810000D03*
%TD*%
D11*
%TO.C,R7*%
X114935000Y-95250000D03*
D12*
X114935000Y-87630000D03*
%TD*%
M02*
