%TF.GenerationSoftware,KiCad,Pcbnew,(6.0.5-0)*%
%TF.CreationDate,2022-08-03T01:41:10-07:00*%
%TF.ProjectId,DiskII,4469736b-4949-42e6-9b69-6361645f7063,rev?*%
%TF.SameCoordinates,Original*%
%TF.FileFunction,Legend,Top*%
%TF.FilePolarity,Positive*%
%FSLAX46Y46*%
G04 Gerber Fmt 4.6, Leading zero omitted, Abs format (unit mm)*
G04 Created by KiCad (PCBNEW (6.0.5-0)) date 2022-08-03 01:41:10*
%MOMM*%
%LPD*%
G01*
G04 APERTURE LIST*
%ADD10C,0.150000*%
%ADD11C,0.300000*%
%ADD12C,0.508000*%
%ADD13C,0.120000*%
G04 APERTURE END LIST*
D10*
G36*
X208915000Y-92075000D02*
G01*
X207645000Y-92075000D01*
X207645000Y-94615000D01*
X206375000Y-94615000D01*
X206375000Y-92075000D01*
X205105000Y-92075000D01*
X207010000Y-90170000D01*
X208915000Y-92075000D01*
G37*
X208915000Y-92075000D02*
X207645000Y-92075000D01*
X207645000Y-94615000D01*
X206375000Y-94615000D01*
X206375000Y-92075000D01*
X205105000Y-92075000D01*
X207010000Y-90170000D01*
X208915000Y-92075000D01*
G36*
X207645000Y-105410000D02*
G01*
X208915000Y-105410000D01*
X207010000Y-107315000D01*
X205105000Y-105410000D01*
X206375000Y-105410000D01*
X206375000Y-102870000D01*
X207645000Y-102870000D01*
X207645000Y-105410000D01*
G37*
X207645000Y-105410000D02*
X208915000Y-105410000D01*
X207010000Y-107315000D01*
X205105000Y-105410000D01*
X206375000Y-105410000D01*
X206375000Y-102870000D01*
X207645000Y-102870000D01*
X207645000Y-105410000D01*
X112180714Y-72842380D02*
X111704523Y-72842380D01*
X111704523Y-71842380D01*
X112704523Y-71842380D02*
X112895000Y-71842380D01*
X112990238Y-71890000D01*
X113085476Y-71985238D01*
X113133095Y-72175714D01*
X113133095Y-72509047D01*
X113085476Y-72699523D01*
X112990238Y-72794761D01*
X112895000Y-72842380D01*
X112704523Y-72842380D01*
X112609285Y-72794761D01*
X112514047Y-72699523D01*
X112466428Y-72509047D01*
X112466428Y-72175714D01*
X112514047Y-71985238D01*
X112609285Y-71890000D01*
X112704523Y-71842380D01*
D11*
X125647142Y-132123571D02*
X125647142Y-130623571D01*
X125647142Y-131195000D02*
X125790000Y-131123571D01*
X126075714Y-131123571D01*
X126218571Y-131195000D01*
X126290000Y-131266428D01*
X126361428Y-131409285D01*
X126361428Y-131837857D01*
X126290000Y-131980714D01*
X126218571Y-132052142D01*
X126075714Y-132123571D01*
X125790000Y-132123571D01*
X125647142Y-132052142D01*
X126790000Y-131123571D02*
X127361428Y-131123571D01*
X127004285Y-130623571D02*
X127004285Y-131909285D01*
X127075714Y-132052142D01*
X127218571Y-132123571D01*
X127361428Y-132123571D01*
X127861428Y-132123571D02*
X127861428Y-130623571D01*
X127861428Y-131195000D02*
X128004285Y-131123571D01*
X128290000Y-131123571D01*
X128432857Y-131195000D01*
X128504285Y-131266428D01*
X128575714Y-131409285D01*
X128575714Y-131837857D01*
X128504285Y-131980714D01*
X128432857Y-132052142D01*
X128290000Y-132123571D01*
X128004285Y-132123571D01*
X127861428Y-132052142D01*
D10*
X145898809Y-65344523D02*
X145898809Y-64074523D01*
X146201190Y-64074523D01*
X146382619Y-64135000D01*
X146503571Y-64255952D01*
X146564047Y-64376904D01*
X146624523Y-64618809D01*
X146624523Y-64800238D01*
X146564047Y-65042142D01*
X146503571Y-65163095D01*
X146382619Y-65284047D01*
X146201190Y-65344523D01*
X145898809Y-65344523D01*
X147168809Y-65344523D02*
X147168809Y-64074523D01*
X147713095Y-65284047D02*
X147894523Y-65344523D01*
X148196904Y-65344523D01*
X148317857Y-65284047D01*
X148378333Y-65223571D01*
X148438809Y-65102619D01*
X148438809Y-64981666D01*
X148378333Y-64860714D01*
X148317857Y-64800238D01*
X148196904Y-64739761D01*
X147955000Y-64679285D01*
X147834047Y-64618809D01*
X147773571Y-64558333D01*
X147713095Y-64437380D01*
X147713095Y-64316428D01*
X147773571Y-64195476D01*
X147834047Y-64135000D01*
X147955000Y-64074523D01*
X148257380Y-64074523D01*
X148438809Y-64135000D01*
X148983095Y-65344523D02*
X148983095Y-64074523D01*
X149708809Y-65344523D02*
X149164523Y-64618809D01*
X149708809Y-64074523D02*
X148983095Y-64800238D01*
X151099761Y-65767857D02*
X151402142Y-65767857D01*
X151402142Y-63953571D01*
X151099761Y-63953571D01*
X152430238Y-65767857D02*
X152127857Y-65767857D01*
X152127857Y-63953571D01*
X152430238Y-63953571D01*
X153881666Y-65344523D02*
X153881666Y-64074523D01*
X154486428Y-65344523D02*
X154486428Y-64074523D01*
X155212142Y-65344523D01*
X155212142Y-64074523D01*
X155635476Y-64074523D02*
X156361190Y-64074523D01*
X155998333Y-65344523D02*
X155998333Y-64074523D01*
X156784523Y-64679285D02*
X157207857Y-64679285D01*
X157389285Y-65344523D02*
X156784523Y-65344523D01*
X156784523Y-64074523D01*
X157389285Y-64074523D01*
X158659285Y-65344523D02*
X158235952Y-64739761D01*
X157933571Y-65344523D02*
X157933571Y-64074523D01*
X158417380Y-64074523D01*
X158538333Y-64135000D01*
X158598809Y-64195476D01*
X158659285Y-64316428D01*
X158659285Y-64497857D01*
X158598809Y-64618809D01*
X158538333Y-64679285D01*
X158417380Y-64739761D01*
X157933571Y-64739761D01*
X159626904Y-64679285D02*
X159203571Y-64679285D01*
X159203571Y-65344523D02*
X159203571Y-64074523D01*
X159808333Y-64074523D01*
X160231666Y-64981666D02*
X160836428Y-64981666D01*
X160110714Y-65344523D02*
X160534047Y-64074523D01*
X160957380Y-65344523D01*
X162106428Y-65223571D02*
X162045952Y-65284047D01*
X161864523Y-65344523D01*
X161743571Y-65344523D01*
X161562142Y-65284047D01*
X161441190Y-65163095D01*
X161380714Y-65042142D01*
X161320238Y-64800238D01*
X161320238Y-64618809D01*
X161380714Y-64376904D01*
X161441190Y-64255952D01*
X161562142Y-64135000D01*
X161743571Y-64074523D01*
X161864523Y-64074523D01*
X162045952Y-64135000D01*
X162106428Y-64195476D01*
X162650714Y-64679285D02*
X163074047Y-64679285D01*
X163255476Y-65344523D02*
X162650714Y-65344523D01*
X162650714Y-64074523D01*
X163255476Y-64074523D01*
X165493095Y-65223571D02*
X165432619Y-65284047D01*
X165251190Y-65344523D01*
X165130238Y-65344523D01*
X164948809Y-65284047D01*
X164827857Y-65163095D01*
X164767380Y-65042142D01*
X164706904Y-64800238D01*
X164706904Y-64618809D01*
X164767380Y-64376904D01*
X164827857Y-64255952D01*
X164948809Y-64135000D01*
X165130238Y-64074523D01*
X165251190Y-64074523D01*
X165432619Y-64135000D01*
X165493095Y-64195476D01*
X165976904Y-64981666D02*
X166581666Y-64981666D01*
X165855952Y-65344523D02*
X166279285Y-64074523D01*
X166702619Y-65344523D01*
X167851666Y-65344523D02*
X167428333Y-64739761D01*
X167125952Y-65344523D02*
X167125952Y-64074523D01*
X167609761Y-64074523D01*
X167730714Y-64135000D01*
X167791190Y-64195476D01*
X167851666Y-64316428D01*
X167851666Y-64497857D01*
X167791190Y-64618809D01*
X167730714Y-64679285D01*
X167609761Y-64739761D01*
X167125952Y-64739761D01*
X168395952Y-65344523D02*
X168395952Y-64074523D01*
X168698333Y-64074523D01*
X168879761Y-64135000D01*
X169000714Y-64255952D01*
X169061190Y-64376904D01*
X169121666Y-64618809D01*
X169121666Y-64800238D01*
X169061190Y-65042142D01*
X169000714Y-65163095D01*
X168879761Y-65284047D01*
X168698333Y-65344523D01*
X168395952Y-65344523D01*
X111871190Y-67762380D02*
X111871190Y-66762380D01*
X111871190Y-67238571D02*
X112442619Y-67238571D01*
X112442619Y-67762380D02*
X112442619Y-66762380D01*
X112918809Y-67762380D02*
X112918809Y-66762380D01*
%TO.C,R2*%
X114387380Y-101885714D02*
X114387380Y-102076190D01*
X114435000Y-102171428D01*
X114482619Y-102219047D01*
X114625476Y-102314285D01*
X114815952Y-102361904D01*
X115196904Y-102361904D01*
X115292142Y-102314285D01*
X115339761Y-102266666D01*
X115387380Y-102171428D01*
X115387380Y-101980952D01*
X115339761Y-101885714D01*
X115292142Y-101838095D01*
X115196904Y-101790476D01*
X114958809Y-101790476D01*
X114863571Y-101838095D01*
X114815952Y-101885714D01*
X114768333Y-101980952D01*
X114768333Y-102171428D01*
X114815952Y-102266666D01*
X114863571Y-102314285D01*
X114958809Y-102361904D01*
X114815952Y-101219047D02*
X114768333Y-101314285D01*
X114720714Y-101361904D01*
X114625476Y-101409523D01*
X114577857Y-101409523D01*
X114482619Y-101361904D01*
X114435000Y-101314285D01*
X114387380Y-101219047D01*
X114387380Y-101028571D01*
X114435000Y-100933333D01*
X114482619Y-100885714D01*
X114577857Y-100838095D01*
X114625476Y-100838095D01*
X114720714Y-100885714D01*
X114768333Y-100933333D01*
X114815952Y-101028571D01*
X114815952Y-101219047D01*
X114863571Y-101314285D01*
X114911190Y-101361904D01*
X115006428Y-101409523D01*
X115196904Y-101409523D01*
X115292142Y-101361904D01*
X115339761Y-101314285D01*
X115387380Y-101219047D01*
X115387380Y-101028571D01*
X115339761Y-100933333D01*
X115292142Y-100885714D01*
X115196904Y-100838095D01*
X115006428Y-100838095D01*
X114911190Y-100885714D01*
X114863571Y-100933333D01*
X114815952Y-101028571D01*
X112847380Y-101766666D02*
X112371190Y-102100000D01*
X112847380Y-102338095D02*
X111847380Y-102338095D01*
X111847380Y-101957142D01*
X111895000Y-101861904D01*
X111942619Y-101814285D01*
X112037857Y-101766666D01*
X112180714Y-101766666D01*
X112275952Y-101814285D01*
X112323571Y-101861904D01*
X112371190Y-101957142D01*
X112371190Y-102338095D01*
X111942619Y-101385714D02*
X111895000Y-101338095D01*
X111847380Y-101242857D01*
X111847380Y-101004761D01*
X111895000Y-100909523D01*
X111942619Y-100861904D01*
X112037857Y-100814285D01*
X112133095Y-100814285D01*
X112275952Y-100861904D01*
X112847380Y-101433333D01*
X112847380Y-100814285D01*
%TO.C,R3*%
X162361666Y-78827380D02*
X162980714Y-78827380D01*
X162647380Y-79208333D01*
X162790238Y-79208333D01*
X162885476Y-79255952D01*
X162933095Y-79303571D01*
X162980714Y-79398809D01*
X162980714Y-79636904D01*
X162933095Y-79732142D01*
X162885476Y-79779761D01*
X162790238Y-79827380D01*
X162504523Y-79827380D01*
X162409285Y-79779761D01*
X162361666Y-79732142D01*
X163409285Y-79827380D02*
X163409285Y-78827380D01*
X163980714Y-79827380D02*
X163552142Y-79255952D01*
X163980714Y-78827380D02*
X163409285Y-79398809D01*
X163028333Y-77457380D02*
X162695000Y-76981190D01*
X162456904Y-77457380D02*
X162456904Y-76457380D01*
X162837857Y-76457380D01*
X162933095Y-76505000D01*
X162980714Y-76552619D01*
X163028333Y-76647857D01*
X163028333Y-76790714D01*
X162980714Y-76885952D01*
X162933095Y-76933571D01*
X162837857Y-76981190D01*
X162456904Y-76981190D01*
X163361666Y-76457380D02*
X163980714Y-76457380D01*
X163647380Y-76838333D01*
X163790238Y-76838333D01*
X163885476Y-76885952D01*
X163933095Y-76933571D01*
X163980714Y-77028809D01*
X163980714Y-77266904D01*
X163933095Y-77362142D01*
X163885476Y-77409761D01*
X163790238Y-77457380D01*
X163504523Y-77457380D01*
X163409285Y-77409761D01*
X163361666Y-77362142D01*
%TO.C,C1*%
X159972857Y-129262142D02*
X160020476Y-129309761D01*
X159972857Y-129357380D01*
X159925238Y-129309761D01*
X159972857Y-129262142D01*
X159972857Y-129357380D01*
X160972857Y-129357380D02*
X160401428Y-129357380D01*
X160687142Y-129357380D02*
X160687142Y-128357380D01*
X160591904Y-128500238D01*
X160496666Y-128595476D01*
X160401428Y-128643095D01*
X161830000Y-128690714D02*
X161830000Y-129357380D01*
X161401428Y-128690714D02*
X161401428Y-129214523D01*
X161449047Y-129309761D01*
X161544285Y-129357380D01*
X161687142Y-129357380D01*
X161782380Y-129309761D01*
X161830000Y-129262142D01*
X162639523Y-128833571D02*
X162306190Y-128833571D01*
X162306190Y-129357380D02*
X162306190Y-128357380D01*
X162782380Y-128357380D01*
X161163333Y-127357142D02*
X161115714Y-127404761D01*
X160972857Y-127452380D01*
X160877619Y-127452380D01*
X160734761Y-127404761D01*
X160639523Y-127309523D01*
X160591904Y-127214285D01*
X160544285Y-127023809D01*
X160544285Y-126880952D01*
X160591904Y-126690476D01*
X160639523Y-126595238D01*
X160734761Y-126500000D01*
X160877619Y-126452380D01*
X160972857Y-126452380D01*
X161115714Y-126500000D01*
X161163333Y-126547619D01*
X162115714Y-127452380D02*
X161544285Y-127452380D01*
X161830000Y-127452380D02*
X161830000Y-126452380D01*
X161734761Y-126595238D01*
X161639523Y-126690476D01*
X161544285Y-126738095D01*
%TO.C,R4*%
X167354285Y-112847380D02*
X166782857Y-112847380D01*
X167068571Y-112847380D02*
X167068571Y-111847380D01*
X166973333Y-111990238D01*
X166878095Y-112085476D01*
X166782857Y-112133095D01*
X167782857Y-112847380D02*
X167782857Y-111847380D01*
X168116190Y-112561666D01*
X168449523Y-111847380D01*
X168449523Y-112847380D01*
X167473333Y-110127380D02*
X167140000Y-109651190D01*
X166901904Y-110127380D02*
X166901904Y-109127380D01*
X167282857Y-109127380D01*
X167378095Y-109175000D01*
X167425714Y-109222619D01*
X167473333Y-109317857D01*
X167473333Y-109460714D01*
X167425714Y-109555952D01*
X167378095Y-109603571D01*
X167282857Y-109651190D01*
X166901904Y-109651190D01*
X168330476Y-109460714D02*
X168330476Y-110127380D01*
X168092380Y-109079761D02*
X167854285Y-109794047D01*
X168473333Y-109794047D01*
%TO.C,R1*%
X115387380Y-119411666D02*
X115387380Y-119983095D01*
X115387380Y-119697380D02*
X114387380Y-119697380D01*
X114530238Y-119792619D01*
X114625476Y-119887857D01*
X114673095Y-119983095D01*
X114387380Y-118506904D02*
X114387380Y-118983095D01*
X114863571Y-119030714D01*
X114815952Y-118983095D01*
X114768333Y-118887857D01*
X114768333Y-118649761D01*
X114815952Y-118554523D01*
X114863571Y-118506904D01*
X114958809Y-118459285D01*
X115196904Y-118459285D01*
X115292142Y-118506904D01*
X115339761Y-118554523D01*
X115387380Y-118649761D01*
X115387380Y-118887857D01*
X115339761Y-118983095D01*
X115292142Y-119030714D01*
X114387380Y-117840238D02*
X114387380Y-117745000D01*
X114435000Y-117649761D01*
X114482619Y-117602142D01*
X114577857Y-117554523D01*
X114768333Y-117506904D01*
X115006428Y-117506904D01*
X115196904Y-117554523D01*
X115292142Y-117602142D01*
X115339761Y-117649761D01*
X115387380Y-117745000D01*
X115387380Y-117840238D01*
X115339761Y-117935476D01*
X115292142Y-117983095D01*
X115196904Y-118030714D01*
X115006428Y-118078333D01*
X114768333Y-118078333D01*
X114577857Y-118030714D01*
X114482619Y-117983095D01*
X114435000Y-117935476D01*
X114387380Y-117840238D01*
X113017380Y-118911666D02*
X112541190Y-119245000D01*
X113017380Y-119483095D02*
X112017380Y-119483095D01*
X112017380Y-119102142D01*
X112065000Y-119006904D01*
X112112619Y-118959285D01*
X112207857Y-118911666D01*
X112350714Y-118911666D01*
X112445952Y-118959285D01*
X112493571Y-119006904D01*
X112541190Y-119102142D01*
X112541190Y-119483095D01*
X113017380Y-117959285D02*
X113017380Y-118530714D01*
X113017380Y-118245000D02*
X112017380Y-118245000D01*
X112160238Y-118340238D01*
X112255476Y-118435476D01*
X112303095Y-118530714D01*
%TO.C,C4*%
X122912142Y-129627142D02*
X122959761Y-129579523D01*
X123007380Y-129627142D01*
X122959761Y-129674761D01*
X122912142Y-129627142D01*
X123007380Y-129627142D01*
X123007380Y-128627142D02*
X123007380Y-129198571D01*
X123007380Y-128912857D02*
X122007380Y-128912857D01*
X122150238Y-129008095D01*
X122245476Y-129103333D01*
X122293095Y-129198571D01*
X122340714Y-127770000D02*
X123007380Y-127770000D01*
X122340714Y-128198571D02*
X122864523Y-128198571D01*
X122959761Y-128150952D01*
X123007380Y-128055714D01*
X123007380Y-127912857D01*
X122959761Y-127817619D01*
X122912142Y-127770000D01*
X122483571Y-126960476D02*
X122483571Y-127293809D01*
X123007380Y-127293809D02*
X122007380Y-127293809D01*
X122007380Y-126817619D01*
X121007142Y-131611666D02*
X121054761Y-131659285D01*
X121102380Y-131802142D01*
X121102380Y-131897380D01*
X121054761Y-132040238D01*
X120959523Y-132135476D01*
X120864285Y-132183095D01*
X120673809Y-132230714D01*
X120530952Y-132230714D01*
X120340476Y-132183095D01*
X120245238Y-132135476D01*
X120150000Y-132040238D01*
X120102380Y-131897380D01*
X120102380Y-131802142D01*
X120150000Y-131659285D01*
X120197619Y-131611666D01*
X120435714Y-130754523D02*
X121102380Y-130754523D01*
X120054761Y-130992619D02*
X120769047Y-131230714D01*
X120769047Y-130611666D01*
%TO.C,UC2*%
X167060952Y-103592380D02*
X167727619Y-103592380D01*
X167299047Y-104592380D01*
X168537142Y-103925714D02*
X168537142Y-104592380D01*
X168299047Y-103544761D02*
X168060952Y-104259047D01*
X168680000Y-104259047D01*
X169537142Y-104592380D02*
X169060952Y-104592380D01*
X169060952Y-103592380D01*
X169822857Y-104544761D02*
X169965714Y-104592380D01*
X170203809Y-104592380D01*
X170299047Y-104544761D01*
X170346666Y-104497142D01*
X170394285Y-104401904D01*
X170394285Y-104306666D01*
X170346666Y-104211428D01*
X170299047Y-104163809D01*
X170203809Y-104116190D01*
X170013333Y-104068571D01*
X169918095Y-104020952D01*
X169870476Y-103973333D01*
X169822857Y-103878095D01*
X169822857Y-103782857D01*
X169870476Y-103687619D01*
X169918095Y-103640000D01*
X170013333Y-103592380D01*
X170251428Y-103592380D01*
X170394285Y-103640000D01*
X170775238Y-103687619D02*
X170822857Y-103640000D01*
X170918095Y-103592380D01*
X171156190Y-103592380D01*
X171251428Y-103640000D01*
X171299047Y-103687619D01*
X171346666Y-103782857D01*
X171346666Y-103878095D01*
X171299047Y-104020952D01*
X170727619Y-104592380D01*
X171346666Y-104592380D01*
X172251428Y-103592380D02*
X171775238Y-103592380D01*
X171727619Y-104068571D01*
X171775238Y-104020952D01*
X171870476Y-103973333D01*
X172108571Y-103973333D01*
X172203809Y-104020952D01*
X172251428Y-104068571D01*
X172299047Y-104163809D01*
X172299047Y-104401904D01*
X172251428Y-104497142D01*
X172203809Y-104544761D01*
X172108571Y-104592380D01*
X171870476Y-104592380D01*
X171775238Y-104544761D01*
X171727619Y-104497142D01*
X172775238Y-104592380D02*
X172965714Y-104592380D01*
X173060952Y-104544761D01*
X173108571Y-104497142D01*
X173203809Y-104354285D01*
X173251428Y-104163809D01*
X173251428Y-103782857D01*
X173203809Y-103687619D01*
X173156190Y-103640000D01*
X173060952Y-103592380D01*
X172870476Y-103592380D01*
X172775238Y-103640000D01*
X172727619Y-103687619D01*
X172680000Y-103782857D01*
X172680000Y-104020952D01*
X172727619Y-104116190D01*
X172775238Y-104163809D01*
X172870476Y-104211428D01*
X173060952Y-104211428D01*
X173156190Y-104163809D01*
X173203809Y-104116190D01*
X173251428Y-104020952D01*
X158412380Y-105401904D02*
X159221904Y-105401904D01*
X159317142Y-105354285D01*
X159364761Y-105306666D01*
X159412380Y-105211428D01*
X159412380Y-105020952D01*
X159364761Y-104925714D01*
X159317142Y-104878095D01*
X159221904Y-104830476D01*
X158412380Y-104830476D01*
X159317142Y-103782857D02*
X159364761Y-103830476D01*
X159412380Y-103973333D01*
X159412380Y-104068571D01*
X159364761Y-104211428D01*
X159269523Y-104306666D01*
X159174285Y-104354285D01*
X158983809Y-104401904D01*
X158840952Y-104401904D01*
X158650476Y-104354285D01*
X158555238Y-104306666D01*
X158460000Y-104211428D01*
X158412380Y-104068571D01*
X158412380Y-103973333D01*
X158460000Y-103830476D01*
X158507619Y-103782857D01*
X158507619Y-103401904D02*
X158460000Y-103354285D01*
X158412380Y-103259047D01*
X158412380Y-103020952D01*
X158460000Y-102925714D01*
X158507619Y-102878095D01*
X158602857Y-102830476D01*
X158698095Y-102830476D01*
X158840952Y-102878095D01*
X159412380Y-103449523D01*
X159412380Y-102830476D01*
%TO.C,UD2*%
X166743333Y-121092380D02*
X166743333Y-120092380D01*
X167314761Y-121092380D01*
X167314761Y-120092380D01*
X167790952Y-120568571D02*
X168124285Y-120568571D01*
X168267142Y-121092380D02*
X167790952Y-121092380D01*
X167790952Y-120092380D01*
X168267142Y-120092380D01*
X169171904Y-120092380D02*
X168695714Y-120092380D01*
X168648095Y-120568571D01*
X168695714Y-120520952D01*
X168790952Y-120473333D01*
X169029047Y-120473333D01*
X169124285Y-120520952D01*
X169171904Y-120568571D01*
X169219523Y-120663809D01*
X169219523Y-120901904D01*
X169171904Y-120997142D01*
X169124285Y-121044761D01*
X169029047Y-121092380D01*
X168790952Y-121092380D01*
X168695714Y-121044761D01*
X168648095Y-120997142D01*
X170124285Y-120092380D02*
X169648095Y-120092380D01*
X169600476Y-120568571D01*
X169648095Y-120520952D01*
X169743333Y-120473333D01*
X169981428Y-120473333D01*
X170076666Y-120520952D01*
X170124285Y-120568571D01*
X170171904Y-120663809D01*
X170171904Y-120901904D01*
X170124285Y-120997142D01*
X170076666Y-121044761D01*
X169981428Y-121092380D01*
X169743333Y-121092380D01*
X169648095Y-121044761D01*
X169600476Y-120997142D01*
X171029047Y-120092380D02*
X170838571Y-120092380D01*
X170743333Y-120140000D01*
X170695714Y-120187619D01*
X170600476Y-120330476D01*
X170552857Y-120520952D01*
X170552857Y-120901904D01*
X170600476Y-120997142D01*
X170648095Y-121044761D01*
X170743333Y-121092380D01*
X170933809Y-121092380D01*
X171029047Y-121044761D01*
X171076666Y-120997142D01*
X171124285Y-120901904D01*
X171124285Y-120663809D01*
X171076666Y-120568571D01*
X171029047Y-120520952D01*
X170933809Y-120473333D01*
X170743333Y-120473333D01*
X170648095Y-120520952D01*
X170600476Y-120568571D01*
X170552857Y-120663809D01*
X158412380Y-121901904D02*
X159221904Y-121901904D01*
X159317142Y-121854285D01*
X159364761Y-121806666D01*
X159412380Y-121711428D01*
X159412380Y-121520952D01*
X159364761Y-121425714D01*
X159317142Y-121378095D01*
X159221904Y-121330476D01*
X158412380Y-121330476D01*
X159412380Y-120854285D02*
X158412380Y-120854285D01*
X158412380Y-120616190D01*
X158460000Y-120473333D01*
X158555238Y-120378095D01*
X158650476Y-120330476D01*
X158840952Y-120282857D01*
X158983809Y-120282857D01*
X159174285Y-120330476D01*
X159269523Y-120378095D01*
X159364761Y-120473333D01*
X159412380Y-120616190D01*
X159412380Y-120854285D01*
X158507619Y-119901904D02*
X158460000Y-119854285D01*
X158412380Y-119759047D01*
X158412380Y-119520952D01*
X158460000Y-119425714D01*
X158507619Y-119378095D01*
X158602857Y-119330476D01*
X158698095Y-119330476D01*
X158840952Y-119378095D01*
X159412380Y-119949523D01*
X159412380Y-119330476D01*
%TO.C,UD3*%
X135152380Y-120197619D02*
X135200000Y-120150000D01*
X135295238Y-120102380D01*
X135533333Y-120102380D01*
X135628571Y-120150000D01*
X135676190Y-120197619D01*
X135723809Y-120292857D01*
X135723809Y-120388095D01*
X135676190Y-120530952D01*
X135104761Y-121102380D01*
X135723809Y-121102380D01*
X136057142Y-120102380D02*
X136723809Y-120102380D01*
X136295238Y-121102380D01*
X137580952Y-120102380D02*
X137104761Y-120102380D01*
X137057142Y-120578571D01*
X137104761Y-120530952D01*
X137200000Y-120483333D01*
X137438095Y-120483333D01*
X137533333Y-120530952D01*
X137580952Y-120578571D01*
X137628571Y-120673809D01*
X137628571Y-120911904D01*
X137580952Y-121007142D01*
X137533333Y-121054761D01*
X137438095Y-121102380D01*
X137200000Y-121102380D01*
X137104761Y-121054761D01*
X137057142Y-121007142D01*
X138200000Y-120530952D02*
X138104761Y-120483333D01*
X138057142Y-120435714D01*
X138009523Y-120340476D01*
X138009523Y-120292857D01*
X138057142Y-120197619D01*
X138104761Y-120150000D01*
X138200000Y-120102380D01*
X138390476Y-120102380D01*
X138485714Y-120150000D01*
X138533333Y-120197619D01*
X138580952Y-120292857D01*
X138580952Y-120340476D01*
X138533333Y-120435714D01*
X138485714Y-120483333D01*
X138390476Y-120530952D01*
X138200000Y-120530952D01*
X138104761Y-120578571D01*
X138057142Y-120626190D01*
X138009523Y-120721428D01*
X138009523Y-120911904D01*
X138057142Y-121007142D01*
X138104761Y-121054761D01*
X138200000Y-121102380D01*
X138390476Y-121102380D01*
X138485714Y-121054761D01*
X138533333Y-121007142D01*
X138580952Y-120911904D01*
X138580952Y-120721428D01*
X138533333Y-120626190D01*
X138485714Y-120578571D01*
X138390476Y-120530952D01*
X139723809Y-120054761D02*
X138866666Y-121340476D01*
X140580952Y-121102380D02*
X140009523Y-121102380D01*
X140295238Y-121102380D02*
X140295238Y-120102380D01*
X140200000Y-120245238D01*
X140104761Y-120340476D01*
X140009523Y-120388095D01*
X141438095Y-120102380D02*
X141247619Y-120102380D01*
X141152380Y-120150000D01*
X141104761Y-120197619D01*
X141009523Y-120340476D01*
X140961904Y-120530952D01*
X140961904Y-120911904D01*
X141009523Y-121007142D01*
X141057142Y-121054761D01*
X141152380Y-121102380D01*
X141342857Y-121102380D01*
X141438095Y-121054761D01*
X141485714Y-121007142D01*
X141533333Y-120911904D01*
X141533333Y-120673809D01*
X141485714Y-120578571D01*
X141438095Y-120530952D01*
X141342857Y-120483333D01*
X141152380Y-120483333D01*
X141057142Y-120530952D01*
X141009523Y-120578571D01*
X140961904Y-120673809D01*
X142723809Y-121102380D02*
X142723809Y-120102380D01*
X143104761Y-120102380D01*
X143200000Y-120150000D01*
X143247619Y-120197619D01*
X143295238Y-120292857D01*
X143295238Y-120435714D01*
X143247619Y-120530952D01*
X143200000Y-120578571D01*
X143104761Y-120626190D01*
X142723809Y-120626190D01*
X144200000Y-120102380D02*
X143723809Y-120102380D01*
X143676190Y-120578571D01*
X143723809Y-120530952D01*
X143819047Y-120483333D01*
X144057142Y-120483333D01*
X144152380Y-120530952D01*
X144200000Y-120578571D01*
X144247619Y-120673809D01*
X144247619Y-120911904D01*
X144200000Y-121007142D01*
X144152380Y-121054761D01*
X144057142Y-121102380D01*
X143819047Y-121102380D01*
X143723809Y-121054761D01*
X143676190Y-121007142D01*
X122852380Y-121911904D02*
X123661904Y-121911904D01*
X123757142Y-121864285D01*
X123804761Y-121816666D01*
X123852380Y-121721428D01*
X123852380Y-121530952D01*
X123804761Y-121435714D01*
X123757142Y-121388095D01*
X123661904Y-121340476D01*
X122852380Y-121340476D01*
X123852380Y-120864285D02*
X122852380Y-120864285D01*
X122852380Y-120626190D01*
X122900000Y-120483333D01*
X122995238Y-120388095D01*
X123090476Y-120340476D01*
X123280952Y-120292857D01*
X123423809Y-120292857D01*
X123614285Y-120340476D01*
X123709523Y-120388095D01*
X123804761Y-120483333D01*
X123852380Y-120626190D01*
X123852380Y-120864285D01*
X122852380Y-119959523D02*
X122852380Y-119340476D01*
X123233333Y-119673809D01*
X123233333Y-119530952D01*
X123280952Y-119435714D01*
X123328571Y-119388095D01*
X123423809Y-119340476D01*
X123661904Y-119340476D01*
X123757142Y-119388095D01*
X123804761Y-119435714D01*
X123852380Y-119530952D01*
X123852380Y-119816666D01*
X123804761Y-119911904D01*
X123757142Y-119959523D01*
%TO.C,C6*%
X203112857Y-128627142D02*
X203160476Y-128674761D01*
X203112857Y-128722380D01*
X203065238Y-128674761D01*
X203112857Y-128627142D01*
X203112857Y-128722380D01*
X204112857Y-128722380D02*
X203541428Y-128722380D01*
X203827142Y-128722380D02*
X203827142Y-127722380D01*
X203731904Y-127865238D01*
X203636666Y-127960476D01*
X203541428Y-128008095D01*
X204970000Y-128055714D02*
X204970000Y-128722380D01*
X204541428Y-128055714D02*
X204541428Y-128579523D01*
X204589047Y-128674761D01*
X204684285Y-128722380D01*
X204827142Y-128722380D01*
X204922380Y-128674761D01*
X204970000Y-128627142D01*
X205779523Y-128198571D02*
X205446190Y-128198571D01*
X205446190Y-128722380D02*
X205446190Y-127722380D01*
X205922380Y-127722380D01*
X204303333Y-130877142D02*
X204255714Y-130924761D01*
X204112857Y-130972380D01*
X204017619Y-130972380D01*
X203874761Y-130924761D01*
X203779523Y-130829523D01*
X203731904Y-130734285D01*
X203684285Y-130543809D01*
X203684285Y-130400952D01*
X203731904Y-130210476D01*
X203779523Y-130115238D01*
X203874761Y-130020000D01*
X204017619Y-129972380D01*
X204112857Y-129972380D01*
X204255714Y-130020000D01*
X204303333Y-130067619D01*
X205160476Y-129972380D02*
X204970000Y-129972380D01*
X204874761Y-130020000D01*
X204827142Y-130067619D01*
X204731904Y-130210476D01*
X204684285Y-130400952D01*
X204684285Y-130781904D01*
X204731904Y-130877142D01*
X204779523Y-130924761D01*
X204874761Y-130972380D01*
X205065238Y-130972380D01*
X205160476Y-130924761D01*
X205208095Y-130877142D01*
X205255714Y-130781904D01*
X205255714Y-130543809D01*
X205208095Y-130448571D01*
X205160476Y-130400952D01*
X205065238Y-130353333D01*
X204874761Y-130353333D01*
X204779523Y-130400952D01*
X204731904Y-130448571D01*
X204684285Y-130543809D01*
%TO.C,Q2*%
X114054285Y-113228380D02*
X114054285Y-112228380D01*
X114387619Y-112942666D01*
X114720952Y-112228380D01*
X114720952Y-113228380D01*
X115197142Y-113228380D02*
X115197142Y-112228380D01*
X115578095Y-112228380D01*
X115673333Y-112276000D01*
X115720952Y-112323619D01*
X115768571Y-112418857D01*
X115768571Y-112561714D01*
X115720952Y-112656952D01*
X115673333Y-112704571D01*
X115578095Y-112752190D01*
X115197142Y-112752190D01*
X116149523Y-113180761D02*
X116292380Y-113228380D01*
X116530476Y-113228380D01*
X116625714Y-113180761D01*
X116673333Y-113133142D01*
X116720952Y-113037904D01*
X116720952Y-112942666D01*
X116673333Y-112847428D01*
X116625714Y-112799809D01*
X116530476Y-112752190D01*
X116340000Y-112704571D01*
X116244761Y-112656952D01*
X116197142Y-112609333D01*
X116149523Y-112514095D01*
X116149523Y-112418857D01*
X116197142Y-112323619D01*
X116244761Y-112276000D01*
X116340000Y-112228380D01*
X116578095Y-112228380D01*
X116720952Y-112276000D01*
X117149523Y-112228380D02*
X117149523Y-113037904D01*
X117197142Y-113133142D01*
X117244761Y-113180761D01*
X117340000Y-113228380D01*
X117530476Y-113228380D01*
X117625714Y-113180761D01*
X117673333Y-113133142D01*
X117720952Y-113037904D01*
X117720952Y-112228380D01*
X118673333Y-112228380D02*
X118197142Y-112228380D01*
X118149523Y-112704571D01*
X118197142Y-112656952D01*
X118292380Y-112609333D01*
X118530476Y-112609333D01*
X118625714Y-112656952D01*
X118673333Y-112704571D01*
X118720952Y-112799809D01*
X118720952Y-113037904D01*
X118673333Y-113133142D01*
X118625714Y-113180761D01*
X118530476Y-113228380D01*
X118292380Y-113228380D01*
X118197142Y-113180761D01*
X118149523Y-113133142D01*
X119673333Y-113228380D02*
X119101904Y-113228380D01*
X119387619Y-113228380D02*
X119387619Y-112228380D01*
X119292380Y-112371238D01*
X119197142Y-112466476D01*
X119101904Y-112514095D01*
X116744761Y-108497619D02*
X116649523Y-108450000D01*
X116554285Y-108354761D01*
X116411428Y-108211904D01*
X116316190Y-108164285D01*
X116220952Y-108164285D01*
X116268571Y-108402380D02*
X116173333Y-108354761D01*
X116078095Y-108259523D01*
X116030476Y-108069047D01*
X116030476Y-107735714D01*
X116078095Y-107545238D01*
X116173333Y-107450000D01*
X116268571Y-107402380D01*
X116459047Y-107402380D01*
X116554285Y-107450000D01*
X116649523Y-107545238D01*
X116697142Y-107735714D01*
X116697142Y-108069047D01*
X116649523Y-108259523D01*
X116554285Y-108354761D01*
X116459047Y-108402380D01*
X116268571Y-108402380D01*
X117078095Y-107497619D02*
X117125714Y-107450000D01*
X117220952Y-107402380D01*
X117459047Y-107402380D01*
X117554285Y-107450000D01*
X117601904Y-107497619D01*
X117649523Y-107592857D01*
X117649523Y-107688095D01*
X117601904Y-107830952D01*
X117030476Y-108402380D01*
X117649523Y-108402380D01*
%TO.C,Q1*%
X114760714Y-129062619D02*
X114808333Y-129015000D01*
X114903571Y-128967380D01*
X115141666Y-128967380D01*
X115236904Y-129015000D01*
X115284523Y-129062619D01*
X115332142Y-129157857D01*
X115332142Y-129253095D01*
X115284523Y-129395952D01*
X114713095Y-129967380D01*
X115332142Y-129967380D01*
X115760714Y-129967380D02*
X115760714Y-128967380D01*
X116332142Y-129967380D01*
X116332142Y-128967380D01*
X116713095Y-128967380D02*
X117332142Y-128967380D01*
X116998809Y-129348333D01*
X117141666Y-129348333D01*
X117236904Y-129395952D01*
X117284523Y-129443571D01*
X117332142Y-129538809D01*
X117332142Y-129776904D01*
X117284523Y-129872142D01*
X117236904Y-129919761D01*
X117141666Y-129967380D01*
X116855952Y-129967380D01*
X116760714Y-129919761D01*
X116713095Y-129872142D01*
X117808333Y-129967380D02*
X117998809Y-129967380D01*
X118094047Y-129919761D01*
X118141666Y-129872142D01*
X118236904Y-129729285D01*
X118284523Y-129538809D01*
X118284523Y-129157857D01*
X118236904Y-129062619D01*
X118189285Y-129015000D01*
X118094047Y-128967380D01*
X117903571Y-128967380D01*
X117808333Y-129015000D01*
X117760714Y-129062619D01*
X117713095Y-129157857D01*
X117713095Y-129395952D01*
X117760714Y-129491190D01*
X117808333Y-129538809D01*
X117903571Y-129586428D01*
X118094047Y-129586428D01*
X118189285Y-129538809D01*
X118236904Y-129491190D01*
X118284523Y-129395952D01*
X118903571Y-128967380D02*
X118998809Y-128967380D01*
X119094047Y-129015000D01*
X119141666Y-129062619D01*
X119189285Y-129157857D01*
X119236904Y-129348333D01*
X119236904Y-129586428D01*
X119189285Y-129776904D01*
X119141666Y-129872142D01*
X119094047Y-129919761D01*
X118998809Y-129967380D01*
X118903571Y-129967380D01*
X118808333Y-129919761D01*
X118760714Y-129872142D01*
X118713095Y-129776904D01*
X118665476Y-129586428D01*
X118665476Y-129348333D01*
X118713095Y-129157857D01*
X118760714Y-129062619D01*
X118808333Y-129015000D01*
X118903571Y-128967380D01*
X120094047Y-128967380D02*
X119903571Y-128967380D01*
X119808333Y-129015000D01*
X119760714Y-129062619D01*
X119665476Y-129205476D01*
X119617857Y-129395952D01*
X119617857Y-129776904D01*
X119665476Y-129872142D01*
X119713095Y-129919761D01*
X119808333Y-129967380D01*
X119998809Y-129967380D01*
X120094047Y-129919761D01*
X120141666Y-129872142D01*
X120189285Y-129776904D01*
X120189285Y-129538809D01*
X120141666Y-129443571D01*
X120094047Y-129395952D01*
X119998809Y-129348333D01*
X119808333Y-129348333D01*
X119713095Y-129395952D01*
X119665476Y-129443571D01*
X119617857Y-129538809D01*
X117379761Y-123737619D02*
X117284523Y-123690000D01*
X117189285Y-123594761D01*
X117046428Y-123451904D01*
X116951190Y-123404285D01*
X116855952Y-123404285D01*
X116903571Y-123642380D02*
X116808333Y-123594761D01*
X116713095Y-123499523D01*
X116665476Y-123309047D01*
X116665476Y-122975714D01*
X116713095Y-122785238D01*
X116808333Y-122690000D01*
X116903571Y-122642380D01*
X117094047Y-122642380D01*
X117189285Y-122690000D01*
X117284523Y-122785238D01*
X117332142Y-122975714D01*
X117332142Y-123309047D01*
X117284523Y-123499523D01*
X117189285Y-123594761D01*
X117094047Y-123642380D01*
X116903571Y-123642380D01*
X118284523Y-123642380D02*
X117713095Y-123642380D01*
X117998809Y-123642380D02*
X117998809Y-122642380D01*
X117903571Y-122785238D01*
X117808333Y-122880476D01*
X117713095Y-122928095D01*
%TO.C,C7*%
X185292857Y-128627142D02*
X185340476Y-128674761D01*
X185292857Y-128722380D01*
X185245238Y-128674761D01*
X185292857Y-128627142D01*
X185292857Y-128722380D01*
X186292857Y-128722380D02*
X185721428Y-128722380D01*
X186007142Y-128722380D02*
X186007142Y-127722380D01*
X185911904Y-127865238D01*
X185816666Y-127960476D01*
X185721428Y-128008095D01*
X187150000Y-128055714D02*
X187150000Y-128722380D01*
X186721428Y-128055714D02*
X186721428Y-128579523D01*
X186769047Y-128674761D01*
X186864285Y-128722380D01*
X187007142Y-128722380D01*
X187102380Y-128674761D01*
X187150000Y-128627142D01*
X187959523Y-128198571D02*
X187626190Y-128198571D01*
X187626190Y-128722380D02*
X187626190Y-127722380D01*
X188102380Y-127722380D01*
X186483333Y-131167142D02*
X186435714Y-131214761D01*
X186292857Y-131262380D01*
X186197619Y-131262380D01*
X186054761Y-131214761D01*
X185959523Y-131119523D01*
X185911904Y-131024285D01*
X185864285Y-130833809D01*
X185864285Y-130690952D01*
X185911904Y-130500476D01*
X185959523Y-130405238D01*
X186054761Y-130310000D01*
X186197619Y-130262380D01*
X186292857Y-130262380D01*
X186435714Y-130310000D01*
X186483333Y-130357619D01*
X186816666Y-130262380D02*
X187483333Y-130262380D01*
X187054761Y-131262380D01*
%TO.C,R5*%
X166854285Y-95670714D02*
X166854285Y-96337380D01*
X166616190Y-95289761D02*
X166378095Y-96004047D01*
X166997142Y-96004047D01*
X167425714Y-96337380D02*
X167616190Y-96337380D01*
X167711428Y-96289761D01*
X167759047Y-96242142D01*
X167854285Y-96099285D01*
X167901904Y-95908809D01*
X167901904Y-95527857D01*
X167854285Y-95432619D01*
X167806666Y-95385000D01*
X167711428Y-95337380D01*
X167520952Y-95337380D01*
X167425714Y-95385000D01*
X167378095Y-95432619D01*
X167330476Y-95527857D01*
X167330476Y-95765952D01*
X167378095Y-95861190D01*
X167425714Y-95908809D01*
X167520952Y-95956428D01*
X167711428Y-95956428D01*
X167806666Y-95908809D01*
X167854285Y-95861190D01*
X167901904Y-95765952D01*
X168330476Y-96337380D02*
X168330476Y-95337380D01*
X168901904Y-96337380D02*
X168473333Y-95765952D01*
X168901904Y-95337380D02*
X168330476Y-95908809D01*
X167473333Y-93797380D02*
X167140000Y-93321190D01*
X166901904Y-93797380D02*
X166901904Y-92797380D01*
X167282857Y-92797380D01*
X167378095Y-92845000D01*
X167425714Y-92892619D01*
X167473333Y-92987857D01*
X167473333Y-93130714D01*
X167425714Y-93225952D01*
X167378095Y-93273571D01*
X167282857Y-93321190D01*
X166901904Y-93321190D01*
X168378095Y-92797380D02*
X167901904Y-92797380D01*
X167854285Y-93273571D01*
X167901904Y-93225952D01*
X167997142Y-93178333D01*
X168235238Y-93178333D01*
X168330476Y-93225952D01*
X168378095Y-93273571D01*
X168425714Y-93368809D01*
X168425714Y-93606904D01*
X168378095Y-93702142D01*
X168330476Y-93749761D01*
X168235238Y-93797380D01*
X167997142Y-93797380D01*
X167901904Y-93749761D01*
X167854285Y-93702142D01*
%TO.C,SW3*%
X128979523Y-74886666D02*
X129455714Y-74886666D01*
X128884285Y-75172380D02*
X129217619Y-74172380D01*
X129550952Y-75172380D01*
X130408095Y-75172380D02*
X129836666Y-75172380D01*
X130122380Y-75172380D02*
X130122380Y-74172380D01*
X130027142Y-74315238D01*
X129931904Y-74410476D01*
X129836666Y-74458095D01*
X131027142Y-74172380D02*
X131122380Y-74172380D01*
X131217619Y-74220000D01*
X131265238Y-74267619D01*
X131312857Y-74362857D01*
X131360476Y-74553333D01*
X131360476Y-74791428D01*
X131312857Y-74981904D01*
X131265238Y-75077142D01*
X131217619Y-75124761D01*
X131122380Y-75172380D01*
X131027142Y-75172380D01*
X130931904Y-75124761D01*
X130884285Y-75077142D01*
X130836666Y-74981904D01*
X130789047Y-74791428D01*
X130789047Y-74553333D01*
X130836666Y-74362857D01*
X130884285Y-74267619D01*
X130931904Y-74220000D01*
X131027142Y-74172380D01*
X128836666Y-65174761D02*
X128979523Y-65222380D01*
X129217619Y-65222380D01*
X129312857Y-65174761D01*
X129360476Y-65127142D01*
X129408095Y-65031904D01*
X129408095Y-64936666D01*
X129360476Y-64841428D01*
X129312857Y-64793809D01*
X129217619Y-64746190D01*
X129027142Y-64698571D01*
X128931904Y-64650952D01*
X128884285Y-64603333D01*
X128836666Y-64508095D01*
X128836666Y-64412857D01*
X128884285Y-64317619D01*
X128931904Y-64270000D01*
X129027142Y-64222380D01*
X129265238Y-64222380D01*
X129408095Y-64270000D01*
X129741428Y-64222380D02*
X129979523Y-65222380D01*
X130170000Y-64508095D01*
X130360476Y-65222380D01*
X130598571Y-64222380D01*
X130884285Y-64222380D02*
X131503333Y-64222380D01*
X131170000Y-64603333D01*
X131312857Y-64603333D01*
X131408095Y-64650952D01*
X131455714Y-64698571D01*
X131503333Y-64793809D01*
X131503333Y-65031904D01*
X131455714Y-65127142D01*
X131408095Y-65174761D01*
X131312857Y-65222380D01*
X131027142Y-65222380D01*
X130931904Y-65174761D01*
X130884285Y-65127142D01*
D12*
%TO.C,J3*%
X182212342Y-94433571D02*
X182212342Y-90623571D01*
X183119485Y-90623571D01*
X183663771Y-90805000D01*
X184026628Y-91167857D01*
X184208057Y-91530714D01*
X184389485Y-92256428D01*
X184389485Y-92800714D01*
X184208057Y-93526428D01*
X184026628Y-93889285D01*
X183663771Y-94252142D01*
X183119485Y-94433571D01*
X182212342Y-94433571D01*
X188199485Y-94433571D02*
X186929485Y-92619285D01*
X186022342Y-94433571D02*
X186022342Y-90623571D01*
X187473771Y-90623571D01*
X187836628Y-90805000D01*
X188018057Y-90986428D01*
X188199485Y-91349285D01*
X188199485Y-91893571D01*
X188018057Y-92256428D01*
X187836628Y-92437857D01*
X187473771Y-92619285D01*
X186022342Y-92619285D01*
X189832342Y-94433571D02*
X189832342Y-90623571D01*
X191102342Y-90623571D02*
X192372342Y-94433571D01*
X193642342Y-90623571D01*
X194912342Y-92437857D02*
X196182342Y-92437857D01*
X196726628Y-94433571D02*
X194912342Y-94433571D01*
X194912342Y-90623571D01*
X196726628Y-90623571D01*
X203258057Y-94433571D02*
X201080914Y-94433571D01*
X202169485Y-94433571D02*
X202169485Y-90623571D01*
X201806628Y-91167857D01*
X201443771Y-91530714D01*
X201080914Y-91712142D01*
D10*
X181062380Y-78438333D02*
X181776666Y-78438333D01*
X181919523Y-78485952D01*
X182014761Y-78581190D01*
X182062380Y-78724047D01*
X182062380Y-78819285D01*
X181062380Y-78057380D02*
X181062380Y-77438333D01*
X181443333Y-77771666D01*
X181443333Y-77628809D01*
X181490952Y-77533571D01*
X181538571Y-77485952D01*
X181633809Y-77438333D01*
X181871904Y-77438333D01*
X181967142Y-77485952D01*
X182014761Y-77533571D01*
X182062380Y-77628809D01*
X182062380Y-77914523D01*
X182014761Y-78009761D01*
X181967142Y-78057380D01*
%TO.C,SW1*%
X115485714Y-74886666D02*
X115961904Y-74886666D01*
X115390476Y-75172380D02*
X115723809Y-74172380D01*
X116057142Y-75172380D01*
X116533333Y-74600952D02*
X116438095Y-74553333D01*
X116390476Y-74505714D01*
X116342857Y-74410476D01*
X116342857Y-74362857D01*
X116390476Y-74267619D01*
X116438095Y-74220000D01*
X116533333Y-74172380D01*
X116723809Y-74172380D01*
X116819047Y-74220000D01*
X116866666Y-74267619D01*
X116914285Y-74362857D01*
X116914285Y-74410476D01*
X116866666Y-74505714D01*
X116819047Y-74553333D01*
X116723809Y-74600952D01*
X116533333Y-74600952D01*
X116438095Y-74648571D01*
X116390476Y-74696190D01*
X116342857Y-74791428D01*
X116342857Y-74981904D01*
X116390476Y-75077142D01*
X116438095Y-75124761D01*
X116533333Y-75172380D01*
X116723809Y-75172380D01*
X116819047Y-75124761D01*
X116866666Y-75077142D01*
X116914285Y-74981904D01*
X116914285Y-74791428D01*
X116866666Y-74696190D01*
X116819047Y-74648571D01*
X116723809Y-74600952D01*
X114866666Y-65174761D02*
X115009523Y-65222380D01*
X115247619Y-65222380D01*
X115342857Y-65174761D01*
X115390476Y-65127142D01*
X115438095Y-65031904D01*
X115438095Y-64936666D01*
X115390476Y-64841428D01*
X115342857Y-64793809D01*
X115247619Y-64746190D01*
X115057142Y-64698571D01*
X114961904Y-64650952D01*
X114914285Y-64603333D01*
X114866666Y-64508095D01*
X114866666Y-64412857D01*
X114914285Y-64317619D01*
X114961904Y-64270000D01*
X115057142Y-64222380D01*
X115295238Y-64222380D01*
X115438095Y-64270000D01*
X115771428Y-64222380D02*
X116009523Y-65222380D01*
X116200000Y-64508095D01*
X116390476Y-65222380D01*
X116628571Y-64222380D01*
X117533333Y-65222380D02*
X116961904Y-65222380D01*
X117247619Y-65222380D02*
X117247619Y-64222380D01*
X117152380Y-64365238D01*
X117057142Y-64460476D01*
X116961904Y-64508095D01*
%TO.C,UA2*%
X165790952Y-70572380D02*
X166457619Y-70572380D01*
X166029047Y-71572380D01*
X167267142Y-70905714D02*
X167267142Y-71572380D01*
X167029047Y-70524761D02*
X166790952Y-71239047D01*
X167410000Y-71239047D01*
X168267142Y-71572380D02*
X167790952Y-71572380D01*
X167790952Y-70572380D01*
X168552857Y-71524761D02*
X168695714Y-71572380D01*
X168933809Y-71572380D01*
X169029047Y-71524761D01*
X169076666Y-71477142D01*
X169124285Y-71381904D01*
X169124285Y-71286666D01*
X169076666Y-71191428D01*
X169029047Y-71143809D01*
X168933809Y-71096190D01*
X168743333Y-71048571D01*
X168648095Y-71000952D01*
X168600476Y-70953333D01*
X168552857Y-70858095D01*
X168552857Y-70762857D01*
X168600476Y-70667619D01*
X168648095Y-70620000D01*
X168743333Y-70572380D01*
X168981428Y-70572380D01*
X169124285Y-70620000D01*
X170076666Y-71572380D02*
X169505238Y-71572380D01*
X169790952Y-71572380D02*
X169790952Y-70572380D01*
X169695714Y-70715238D01*
X169600476Y-70810476D01*
X169505238Y-70858095D01*
X170410000Y-70572380D02*
X171029047Y-70572380D01*
X170695714Y-70953333D01*
X170838571Y-70953333D01*
X170933809Y-71000952D01*
X170981428Y-71048571D01*
X171029047Y-71143809D01*
X171029047Y-71381904D01*
X170981428Y-71477142D01*
X170933809Y-71524761D01*
X170838571Y-71572380D01*
X170552857Y-71572380D01*
X170457619Y-71524761D01*
X170410000Y-71477142D01*
X171410000Y-70667619D02*
X171457619Y-70620000D01*
X171552857Y-70572380D01*
X171790952Y-70572380D01*
X171886190Y-70620000D01*
X171933809Y-70667619D01*
X171981428Y-70762857D01*
X171981428Y-70858095D01*
X171933809Y-71000952D01*
X171362380Y-71572380D01*
X171981428Y-71572380D01*
X158412380Y-72310476D02*
X159221904Y-72310476D01*
X159317142Y-72262857D01*
X159364761Y-72215238D01*
X159412380Y-72120000D01*
X159412380Y-71929523D01*
X159364761Y-71834285D01*
X159317142Y-71786666D01*
X159221904Y-71739047D01*
X158412380Y-71739047D01*
X159126666Y-71310476D02*
X159126666Y-70834285D01*
X159412380Y-71405714D02*
X158412380Y-71072380D01*
X159412380Y-70739047D01*
X158507619Y-70453333D02*
X158460000Y-70405714D01*
X158412380Y-70310476D01*
X158412380Y-70072380D01*
X158460000Y-69977142D01*
X158507619Y-69929523D01*
X158602857Y-69881904D01*
X158698095Y-69881904D01*
X158840952Y-69929523D01*
X159412380Y-70500952D01*
X159412380Y-69881904D01*
%TO.C,UC3*%
X139120952Y-103592380D02*
X139787619Y-103592380D01*
X139359047Y-104592380D01*
X140597142Y-103925714D02*
X140597142Y-104592380D01*
X140359047Y-103544761D02*
X140120952Y-104259047D01*
X140740000Y-104259047D01*
X141597142Y-104592380D02*
X141120952Y-104592380D01*
X141120952Y-103592380D01*
X141882857Y-104544761D02*
X142025714Y-104592380D01*
X142263809Y-104592380D01*
X142359047Y-104544761D01*
X142406666Y-104497142D01*
X142454285Y-104401904D01*
X142454285Y-104306666D01*
X142406666Y-104211428D01*
X142359047Y-104163809D01*
X142263809Y-104116190D01*
X142073333Y-104068571D01*
X141978095Y-104020952D01*
X141930476Y-103973333D01*
X141882857Y-103878095D01*
X141882857Y-103782857D01*
X141930476Y-103687619D01*
X141978095Y-103640000D01*
X142073333Y-103592380D01*
X142311428Y-103592380D01*
X142454285Y-103640000D01*
X142787619Y-103592380D02*
X143406666Y-103592380D01*
X143073333Y-103973333D01*
X143216190Y-103973333D01*
X143311428Y-104020952D01*
X143359047Y-104068571D01*
X143406666Y-104163809D01*
X143406666Y-104401904D01*
X143359047Y-104497142D01*
X143311428Y-104544761D01*
X143216190Y-104592380D01*
X142930476Y-104592380D01*
X142835238Y-104544761D01*
X142787619Y-104497142D01*
X143787619Y-103687619D02*
X143835238Y-103640000D01*
X143930476Y-103592380D01*
X144168571Y-103592380D01*
X144263809Y-103640000D01*
X144311428Y-103687619D01*
X144359047Y-103782857D01*
X144359047Y-103878095D01*
X144311428Y-104020952D01*
X143740000Y-104592380D01*
X144359047Y-104592380D01*
X144692380Y-103592380D02*
X145311428Y-103592380D01*
X144978095Y-103973333D01*
X145120952Y-103973333D01*
X145216190Y-104020952D01*
X145263809Y-104068571D01*
X145311428Y-104163809D01*
X145311428Y-104401904D01*
X145263809Y-104497142D01*
X145216190Y-104544761D01*
X145120952Y-104592380D01*
X144835238Y-104592380D01*
X144740000Y-104544761D01*
X144692380Y-104497142D01*
X127722380Y-100956904D02*
X128531904Y-100956904D01*
X128627142Y-100909285D01*
X128674761Y-100861666D01*
X128722380Y-100766428D01*
X128722380Y-100575952D01*
X128674761Y-100480714D01*
X128627142Y-100433095D01*
X128531904Y-100385476D01*
X127722380Y-100385476D01*
X128627142Y-99337857D02*
X128674761Y-99385476D01*
X128722380Y-99528333D01*
X128722380Y-99623571D01*
X128674761Y-99766428D01*
X128579523Y-99861666D01*
X128484285Y-99909285D01*
X128293809Y-99956904D01*
X128150952Y-99956904D01*
X127960476Y-99909285D01*
X127865238Y-99861666D01*
X127770000Y-99766428D01*
X127722380Y-99623571D01*
X127722380Y-99528333D01*
X127770000Y-99385476D01*
X127817619Y-99337857D01*
X127722380Y-99004523D02*
X127722380Y-98385476D01*
X128103333Y-98718809D01*
X128103333Y-98575952D01*
X128150952Y-98480714D01*
X128198571Y-98433095D01*
X128293809Y-98385476D01*
X128531904Y-98385476D01*
X128627142Y-98433095D01*
X128674761Y-98480714D01*
X128722380Y-98575952D01*
X128722380Y-98861666D01*
X128674761Y-98956904D01*
X128627142Y-99004523D01*
%TO.C,UB3*%
X135152380Y-87177619D02*
X135200000Y-87130000D01*
X135295238Y-87082380D01*
X135533333Y-87082380D01*
X135628571Y-87130000D01*
X135676190Y-87177619D01*
X135723809Y-87272857D01*
X135723809Y-87368095D01*
X135676190Y-87510952D01*
X135104761Y-88082380D01*
X135723809Y-88082380D01*
X136057142Y-87082380D02*
X136723809Y-87082380D01*
X136295238Y-88082380D01*
X137580952Y-87082380D02*
X137104761Y-87082380D01*
X137057142Y-87558571D01*
X137104761Y-87510952D01*
X137200000Y-87463333D01*
X137438095Y-87463333D01*
X137533333Y-87510952D01*
X137580952Y-87558571D01*
X137628571Y-87653809D01*
X137628571Y-87891904D01*
X137580952Y-87987142D01*
X137533333Y-88034761D01*
X137438095Y-88082380D01*
X137200000Y-88082380D01*
X137104761Y-88034761D01*
X137057142Y-87987142D01*
X138200000Y-87510952D02*
X138104761Y-87463333D01*
X138057142Y-87415714D01*
X138009523Y-87320476D01*
X138009523Y-87272857D01*
X138057142Y-87177619D01*
X138104761Y-87130000D01*
X138200000Y-87082380D01*
X138390476Y-87082380D01*
X138485714Y-87130000D01*
X138533333Y-87177619D01*
X138580952Y-87272857D01*
X138580952Y-87320476D01*
X138533333Y-87415714D01*
X138485714Y-87463333D01*
X138390476Y-87510952D01*
X138200000Y-87510952D01*
X138104761Y-87558571D01*
X138057142Y-87606190D01*
X138009523Y-87701428D01*
X138009523Y-87891904D01*
X138057142Y-87987142D01*
X138104761Y-88034761D01*
X138200000Y-88082380D01*
X138390476Y-88082380D01*
X138485714Y-88034761D01*
X138533333Y-87987142D01*
X138580952Y-87891904D01*
X138580952Y-87701428D01*
X138533333Y-87606190D01*
X138485714Y-87558571D01*
X138390476Y-87510952D01*
X139723809Y-87034761D02*
X138866666Y-88320476D01*
X140580952Y-88082380D02*
X140009523Y-88082380D01*
X140295238Y-88082380D02*
X140295238Y-87082380D01*
X140200000Y-87225238D01*
X140104761Y-87320476D01*
X140009523Y-87368095D01*
X141438095Y-87082380D02*
X141247619Y-87082380D01*
X141152380Y-87130000D01*
X141104761Y-87177619D01*
X141009523Y-87320476D01*
X140961904Y-87510952D01*
X140961904Y-87891904D01*
X141009523Y-87987142D01*
X141057142Y-88034761D01*
X141152380Y-88082380D01*
X141342857Y-88082380D01*
X141438095Y-88034761D01*
X141485714Y-87987142D01*
X141533333Y-87891904D01*
X141533333Y-87653809D01*
X141485714Y-87558571D01*
X141438095Y-87510952D01*
X141342857Y-87463333D01*
X141152380Y-87463333D01*
X141057142Y-87510952D01*
X141009523Y-87558571D01*
X140961904Y-87653809D01*
X142723809Y-88082380D02*
X142723809Y-87082380D01*
X143104761Y-87082380D01*
X143200000Y-87130000D01*
X143247619Y-87177619D01*
X143295238Y-87272857D01*
X143295238Y-87415714D01*
X143247619Y-87510952D01*
X143200000Y-87558571D01*
X143104761Y-87606190D01*
X142723809Y-87606190D01*
X144152380Y-87082380D02*
X143961904Y-87082380D01*
X143866666Y-87130000D01*
X143819047Y-87177619D01*
X143723809Y-87320476D01*
X143676190Y-87510952D01*
X143676190Y-87891904D01*
X143723809Y-87987142D01*
X143771428Y-88034761D01*
X143866666Y-88082380D01*
X144057142Y-88082380D01*
X144152380Y-88034761D01*
X144200000Y-87987142D01*
X144247619Y-87891904D01*
X144247619Y-87653809D01*
X144200000Y-87558571D01*
X144152380Y-87510952D01*
X144057142Y-87463333D01*
X143866666Y-87463333D01*
X143771428Y-87510952D01*
X143723809Y-87558571D01*
X143676190Y-87653809D01*
X122857380Y-88891904D02*
X123666904Y-88891904D01*
X123762142Y-88844285D01*
X123809761Y-88796666D01*
X123857380Y-88701428D01*
X123857380Y-88510952D01*
X123809761Y-88415714D01*
X123762142Y-88368095D01*
X123666904Y-88320476D01*
X122857380Y-88320476D01*
X123333571Y-87510952D02*
X123381190Y-87368095D01*
X123428809Y-87320476D01*
X123524047Y-87272857D01*
X123666904Y-87272857D01*
X123762142Y-87320476D01*
X123809761Y-87368095D01*
X123857380Y-87463333D01*
X123857380Y-87844285D01*
X122857380Y-87844285D01*
X122857380Y-87510952D01*
X122905000Y-87415714D01*
X122952619Y-87368095D01*
X123047857Y-87320476D01*
X123143095Y-87320476D01*
X123238333Y-87368095D01*
X123285952Y-87415714D01*
X123333571Y-87510952D01*
X123333571Y-87844285D01*
X122857380Y-86939523D02*
X122857380Y-86320476D01*
X123238333Y-86653809D01*
X123238333Y-86510952D01*
X123285952Y-86415714D01*
X123333571Y-86368095D01*
X123428809Y-86320476D01*
X123666904Y-86320476D01*
X123762142Y-86368095D01*
X123809761Y-86415714D01*
X123857380Y-86510952D01*
X123857380Y-86796666D01*
X123809761Y-86891904D01*
X123762142Y-86939523D01*
%TO.C,C3*%
X194222857Y-128627142D02*
X194270476Y-128674761D01*
X194222857Y-128722380D01*
X194175238Y-128674761D01*
X194222857Y-128627142D01*
X194222857Y-128722380D01*
X195222857Y-128722380D02*
X194651428Y-128722380D01*
X194937142Y-128722380D02*
X194937142Y-127722380D01*
X194841904Y-127865238D01*
X194746666Y-127960476D01*
X194651428Y-128008095D01*
X196080000Y-128055714D02*
X196080000Y-128722380D01*
X195651428Y-128055714D02*
X195651428Y-128579523D01*
X195699047Y-128674761D01*
X195794285Y-128722380D01*
X195937142Y-128722380D01*
X196032380Y-128674761D01*
X196080000Y-128627142D01*
X196889523Y-128198571D02*
X196556190Y-128198571D01*
X196556190Y-128722380D02*
X196556190Y-127722380D01*
X197032380Y-127722380D01*
X195413333Y-130877142D02*
X195365714Y-130924761D01*
X195222857Y-130972380D01*
X195127619Y-130972380D01*
X194984761Y-130924761D01*
X194889523Y-130829523D01*
X194841904Y-130734285D01*
X194794285Y-130543809D01*
X194794285Y-130400952D01*
X194841904Y-130210476D01*
X194889523Y-130115238D01*
X194984761Y-130020000D01*
X195127619Y-129972380D01*
X195222857Y-129972380D01*
X195365714Y-130020000D01*
X195413333Y-130067619D01*
X195746666Y-129972380D02*
X196365714Y-129972380D01*
X196032380Y-130353333D01*
X196175238Y-130353333D01*
X196270476Y-130400952D01*
X196318095Y-130448571D01*
X196365714Y-130543809D01*
X196365714Y-130781904D01*
X196318095Y-130877142D01*
X196270476Y-130924761D01*
X196175238Y-130972380D01*
X195889523Y-130972380D01*
X195794285Y-130924761D01*
X195746666Y-130877142D01*
%TO.C,R6*%
X118030714Y-76922380D02*
X117554523Y-76922380D01*
X117506904Y-77398571D01*
X117554523Y-77350952D01*
X117649761Y-77303333D01*
X117887857Y-77303333D01*
X117983095Y-77350952D01*
X118030714Y-77398571D01*
X118078333Y-77493809D01*
X118078333Y-77731904D01*
X118030714Y-77827142D01*
X117983095Y-77874761D01*
X117887857Y-77922380D01*
X117649761Y-77922380D01*
X117554523Y-77874761D01*
X117506904Y-77827142D01*
X118935476Y-76922380D02*
X118745000Y-76922380D01*
X118649761Y-76970000D01*
X118602142Y-77017619D01*
X118506904Y-77160476D01*
X118459285Y-77350952D01*
X118459285Y-77731904D01*
X118506904Y-77827142D01*
X118554523Y-77874761D01*
X118649761Y-77922380D01*
X118840238Y-77922380D01*
X118935476Y-77874761D01*
X118983095Y-77827142D01*
X119030714Y-77731904D01*
X119030714Y-77493809D01*
X118983095Y-77398571D01*
X118935476Y-77350952D01*
X118840238Y-77303333D01*
X118649761Y-77303333D01*
X118554523Y-77350952D01*
X118506904Y-77398571D01*
X118459285Y-77493809D01*
X119649761Y-76922380D02*
X119745000Y-76922380D01*
X119840238Y-76970000D01*
X119887857Y-77017619D01*
X119935476Y-77112857D01*
X119983095Y-77303333D01*
X119983095Y-77541428D01*
X119935476Y-77731904D01*
X119887857Y-77827142D01*
X119840238Y-77874761D01*
X119745000Y-77922380D01*
X119649761Y-77922380D01*
X119554523Y-77874761D01*
X119506904Y-77827142D01*
X119459285Y-77731904D01*
X119411666Y-77541428D01*
X119411666Y-77303333D01*
X119459285Y-77112857D01*
X119506904Y-77017619D01*
X119554523Y-76970000D01*
X119649761Y-76922380D01*
X118578333Y-75552380D02*
X118245000Y-75076190D01*
X118006904Y-75552380D02*
X118006904Y-74552380D01*
X118387857Y-74552380D01*
X118483095Y-74600000D01*
X118530714Y-74647619D01*
X118578333Y-74742857D01*
X118578333Y-74885714D01*
X118530714Y-74980952D01*
X118483095Y-75028571D01*
X118387857Y-75076190D01*
X118006904Y-75076190D01*
X119435476Y-74552380D02*
X119245000Y-74552380D01*
X119149761Y-74600000D01*
X119102142Y-74647619D01*
X119006904Y-74790476D01*
X118959285Y-74980952D01*
X118959285Y-75361904D01*
X119006904Y-75457142D01*
X119054523Y-75504761D01*
X119149761Y-75552380D01*
X119340238Y-75552380D01*
X119435476Y-75504761D01*
X119483095Y-75457142D01*
X119530714Y-75361904D01*
X119530714Y-75123809D01*
X119483095Y-75028571D01*
X119435476Y-74980952D01*
X119340238Y-74933333D01*
X119149761Y-74933333D01*
X119054523Y-74980952D01*
X119006904Y-75028571D01*
X118959285Y-75123809D01*
%TO.C,Q3*%
X114054285Y-85796380D02*
X114054285Y-84796380D01*
X114387619Y-85510666D01*
X114720952Y-84796380D01*
X114720952Y-85796380D01*
X115197142Y-85796380D02*
X115197142Y-84796380D01*
X115578095Y-84796380D01*
X115673333Y-84844000D01*
X115720952Y-84891619D01*
X115768571Y-84986857D01*
X115768571Y-85129714D01*
X115720952Y-85224952D01*
X115673333Y-85272571D01*
X115578095Y-85320190D01*
X115197142Y-85320190D01*
X116149523Y-85748761D02*
X116292380Y-85796380D01*
X116530476Y-85796380D01*
X116625714Y-85748761D01*
X116673333Y-85701142D01*
X116720952Y-85605904D01*
X116720952Y-85510666D01*
X116673333Y-85415428D01*
X116625714Y-85367809D01*
X116530476Y-85320190D01*
X116340000Y-85272571D01*
X116244761Y-85224952D01*
X116197142Y-85177333D01*
X116149523Y-85082095D01*
X116149523Y-84986857D01*
X116197142Y-84891619D01*
X116244761Y-84844000D01*
X116340000Y-84796380D01*
X116578095Y-84796380D01*
X116720952Y-84844000D01*
X117149523Y-84796380D02*
X117149523Y-85605904D01*
X117197142Y-85701142D01*
X117244761Y-85748761D01*
X117340000Y-85796380D01*
X117530476Y-85796380D01*
X117625714Y-85748761D01*
X117673333Y-85701142D01*
X117720952Y-85605904D01*
X117720952Y-84796380D01*
X118673333Y-84796380D02*
X118197142Y-84796380D01*
X118149523Y-85272571D01*
X118197142Y-85224952D01*
X118292380Y-85177333D01*
X118530476Y-85177333D01*
X118625714Y-85224952D01*
X118673333Y-85272571D01*
X118720952Y-85367809D01*
X118720952Y-85605904D01*
X118673333Y-85701142D01*
X118625714Y-85748761D01*
X118530476Y-85796380D01*
X118292380Y-85796380D01*
X118197142Y-85748761D01*
X118149523Y-85701142D01*
X119673333Y-85796380D02*
X119101904Y-85796380D01*
X119387619Y-85796380D02*
X119387619Y-84796380D01*
X119292380Y-84939238D01*
X119197142Y-85034476D01*
X119101904Y-85082095D01*
X116744761Y-81192619D02*
X116649523Y-81145000D01*
X116554285Y-81049761D01*
X116411428Y-80906904D01*
X116316190Y-80859285D01*
X116220952Y-80859285D01*
X116268571Y-81097380D02*
X116173333Y-81049761D01*
X116078095Y-80954523D01*
X116030476Y-80764047D01*
X116030476Y-80430714D01*
X116078095Y-80240238D01*
X116173333Y-80145000D01*
X116268571Y-80097380D01*
X116459047Y-80097380D01*
X116554285Y-80145000D01*
X116649523Y-80240238D01*
X116697142Y-80430714D01*
X116697142Y-80764047D01*
X116649523Y-80954523D01*
X116554285Y-81049761D01*
X116459047Y-81097380D01*
X116268571Y-81097380D01*
X117030476Y-80097380D02*
X117649523Y-80097380D01*
X117316190Y-80478333D01*
X117459047Y-80478333D01*
X117554285Y-80525952D01*
X117601904Y-80573571D01*
X117649523Y-80668809D01*
X117649523Y-80906904D01*
X117601904Y-81002142D01*
X117554285Y-81049761D01*
X117459047Y-81097380D01*
X117173333Y-81097380D01*
X117078095Y-81049761D01*
X117030476Y-81002142D01*
%TO.C,C5*%
X119737142Y-118959142D02*
X119784761Y-118911523D01*
X119832380Y-118959142D01*
X119784761Y-119006761D01*
X119737142Y-118959142D01*
X119832380Y-118959142D01*
X119832380Y-117959142D02*
X119832380Y-118530571D01*
X119832380Y-118244857D02*
X118832380Y-118244857D01*
X118975238Y-118340095D01*
X119070476Y-118435333D01*
X119118095Y-118530571D01*
X119165714Y-117102000D02*
X119832380Y-117102000D01*
X119165714Y-117530571D02*
X119689523Y-117530571D01*
X119784761Y-117482952D01*
X119832380Y-117387714D01*
X119832380Y-117244857D01*
X119784761Y-117149619D01*
X119737142Y-117102000D01*
X119308571Y-116292476D02*
X119308571Y-116625809D01*
X119832380Y-116625809D02*
X118832380Y-116625809D01*
X118832380Y-116149619D01*
X117832142Y-117768666D02*
X117879761Y-117816285D01*
X117927380Y-117959142D01*
X117927380Y-118054380D01*
X117879761Y-118197238D01*
X117784523Y-118292476D01*
X117689285Y-118340095D01*
X117498809Y-118387714D01*
X117355952Y-118387714D01*
X117165476Y-118340095D01*
X117070238Y-118292476D01*
X116975000Y-118197238D01*
X116927380Y-118054380D01*
X116927380Y-117959142D01*
X116975000Y-117816285D01*
X117022619Y-117768666D01*
X116927380Y-116863904D02*
X116927380Y-117340095D01*
X117403571Y-117387714D01*
X117355952Y-117340095D01*
X117308333Y-117244857D01*
X117308333Y-117006761D01*
X117355952Y-116911523D01*
X117403571Y-116863904D01*
X117498809Y-116816285D01*
X117736904Y-116816285D01*
X117832142Y-116863904D01*
X117879761Y-116911523D01*
X117927380Y-117006761D01*
X117927380Y-117244857D01*
X117879761Y-117340095D01*
X117832142Y-117387714D01*
%TO.C,UA3*%
X141660952Y-70572380D02*
X142327619Y-70572380D01*
X141899047Y-71572380D01*
X143137142Y-70905714D02*
X143137142Y-71572380D01*
X142899047Y-70524761D02*
X142660952Y-71239047D01*
X143280000Y-71239047D01*
X144137142Y-71572380D02*
X143660952Y-71572380D01*
X143660952Y-70572380D01*
X144422857Y-71524761D02*
X144565714Y-71572380D01*
X144803809Y-71572380D01*
X144899047Y-71524761D01*
X144946666Y-71477142D01*
X144994285Y-71381904D01*
X144994285Y-71286666D01*
X144946666Y-71191428D01*
X144899047Y-71143809D01*
X144803809Y-71096190D01*
X144613333Y-71048571D01*
X144518095Y-71000952D01*
X144470476Y-70953333D01*
X144422857Y-70858095D01*
X144422857Y-70762857D01*
X144470476Y-70667619D01*
X144518095Y-70620000D01*
X144613333Y-70572380D01*
X144851428Y-70572380D01*
X144994285Y-70620000D01*
X145946666Y-71572380D02*
X145375238Y-71572380D01*
X145660952Y-71572380D02*
X145660952Y-70572380D01*
X145565714Y-70715238D01*
X145470476Y-70810476D01*
X145375238Y-70858095D01*
X146280000Y-70572380D02*
X146946666Y-70572380D01*
X146518095Y-71572380D01*
X147756190Y-70905714D02*
X147756190Y-71572380D01*
X147518095Y-70524761D02*
X147280000Y-71239047D01*
X147899047Y-71239047D01*
X134699523Y-64857380D02*
X134699523Y-65666904D01*
X134747142Y-65762142D01*
X134794761Y-65809761D01*
X134890000Y-65857380D01*
X135080476Y-65857380D01*
X135175714Y-65809761D01*
X135223333Y-65762142D01*
X135270952Y-65666904D01*
X135270952Y-64857380D01*
X135699523Y-65571666D02*
X136175714Y-65571666D01*
X135604285Y-65857380D02*
X135937619Y-64857380D01*
X136270952Y-65857380D01*
X136509047Y-64857380D02*
X137128095Y-64857380D01*
X136794761Y-65238333D01*
X136937619Y-65238333D01*
X137032857Y-65285952D01*
X137080476Y-65333571D01*
X137128095Y-65428809D01*
X137128095Y-65666904D01*
X137080476Y-65762142D01*
X137032857Y-65809761D01*
X136937619Y-65857380D01*
X136651904Y-65857380D01*
X136556666Y-65809761D01*
X136509047Y-65762142D01*
%TO.C,C2*%
X117487619Y-104610206D02*
X117440000Y-104562587D01*
X117392380Y-104467349D01*
X117392380Y-104229253D01*
X117440000Y-104134015D01*
X117487619Y-104086396D01*
X117582857Y-104038777D01*
X117678095Y-104038777D01*
X117820952Y-104086396D01*
X118392380Y-104657825D01*
X118392380Y-104038777D01*
X117487619Y-103657825D02*
X117440000Y-103610206D01*
X117392380Y-103514968D01*
X117392380Y-103276872D01*
X117440000Y-103181634D01*
X117487619Y-103134015D01*
X117582857Y-103086396D01*
X117678095Y-103086396D01*
X117820952Y-103134015D01*
X118392380Y-103705444D01*
X118392380Y-103086396D01*
X117725714Y-102229253D02*
X118392380Y-102229253D01*
X117725714Y-102657825D02*
X118249523Y-102657825D01*
X118344761Y-102610206D01*
X118392380Y-102514968D01*
X118392380Y-102372110D01*
X118344761Y-102276872D01*
X118297142Y-102229253D01*
X117868571Y-101419729D02*
X117868571Y-101753063D01*
X118392380Y-101753063D02*
X117392380Y-101753063D01*
X117392380Y-101276872D01*
X123023333Y-98147142D02*
X122975714Y-98194761D01*
X122832857Y-98242380D01*
X122737619Y-98242380D01*
X122594761Y-98194761D01*
X122499523Y-98099523D01*
X122451904Y-98004285D01*
X122404285Y-97813809D01*
X122404285Y-97670952D01*
X122451904Y-97480476D01*
X122499523Y-97385238D01*
X122594761Y-97290000D01*
X122737619Y-97242380D01*
X122832857Y-97242380D01*
X122975714Y-97290000D01*
X123023333Y-97337619D01*
X123404285Y-97337619D02*
X123451904Y-97290000D01*
X123547142Y-97242380D01*
X123785238Y-97242380D01*
X123880476Y-97290000D01*
X123928095Y-97337619D01*
X123975714Y-97432857D01*
X123975714Y-97528095D01*
X123928095Y-97670952D01*
X123356666Y-98242380D01*
X123975714Y-98242380D01*
D12*
%TO.C,J2*%
X182212342Y-106498571D02*
X182212342Y-102688571D01*
X183119485Y-102688571D01*
X183663771Y-102870000D01*
X184026628Y-103232857D01*
X184208057Y-103595714D01*
X184389485Y-104321428D01*
X184389485Y-104865714D01*
X184208057Y-105591428D01*
X184026628Y-105954285D01*
X183663771Y-106317142D01*
X183119485Y-106498571D01*
X182212342Y-106498571D01*
X188199485Y-106498571D02*
X186929485Y-104684285D01*
X186022342Y-106498571D02*
X186022342Y-102688571D01*
X187473771Y-102688571D01*
X187836628Y-102870000D01*
X188018057Y-103051428D01*
X188199485Y-103414285D01*
X188199485Y-103958571D01*
X188018057Y-104321428D01*
X187836628Y-104502857D01*
X187473771Y-104684285D01*
X186022342Y-104684285D01*
X189832342Y-106498571D02*
X189832342Y-102688571D01*
X191102342Y-102688571D02*
X192372342Y-106498571D01*
X193642342Y-102688571D01*
X194912342Y-104502857D02*
X196182342Y-104502857D01*
X196726628Y-106498571D02*
X194912342Y-106498571D01*
X194912342Y-102688571D01*
X196726628Y-102688571D01*
X201080914Y-103051428D02*
X201262342Y-102870000D01*
X201625200Y-102688571D01*
X202532342Y-102688571D01*
X202895200Y-102870000D01*
X203076628Y-103051428D01*
X203258057Y-103414285D01*
X203258057Y-103777142D01*
X203076628Y-104321428D01*
X200899485Y-106498571D01*
X203258057Y-106498571D01*
D10*
X181062380Y-119078333D02*
X181776666Y-119078333D01*
X181919523Y-119125952D01*
X182014761Y-119221190D01*
X182062380Y-119364047D01*
X182062380Y-119459285D01*
X181157619Y-118649761D02*
X181110000Y-118602142D01*
X181062380Y-118506904D01*
X181062380Y-118268809D01*
X181110000Y-118173571D01*
X181157619Y-118125952D01*
X181252857Y-118078333D01*
X181348095Y-118078333D01*
X181490952Y-118125952D01*
X182062380Y-118697380D01*
X182062380Y-118078333D01*
%TO.C,SW2*%
X122470714Y-74886666D02*
X122946904Y-74886666D01*
X122375476Y-75172380D02*
X122708809Y-74172380D01*
X123042142Y-75172380D01*
X123423095Y-75172380D02*
X123613571Y-75172380D01*
X123708809Y-75124761D01*
X123756428Y-75077142D01*
X123851666Y-74934285D01*
X123899285Y-74743809D01*
X123899285Y-74362857D01*
X123851666Y-74267619D01*
X123804047Y-74220000D01*
X123708809Y-74172380D01*
X123518333Y-74172380D01*
X123423095Y-74220000D01*
X123375476Y-74267619D01*
X123327857Y-74362857D01*
X123327857Y-74600952D01*
X123375476Y-74696190D01*
X123423095Y-74743809D01*
X123518333Y-74791428D01*
X123708809Y-74791428D01*
X123804047Y-74743809D01*
X123851666Y-74696190D01*
X123899285Y-74600952D01*
X121851666Y-65174761D02*
X121994523Y-65222380D01*
X122232619Y-65222380D01*
X122327857Y-65174761D01*
X122375476Y-65127142D01*
X122423095Y-65031904D01*
X122423095Y-64936666D01*
X122375476Y-64841428D01*
X122327857Y-64793809D01*
X122232619Y-64746190D01*
X122042142Y-64698571D01*
X121946904Y-64650952D01*
X121899285Y-64603333D01*
X121851666Y-64508095D01*
X121851666Y-64412857D01*
X121899285Y-64317619D01*
X121946904Y-64270000D01*
X122042142Y-64222380D01*
X122280238Y-64222380D01*
X122423095Y-64270000D01*
X122756428Y-64222380D02*
X122994523Y-65222380D01*
X123185000Y-64508095D01*
X123375476Y-65222380D01*
X123613571Y-64222380D01*
X123946904Y-64317619D02*
X123994523Y-64270000D01*
X124089761Y-64222380D01*
X124327857Y-64222380D01*
X124423095Y-64270000D01*
X124470714Y-64317619D01*
X124518333Y-64412857D01*
X124518333Y-64508095D01*
X124470714Y-64650952D01*
X123899285Y-65222380D01*
X124518333Y-65222380D01*
%TO.C,UB2*%
X166267142Y-87072380D02*
X166933809Y-87072380D01*
X166505238Y-88072380D01*
X167743333Y-87405714D02*
X167743333Y-88072380D01*
X167505238Y-87024761D02*
X167267142Y-87739047D01*
X167886190Y-87739047D01*
X168743333Y-88072380D02*
X168267142Y-88072380D01*
X168267142Y-87072380D01*
X169029047Y-88024761D02*
X169171904Y-88072380D01*
X169410000Y-88072380D01*
X169505238Y-88024761D01*
X169552857Y-87977142D01*
X169600476Y-87881904D01*
X169600476Y-87786666D01*
X169552857Y-87691428D01*
X169505238Y-87643809D01*
X169410000Y-87596190D01*
X169219523Y-87548571D01*
X169124285Y-87500952D01*
X169076666Y-87453333D01*
X169029047Y-87358095D01*
X169029047Y-87262857D01*
X169076666Y-87167619D01*
X169124285Y-87120000D01*
X169219523Y-87072380D01*
X169457619Y-87072380D01*
X169600476Y-87120000D01*
X170219523Y-87072380D02*
X170314761Y-87072380D01*
X170410000Y-87120000D01*
X170457619Y-87167619D01*
X170505238Y-87262857D01*
X170552857Y-87453333D01*
X170552857Y-87691428D01*
X170505238Y-87881904D01*
X170457619Y-87977142D01*
X170410000Y-88024761D01*
X170314761Y-88072380D01*
X170219523Y-88072380D01*
X170124285Y-88024761D01*
X170076666Y-87977142D01*
X170029047Y-87881904D01*
X169981428Y-87691428D01*
X169981428Y-87453333D01*
X170029047Y-87262857D01*
X170076666Y-87167619D01*
X170124285Y-87120000D01*
X170219523Y-87072380D01*
X171457619Y-87072380D02*
X170981428Y-87072380D01*
X170933809Y-87548571D01*
X170981428Y-87500952D01*
X171076666Y-87453333D01*
X171314761Y-87453333D01*
X171410000Y-87500952D01*
X171457619Y-87548571D01*
X171505238Y-87643809D01*
X171505238Y-87881904D01*
X171457619Y-87977142D01*
X171410000Y-88024761D01*
X171314761Y-88072380D01*
X171076666Y-88072380D01*
X170981428Y-88024761D01*
X170933809Y-87977142D01*
X158412380Y-88881904D02*
X159221904Y-88881904D01*
X159317142Y-88834285D01*
X159364761Y-88786666D01*
X159412380Y-88691428D01*
X159412380Y-88500952D01*
X159364761Y-88405714D01*
X159317142Y-88358095D01*
X159221904Y-88310476D01*
X158412380Y-88310476D01*
X158888571Y-87500952D02*
X158936190Y-87358095D01*
X158983809Y-87310476D01*
X159079047Y-87262857D01*
X159221904Y-87262857D01*
X159317142Y-87310476D01*
X159364761Y-87358095D01*
X159412380Y-87453333D01*
X159412380Y-87834285D01*
X158412380Y-87834285D01*
X158412380Y-87500952D01*
X158460000Y-87405714D01*
X158507619Y-87358095D01*
X158602857Y-87310476D01*
X158698095Y-87310476D01*
X158793333Y-87358095D01*
X158840952Y-87405714D01*
X158888571Y-87500952D01*
X158888571Y-87834285D01*
X158507619Y-86881904D02*
X158460000Y-86834285D01*
X158412380Y-86739047D01*
X158412380Y-86500952D01*
X158460000Y-86405714D01*
X158507619Y-86358095D01*
X158602857Y-86310476D01*
X158698095Y-86310476D01*
X158840952Y-86358095D01*
X159412380Y-86929523D01*
X159412380Y-86310476D01*
%TO.C,R7*%
X114387380Y-92273333D02*
X114387380Y-91654285D01*
X114768333Y-91987619D01*
X114768333Y-91844761D01*
X114815952Y-91749523D01*
X114863571Y-91701904D01*
X114958809Y-91654285D01*
X115196904Y-91654285D01*
X115292142Y-91701904D01*
X115339761Y-91749523D01*
X115387380Y-91844761D01*
X115387380Y-92130476D01*
X115339761Y-92225714D01*
X115292142Y-92273333D01*
X115387380Y-91225714D02*
X114387380Y-91225714D01*
X115387380Y-90654285D02*
X114815952Y-91082857D01*
X114387380Y-90654285D02*
X114958809Y-91225714D01*
X113017380Y-91606666D02*
X112541190Y-91940000D01*
X113017380Y-92178095D02*
X112017380Y-92178095D01*
X112017380Y-91797142D01*
X112065000Y-91701904D01*
X112112619Y-91654285D01*
X112207857Y-91606666D01*
X112350714Y-91606666D01*
X112445952Y-91654285D01*
X112493571Y-91701904D01*
X112541190Y-91797142D01*
X112541190Y-92178095D01*
X112017380Y-91273333D02*
X112017380Y-90606666D01*
X113017380Y-91035238D01*
D13*
%TO.C,R2*%
X113565000Y-104870000D02*
X113895000Y-104870000D01*
X116305000Y-104870000D02*
X115975000Y-104870000D01*
X113565000Y-98330000D02*
X113565000Y-104870000D01*
X113895000Y-98330000D02*
X113565000Y-98330000D01*
X116305000Y-98330000D02*
X116305000Y-104870000D01*
X115975000Y-98330000D02*
X116305000Y-98330000D01*
%TO.C,R3*%
X166465000Y-80745000D02*
X166465000Y-80415000D01*
X166465000Y-78005000D02*
X166465000Y-78335000D01*
X159925000Y-80415000D02*
X159925000Y-80745000D01*
X159925000Y-78005000D02*
X166465000Y-78005000D01*
X159925000Y-80745000D02*
X166465000Y-80745000D01*
X159925000Y-78335000D02*
X159925000Y-78005000D01*
%TO.C,C1*%
X164950000Y-127785000D02*
X157710000Y-127785000D01*
X164950000Y-130025000D02*
X157710000Y-130025000D01*
X157710000Y-130025000D02*
X157710000Y-127785000D01*
X164950000Y-130025000D02*
X164950000Y-127785000D01*
%TO.C,R4*%
X172260000Y-114115000D02*
X172260000Y-110675000D01*
X172260000Y-110675000D02*
X163020000Y-110675000D01*
X162330000Y-112395000D02*
X163020000Y-112395000D01*
X163020000Y-114115000D02*
X172260000Y-114115000D01*
X172950000Y-112395000D02*
X172260000Y-112395000D01*
X163020000Y-110675000D02*
X163020000Y-114115000D01*
%TO.C,R1*%
X115975000Y-122015000D02*
X116305000Y-122015000D01*
X116305000Y-122015000D02*
X116305000Y-115475000D01*
X113895000Y-122015000D02*
X113565000Y-122015000D01*
X113565000Y-122015000D02*
X113565000Y-115475000D01*
X116305000Y-115475000D02*
X115975000Y-115475000D01*
X113565000Y-115475000D02*
X113895000Y-115475000D01*
%TO.C,C4*%
X121435000Y-131890000D02*
X123675000Y-131890000D01*
X121435000Y-124650000D02*
X123675000Y-124650000D01*
X121435000Y-131890000D02*
X121435000Y-124650000D01*
X123675000Y-131890000D02*
X123675000Y-124650000D01*
%TO.C,UC2*%
X180415000Y-106790000D02*
X180415000Y-101490000D01*
X159975000Y-101490000D02*
X159975000Y-103140000D01*
X159975000Y-105140000D02*
X159975000Y-106790000D01*
X159975000Y-106790000D02*
X180415000Y-106790000D01*
X180415000Y-101490000D02*
X159975000Y-101490000D01*
X159975000Y-105140000D02*
G75*
G03*
X159975000Y-103140000I0J1000000D01*
G01*
%TO.C,UD2*%
X177855000Y-117990000D02*
X159955000Y-117990000D01*
X159955000Y-121640000D02*
X159955000Y-123290000D01*
X177855000Y-123290000D02*
X177855000Y-117990000D01*
X159955000Y-123290000D02*
X177855000Y-123290000D01*
X159955000Y-117990000D02*
X159955000Y-119640000D01*
X159955000Y-121640000D02*
G75*
G03*
X159955000Y-119640000I0J1000000D01*
G01*
%TO.C,UD3*%
X155005000Y-114190000D02*
X124405000Y-114190000D01*
X155005000Y-127110000D02*
X155005000Y-114190000D01*
X124405000Y-121650000D02*
X124405000Y-127110000D01*
X124405000Y-127110000D02*
X155005000Y-127110000D01*
X124405000Y-114190000D02*
X124405000Y-119650000D01*
X124405000Y-121650000D02*
G75*
G03*
X124405000Y-119650000I0J1000000D01*
G01*
%TO.C,C6*%
X208090000Y-129390000D02*
X200850000Y-129390000D01*
X208090000Y-129390000D02*
X208090000Y-127150000D01*
X208090000Y-127150000D02*
X200850000Y-127150000D01*
X200850000Y-129390000D02*
X200850000Y-127150000D01*
%TO.C,Q2*%
X121960000Y-113450000D02*
X111720000Y-113450000D01*
X121960000Y-111940000D02*
X111720000Y-111940000D01*
X121960000Y-108809000D02*
X111720000Y-108809000D01*
X111720000Y-113450000D02*
X111720000Y-108809000D01*
X114989000Y-113450000D02*
X114989000Y-111940000D01*
X118690000Y-113450000D02*
X118690000Y-111940000D01*
X121960000Y-113450000D02*
X121960000Y-108809000D01*
%TO.C,Q1*%
X115675000Y-128575000D02*
X119275000Y-128575000D01*
X119831400Y-125626193D02*
G75*
G03*
X117475000Y-124125000I-2356400J-1098807D01*
G01*
X119275000Y-128575000D02*
G75*
G03*
X119799184Y-127847795I-1800000J1850000D01*
G01*
X117475000Y-124125000D02*
G75*
G03*
X115118600Y-125626193I0J-2600000D01*
G01*
X115150816Y-127847795D02*
G75*
G03*
X115675000Y-128575000I2324184J1122795D01*
G01*
%TO.C,C7*%
X183030000Y-129390000D02*
X190270000Y-129390000D01*
X183030000Y-127150000D02*
X183030000Y-129390000D01*
X190270000Y-127150000D02*
X190270000Y-129390000D01*
X183030000Y-127150000D02*
X190270000Y-127150000D01*
%TO.C,R5*%
X172260000Y-97605000D02*
X172260000Y-94165000D01*
X162330000Y-95885000D02*
X163020000Y-95885000D01*
X172950000Y-95885000D02*
X172260000Y-95885000D01*
X172260000Y-94165000D02*
X163020000Y-94165000D01*
X163020000Y-97605000D02*
X172260000Y-97605000D01*
X163020000Y-94165000D02*
X163020000Y-97605000D01*
%TO.C,SW3*%
X130170000Y-65980000D02*
X132770000Y-65980000D01*
X127570000Y-67310000D02*
X127570000Y-65980000D01*
X127570000Y-73720000D02*
X132770000Y-73720000D01*
X132770000Y-65980000D02*
X132770000Y-73720000D01*
X127570000Y-68580000D02*
X127570000Y-73720000D01*
X130170000Y-68580000D02*
X130170000Y-65980000D01*
X127570000Y-68580000D02*
X130170000Y-68580000D01*
X127570000Y-65980000D02*
X128900000Y-65980000D01*
%TO.C,J3*%
X193930000Y-80237071D02*
X193930000Y-79840000D01*
X182820000Y-77180000D02*
X182820000Y-79840000D01*
X191390000Y-82777071D02*
X191390000Y-82322929D01*
X192150000Y-80237071D02*
X192150000Y-79840000D01*
X207390000Y-71180000D02*
X207390000Y-77180000D01*
X183770000Y-80237071D02*
X183770000Y-79840000D01*
X204850000Y-82777071D02*
X204850000Y-82322929D01*
X184530000Y-71180000D02*
X184530000Y-77180000D01*
X187070000Y-80237071D02*
X187070000Y-79840000D01*
X201550000Y-77180000D02*
X201550000Y-71180000D01*
X204850000Y-71180000D02*
X204850000Y-77180000D01*
X186310000Y-80237071D02*
X186310000Y-79840000D01*
X201550000Y-71180000D02*
X202310000Y-71180000D01*
X183830000Y-77180000D02*
X183830000Y-71180000D01*
X201550000Y-82777071D02*
X201550000Y-82322929D01*
X182880000Y-85090000D02*
X182880000Y-83820000D01*
X206630000Y-77180000D02*
X206630000Y-71180000D01*
X199770000Y-80237071D02*
X199770000Y-79840000D01*
X198120000Y-79840000D02*
X198120000Y-77180000D01*
X184070000Y-77180000D02*
X184070000Y-71180000D01*
X200660000Y-79840000D02*
X200660000Y-77180000D01*
X205740000Y-79840000D02*
X205740000Y-77180000D01*
X194690000Y-71180000D02*
X194690000Y-77180000D01*
X183770000Y-71180000D02*
X184530000Y-71180000D01*
X194690000Y-80237071D02*
X194690000Y-79840000D01*
X187070000Y-82777071D02*
X187070000Y-82322929D01*
X202310000Y-71180000D02*
X202310000Y-77180000D01*
X201550000Y-80237071D02*
X201550000Y-79840000D01*
X196470000Y-77180000D02*
X196470000Y-71180000D01*
X197230000Y-82777071D02*
X197230000Y-82322929D01*
X188850000Y-71180000D02*
X189610000Y-71180000D01*
X187960000Y-79840000D02*
X187960000Y-77180000D01*
X199010000Y-80237071D02*
X199010000Y-79840000D01*
X193930000Y-82777071D02*
X193930000Y-82322929D01*
X192150000Y-71180000D02*
X192150000Y-77180000D01*
X184530000Y-80237071D02*
X184530000Y-79840000D01*
X194690000Y-82777071D02*
X194690000Y-82322929D01*
X191390000Y-80237071D02*
X191390000Y-79840000D01*
X189610000Y-82777071D02*
X189610000Y-82322929D01*
X191390000Y-77180000D02*
X191390000Y-71180000D01*
X207390000Y-82777071D02*
X207390000Y-82322929D01*
X207390000Y-80237071D02*
X207390000Y-79840000D01*
X197230000Y-71180000D02*
X197230000Y-77180000D01*
X192150000Y-82777071D02*
X192150000Y-82322929D01*
X199010000Y-71180000D02*
X199770000Y-71180000D01*
X182820000Y-79840000D02*
X208340000Y-79840000D01*
X202310000Y-82777071D02*
X202310000Y-82322929D01*
X191390000Y-71180000D02*
X192150000Y-71180000D01*
X206630000Y-71180000D02*
X207390000Y-71180000D01*
X183770000Y-77180000D02*
X183770000Y-71180000D01*
X199770000Y-82777071D02*
X199770000Y-82322929D01*
X193930000Y-71180000D02*
X194690000Y-71180000D01*
X208340000Y-79840000D02*
X208340000Y-77180000D01*
X199770000Y-71180000D02*
X199770000Y-77180000D01*
X184310000Y-77180000D02*
X184310000Y-71180000D01*
X190500000Y-79840000D02*
X190500000Y-77180000D01*
X203200000Y-79840000D02*
X203200000Y-77180000D01*
X183950000Y-77180000D02*
X183950000Y-71180000D01*
X193040000Y-79840000D02*
X193040000Y-77180000D01*
X208340000Y-77180000D02*
X182820000Y-77180000D01*
X183770000Y-82710000D02*
X183770000Y-82322929D01*
X204090000Y-71180000D02*
X204850000Y-71180000D01*
X186310000Y-82777071D02*
X186310000Y-82322929D01*
X196470000Y-82777071D02*
X196470000Y-82322929D01*
X195580000Y-79840000D02*
X195580000Y-77180000D01*
X188850000Y-82777071D02*
X188850000Y-82322929D01*
X204090000Y-82777071D02*
X204090000Y-82322929D01*
X199010000Y-77180000D02*
X199010000Y-71180000D01*
X186310000Y-77180000D02*
X186310000Y-71180000D01*
X184430000Y-77180000D02*
X184430000Y-71180000D01*
X206630000Y-80237071D02*
X206630000Y-79840000D01*
X206630000Y-82777071D02*
X206630000Y-82322929D01*
X184150000Y-85090000D02*
X182880000Y-85090000D01*
X197230000Y-80237071D02*
X197230000Y-79840000D01*
X204090000Y-80237071D02*
X204090000Y-79840000D01*
X189610000Y-71180000D02*
X189610000Y-77180000D01*
X189610000Y-80237071D02*
X189610000Y-79840000D01*
X186310000Y-71180000D02*
X187070000Y-71180000D01*
X204850000Y-80237071D02*
X204850000Y-79840000D01*
X193930000Y-77180000D02*
X193930000Y-71180000D01*
X184530000Y-82710000D02*
X184530000Y-82322929D01*
X204090000Y-77180000D02*
X204090000Y-71180000D01*
X188850000Y-80237071D02*
X188850000Y-79840000D01*
X196470000Y-80237071D02*
X196470000Y-79840000D01*
X188850000Y-77180000D02*
X188850000Y-71180000D01*
X185420000Y-79840000D02*
X185420000Y-77180000D01*
X196470000Y-71180000D02*
X197230000Y-71180000D01*
X202310000Y-80237071D02*
X202310000Y-79840000D01*
X187070000Y-71180000D02*
X187070000Y-77180000D01*
X199010000Y-82777071D02*
X199010000Y-82322929D01*
X184190000Y-77180000D02*
X184190000Y-71180000D01*
%TO.C,SW1*%
X113600000Y-68580000D02*
X113600000Y-73720000D01*
X113600000Y-67310000D02*
X113600000Y-65980000D01*
X113600000Y-73720000D02*
X118800000Y-73720000D01*
X116200000Y-68580000D02*
X116200000Y-65980000D01*
X118800000Y-65980000D02*
X118800000Y-73720000D01*
X113600000Y-65980000D02*
X114930000Y-65980000D01*
X113600000Y-68580000D02*
X116200000Y-68580000D01*
X116200000Y-65980000D02*
X118800000Y-65980000D01*
%TO.C,UA2*%
X159955000Y-73770000D02*
X177855000Y-73770000D01*
X159955000Y-72120000D02*
X159955000Y-73770000D01*
X177855000Y-68470000D02*
X159955000Y-68470000D01*
X177855000Y-73770000D02*
X177855000Y-68470000D01*
X159955000Y-68470000D02*
X159955000Y-70120000D01*
X159955000Y-72120000D02*
G75*
G03*
X159955000Y-70120000I0J1000000D01*
G01*
%TO.C,UC3*%
X155005000Y-101490000D02*
X129485000Y-101490000D01*
X129485000Y-106790000D02*
X155005000Y-106790000D01*
X155005000Y-106790000D02*
X155005000Y-101490000D01*
X129485000Y-105140000D02*
X129485000Y-106790000D01*
X129485000Y-101490000D02*
X129485000Y-103140000D01*
X129485000Y-105140000D02*
G75*
G03*
X129485000Y-103140000I0J1000000D01*
G01*
%TO.C,UB3*%
X124405000Y-94090000D02*
X155005000Y-94090000D01*
X155005000Y-94090000D02*
X155005000Y-81170000D01*
X124405000Y-88630000D02*
X124405000Y-94090000D01*
X124405000Y-81170000D02*
X124405000Y-86630000D01*
X155005000Y-81170000D02*
X124405000Y-81170000D01*
X124405000Y-88630000D02*
G75*
G03*
X124405000Y-86630000I0J1000000D01*
G01*
%TO.C,C3*%
X199200000Y-129390000D02*
X191960000Y-129390000D01*
X199200000Y-127150000D02*
X191960000Y-127150000D01*
X191960000Y-129390000D02*
X191960000Y-127150000D01*
X199200000Y-129390000D02*
X199200000Y-127150000D01*
%TO.C,R6*%
X115475000Y-78510000D02*
X115475000Y-78840000D01*
X122015000Y-78840000D02*
X122015000Y-78510000D01*
X115475000Y-78840000D02*
X122015000Y-78840000D01*
X115475000Y-76430000D02*
X115475000Y-76100000D01*
X115475000Y-76100000D02*
X122015000Y-76100000D01*
X122015000Y-76100000D02*
X122015000Y-76430000D01*
%TO.C,Q3*%
X121960000Y-81504000D02*
X111720000Y-81504000D01*
X114989000Y-86145000D02*
X114989000Y-84635000D01*
X121960000Y-86145000D02*
X111720000Y-86145000D01*
X111720000Y-86145000D02*
X111720000Y-81504000D01*
X121960000Y-86145000D02*
X121960000Y-81504000D01*
X121960000Y-84635000D02*
X111720000Y-84635000D01*
X118690000Y-86145000D02*
X118690000Y-84635000D01*
%TO.C,C5*%
X118260000Y-113982000D02*
X118260000Y-121222000D01*
X120500000Y-121222000D02*
X118260000Y-121222000D01*
X120500000Y-113982000D02*
X118260000Y-113982000D01*
X120500000Y-113982000D02*
X120500000Y-121222000D01*
%TO.C,UA3*%
X155015000Y-68470000D02*
X134575000Y-68470000D01*
X134575000Y-72120000D02*
X134575000Y-73770000D01*
X134575000Y-68470000D02*
X134575000Y-70120000D01*
X134575000Y-73770000D02*
X155015000Y-73770000D01*
X155015000Y-73770000D02*
X155015000Y-68470000D01*
X134575000Y-72120000D02*
G75*
G03*
X134575000Y-70120000I0J1000000D01*
G01*
%TO.C,C2*%
X125154000Y-106568349D02*
X121226000Y-106568349D01*
X122150000Y-104808349D02*
X119543000Y-104808349D01*
X127220000Y-103607349D02*
X119160000Y-103607349D01*
X123958000Y-107008349D02*
X122422000Y-107008349D01*
X127192000Y-103768349D02*
X119188000Y-103768349D01*
X127166000Y-103888349D02*
X119214000Y-103888349D01*
X122150000Y-104448349D02*
X119385000Y-104448349D01*
X122150000Y-104768349D02*
X119524000Y-104768349D01*
X122150000Y-106408349D02*
X120962000Y-106408349D01*
X125974000Y-105968349D02*
X124230000Y-105968349D01*
X126752000Y-104968349D02*
X124230000Y-104968349D01*
X126837000Y-104808349D02*
X124230000Y-104808349D01*
X122150000Y-105648349D02*
X120100000Y-105648349D01*
X126894000Y-104688349D02*
X124230000Y-104688349D01*
X126634000Y-105168349D02*
X124230000Y-105168349D01*
X126817000Y-104848349D02*
X124230000Y-104848349D01*
X126947000Y-104568349D02*
X124230000Y-104568349D01*
X125905000Y-98957651D02*
X125105000Y-98957651D01*
X122150000Y-106088349D02*
X120539000Y-106088349D01*
X124288000Y-106928349D02*
X122092000Y-106928349D01*
X125356000Y-106448349D02*
X124230000Y-106448349D01*
X122150000Y-105768349D02*
X120207000Y-105768349D01*
X125644000Y-106248349D02*
X124230000Y-106248349D01*
X125535000Y-106328349D02*
X124230000Y-106328349D01*
X122150000Y-106208349D02*
X120685000Y-106208349D01*
X125695000Y-106208349D02*
X124230000Y-106208349D01*
X125292000Y-106488349D02*
X124230000Y-106488349D01*
X126379000Y-105528349D02*
X124230000Y-105528349D01*
X122150000Y-105088349D02*
X119697000Y-105088349D01*
X127079000Y-104208349D02*
X119301000Y-104208349D01*
X126995000Y-104448349D02*
X124230000Y-104448349D01*
X126097000Y-105848349D02*
X124230000Y-105848349D01*
X127232000Y-103527349D02*
X119148000Y-103527349D01*
X127267000Y-103127349D02*
X119113000Y-103127349D01*
X127126000Y-104048349D02*
X119254000Y-104048349D01*
X122150000Y-106248349D02*
X120736000Y-106248349D01*
X126555000Y-105288349D02*
X124230000Y-105288349D01*
X126173000Y-105768349D02*
X124230000Y-105768349D01*
X126057000Y-105888349D02*
X124230000Y-105888349D01*
X126209000Y-105728349D02*
X124230000Y-105728349D01*
X124643000Y-106808349D02*
X121737000Y-106808349D01*
X127147000Y-103968349D02*
X119233000Y-103968349D01*
X126280000Y-105648349D02*
X124230000Y-105648349D01*
X126528000Y-105328349D02*
X124230000Y-105328349D01*
X127115000Y-104088349D02*
X119265000Y-104088349D01*
X126707000Y-105048349D02*
X124230000Y-105048349D01*
X122150000Y-105848349D02*
X120283000Y-105848349D01*
X127270000Y-103047349D02*
X119110000Y-103047349D01*
X126440000Y-105448349D02*
X124230000Y-105448349D01*
X127157000Y-103928349D02*
X119223000Y-103928349D01*
X122150000Y-105728349D02*
X120171000Y-105728349D01*
X127184000Y-103808349D02*
X119196000Y-103808349D01*
X126314000Y-105608349D02*
X124230000Y-105608349D01*
X126930000Y-104608349D02*
X124230000Y-104608349D01*
X122150000Y-105808349D02*
X120245000Y-105808349D01*
X122150000Y-105208349D02*
X119772000Y-105208349D01*
X122150000Y-105248349D02*
X119798000Y-105248349D01*
X126796000Y-104888349D02*
X124230000Y-104888349D01*
X125080000Y-106608349D02*
X121300000Y-106608349D01*
X126016000Y-105928349D02*
X124230000Y-105928349D01*
X127092000Y-104168349D02*
X119288000Y-104168349D01*
X125931000Y-106008349D02*
X124230000Y-106008349D01*
X124536000Y-106848349D02*
X121844000Y-106848349D01*
X122150000Y-106128349D02*
X120586000Y-106128349D01*
X125590000Y-106288349D02*
X124230000Y-106288349D01*
X126876000Y-104728349D02*
X124230000Y-104728349D01*
X127242000Y-103447349D02*
X119138000Y-103447349D01*
X126730000Y-105008349D02*
X124230000Y-105008349D01*
X122150000Y-106048349D02*
X120493000Y-106048349D01*
X126582000Y-105248349D02*
X124230000Y-105248349D01*
X122150000Y-105368349D02*
X119881000Y-105368349D01*
X126683000Y-105088349D02*
X124230000Y-105088349D01*
X125841000Y-106088349D02*
X124230000Y-106088349D01*
X127207000Y-103688349D02*
X119173000Y-103688349D01*
X125418000Y-106408349D02*
X124230000Y-106408349D01*
X122150000Y-106008349D02*
X120449000Y-106008349D01*
X127104000Y-104128349D02*
X119276000Y-104128349D01*
X127175000Y-103848349D02*
X119205000Y-103848349D01*
X127247000Y-103407349D02*
X119133000Y-103407349D01*
X127011000Y-104408349D02*
X119369000Y-104408349D01*
X122150000Y-105688349D02*
X120135000Y-105688349D01*
X126245000Y-105688349D02*
X124230000Y-105688349D01*
X126608000Y-105208349D02*
X124230000Y-105208349D01*
X127251000Y-103367349D02*
X119129000Y-103367349D01*
X122150000Y-105528349D02*
X120001000Y-105528349D01*
X124921000Y-106688349D02*
X121459000Y-106688349D01*
X126499000Y-105368349D02*
X124230000Y-105368349D01*
X122150000Y-105888349D02*
X120323000Y-105888349D01*
X126964000Y-104528349D02*
X124230000Y-104528349D01*
X122150000Y-104888349D02*
X119584000Y-104888349D01*
X122150000Y-105488349D02*
X119970000Y-105488349D01*
X125746000Y-106168349D02*
X124230000Y-106168349D01*
X125887000Y-106048349D02*
X124230000Y-106048349D01*
X126346000Y-105568349D02*
X124230000Y-105568349D01*
X126410000Y-105488349D02*
X124230000Y-105488349D01*
X124138000Y-106968349D02*
X122242000Y-106968349D01*
X126135000Y-105808349D02*
X124230000Y-105808349D01*
X126856000Y-104768349D02*
X124230000Y-104768349D01*
X122150000Y-104488349D02*
X119400000Y-104488349D01*
X122150000Y-106448349D02*
X121024000Y-106448349D01*
X127238000Y-103487349D02*
X119142000Y-103487349D01*
X127269000Y-103087349D02*
X119111000Y-103087349D01*
X127261000Y-103247349D02*
X119119000Y-103247349D01*
X122150000Y-104928349D02*
X119606000Y-104928349D01*
X127270000Y-102967349D02*
X119110000Y-102967349D01*
X127270000Y-103007349D02*
X119110000Y-103007349D01*
X126774000Y-104928349D02*
X124230000Y-104928349D01*
X122150000Y-104968349D02*
X119628000Y-104968349D01*
X127200000Y-103728349D02*
X119180000Y-103728349D01*
X127255000Y-103327349D02*
X119125000Y-103327349D01*
X122150000Y-104528349D02*
X119416000Y-104528349D01*
X123723000Y-107048349D02*
X122657000Y-107048349D01*
X127137000Y-104008349D02*
X119243000Y-104008349D01*
X122150000Y-105928349D02*
X120364000Y-105928349D01*
X127266000Y-103167349D02*
X119114000Y-103167349D01*
X122150000Y-105408349D02*
X119910000Y-105408349D01*
X127227000Y-103567349D02*
X119153000Y-103567349D01*
X122150000Y-105568349D02*
X120034000Y-105568349D01*
X125794000Y-106128349D02*
X124230000Y-106128349D01*
X125477000Y-106368349D02*
X124230000Y-106368349D01*
X122150000Y-106168349D02*
X120634000Y-106168349D01*
X124835000Y-106728349D02*
X121545000Y-106728349D01*
X124742000Y-106768349D02*
X121638000Y-106768349D01*
X122150000Y-106368349D02*
X120903000Y-106368349D01*
X122150000Y-104728349D02*
X119504000Y-104728349D01*
X126980000Y-104488349D02*
X124230000Y-104488349D01*
X122150000Y-106288349D02*
X120790000Y-106288349D01*
X122150000Y-105128349D02*
X119721000Y-105128349D01*
X124419000Y-106888349D02*
X121961000Y-106888349D01*
X127214000Y-103647349D02*
X119166000Y-103647349D01*
X122150000Y-105048349D02*
X119673000Y-105048349D01*
X125224000Y-106528349D02*
X121156000Y-106528349D01*
X122150000Y-105168349D02*
X119746000Y-105168349D01*
X126912000Y-104648349D02*
X124230000Y-104648349D01*
X127025000Y-104368349D02*
X119355000Y-104368349D01*
X122150000Y-106488349D02*
X121088000Y-106488349D01*
X122150000Y-104608349D02*
X119450000Y-104608349D01*
X122150000Y-104848349D02*
X119563000Y-104848349D01*
X122150000Y-105448349D02*
X119940000Y-105448349D01*
X122150000Y-106328349D02*
X120845000Y-106328349D01*
X122150000Y-104688349D02*
X119486000Y-104688349D01*
X126659000Y-105128349D02*
X124230000Y-105128349D01*
X122150000Y-105288349D02*
X119825000Y-105288349D01*
X127053000Y-104288349D02*
X119327000Y-104288349D01*
X122150000Y-105608349D02*
X120066000Y-105608349D01*
X122150000Y-105968349D02*
X120406000Y-105968349D01*
X122150000Y-104648349D02*
X119468000Y-104648349D01*
X125505000Y-98557651D02*
X125505000Y-99357651D01*
X127264000Y-103207349D02*
X119116000Y-103207349D01*
X122150000Y-105328349D02*
X119852000Y-105328349D01*
X125003000Y-106648349D02*
X121377000Y-106648349D01*
X122150000Y-104568349D02*
X119433000Y-104568349D01*
X127040000Y-104328349D02*
X119340000Y-104328349D01*
X127067000Y-104248349D02*
X119313000Y-104248349D01*
X122150000Y-105008349D02*
X119650000Y-105008349D01*
X126470000Y-105408349D02*
X124230000Y-105408349D01*
X127258000Y-103287349D02*
X119122000Y-103287349D01*
X127310000Y-102967349D02*
G75*
G03*
X127310000Y-102967349I-4120000J0D01*
G01*
%TO.C,J2*%
X199770000Y-120877071D02*
X199770000Y-120480000D01*
X192150000Y-120877071D02*
X192150000Y-120480000D01*
X187960000Y-120480000D02*
X187960000Y-117820000D01*
X189610000Y-123417071D02*
X189610000Y-122962929D01*
X191390000Y-117820000D02*
X191390000Y-111820000D01*
X202310000Y-120877071D02*
X202310000Y-120480000D01*
X199010000Y-120877071D02*
X199010000Y-120480000D01*
X187070000Y-120877071D02*
X187070000Y-120480000D01*
X184530000Y-111820000D02*
X184530000Y-117820000D01*
X184530000Y-120877071D02*
X184530000Y-120480000D01*
X196470000Y-117820000D02*
X196470000Y-111820000D01*
X183950000Y-117820000D02*
X183950000Y-111820000D01*
X182820000Y-117820000D02*
X182820000Y-120480000D01*
X199010000Y-117820000D02*
X199010000Y-111820000D01*
X184430000Y-117820000D02*
X184430000Y-111820000D01*
X196470000Y-111820000D02*
X197230000Y-111820000D01*
X193930000Y-123417071D02*
X193930000Y-122962929D01*
X204090000Y-117820000D02*
X204090000Y-111820000D01*
X195580000Y-120480000D02*
X195580000Y-117820000D01*
X196470000Y-120877071D02*
X196470000Y-120480000D01*
X199770000Y-111820000D02*
X199770000Y-117820000D01*
X197230000Y-111820000D02*
X197230000Y-117820000D01*
X199010000Y-111820000D02*
X199770000Y-111820000D01*
X201550000Y-120877071D02*
X201550000Y-120480000D01*
X188850000Y-123417071D02*
X188850000Y-122962929D01*
X208340000Y-120480000D02*
X208340000Y-117820000D01*
X188850000Y-111820000D02*
X189610000Y-111820000D01*
X186310000Y-120877071D02*
X186310000Y-120480000D01*
X204850000Y-120877071D02*
X204850000Y-120480000D01*
X204850000Y-111820000D02*
X204850000Y-117820000D01*
X184190000Y-117820000D02*
X184190000Y-111820000D01*
X207390000Y-123417071D02*
X207390000Y-122962929D01*
X193930000Y-120877071D02*
X193930000Y-120480000D01*
X184070000Y-117820000D02*
X184070000Y-111820000D01*
X189610000Y-111820000D02*
X189610000Y-117820000D01*
X206630000Y-111820000D02*
X207390000Y-111820000D01*
X207390000Y-111820000D02*
X207390000Y-117820000D01*
X204850000Y-123417071D02*
X204850000Y-122962929D01*
X183770000Y-117820000D02*
X183770000Y-111820000D01*
X201550000Y-117820000D02*
X201550000Y-111820000D01*
X184530000Y-123350000D02*
X184530000Y-122962929D01*
X186310000Y-111820000D02*
X187070000Y-111820000D01*
X192150000Y-111820000D02*
X192150000Y-117820000D01*
X202310000Y-111820000D02*
X202310000Y-117820000D01*
X182880000Y-125730000D02*
X182880000Y-124460000D01*
X190500000Y-120480000D02*
X190500000Y-117820000D01*
X202310000Y-123417071D02*
X202310000Y-122962929D01*
X199770000Y-123417071D02*
X199770000Y-122962929D01*
X196470000Y-123417071D02*
X196470000Y-122962929D01*
X182820000Y-120480000D02*
X208340000Y-120480000D01*
X204090000Y-120877071D02*
X204090000Y-120480000D01*
X193930000Y-111820000D02*
X194690000Y-111820000D01*
X188850000Y-120877071D02*
X188850000Y-120480000D01*
X197230000Y-120877071D02*
X197230000Y-120480000D01*
X184310000Y-117820000D02*
X184310000Y-111820000D01*
X185420000Y-120480000D02*
X185420000Y-117820000D01*
X208340000Y-117820000D02*
X182820000Y-117820000D01*
X193930000Y-117820000D02*
X193930000Y-111820000D01*
X204090000Y-123417071D02*
X204090000Y-122962929D01*
X192150000Y-123417071D02*
X192150000Y-122962929D01*
X191390000Y-120877071D02*
X191390000Y-120480000D01*
X197230000Y-123417071D02*
X197230000Y-122962929D01*
X189610000Y-120877071D02*
X189610000Y-120480000D01*
X194690000Y-120877071D02*
X194690000Y-120480000D01*
X183770000Y-120877071D02*
X183770000Y-120480000D01*
X194690000Y-123417071D02*
X194690000Y-122962929D01*
X188850000Y-117820000D02*
X188850000Y-111820000D01*
X193040000Y-120480000D02*
X193040000Y-117820000D01*
X184150000Y-125730000D02*
X182880000Y-125730000D01*
X199010000Y-123417071D02*
X199010000Y-122962929D01*
X205740000Y-120480000D02*
X205740000Y-117820000D01*
X191390000Y-123417071D02*
X191390000Y-122962929D01*
X198120000Y-120480000D02*
X198120000Y-117820000D01*
X186310000Y-123417071D02*
X186310000Y-122962929D01*
X206630000Y-117820000D02*
X206630000Y-111820000D01*
X187070000Y-123417071D02*
X187070000Y-122962929D01*
X201550000Y-111820000D02*
X202310000Y-111820000D01*
X201550000Y-123417071D02*
X201550000Y-122962929D01*
X206630000Y-123417071D02*
X206630000Y-122962929D01*
X187070000Y-111820000D02*
X187070000Y-117820000D01*
X207390000Y-120877071D02*
X207390000Y-120480000D01*
X194690000Y-111820000D02*
X194690000Y-117820000D01*
X186310000Y-117820000D02*
X186310000Y-111820000D01*
X206630000Y-120877071D02*
X206630000Y-120480000D01*
X183830000Y-117820000D02*
X183830000Y-111820000D01*
X203200000Y-120480000D02*
X203200000Y-117820000D01*
X183770000Y-123350000D02*
X183770000Y-122962929D01*
X191390000Y-111820000D02*
X192150000Y-111820000D01*
X183770000Y-111820000D02*
X184530000Y-111820000D01*
X200660000Y-120480000D02*
X200660000Y-117820000D01*
X204090000Y-111820000D02*
X204850000Y-111820000D01*
%TO.C,SW2*%
X120585000Y-73720000D02*
X125785000Y-73720000D01*
X123185000Y-65980000D02*
X125785000Y-65980000D01*
X120585000Y-67310000D02*
X120585000Y-65980000D01*
X125785000Y-65980000D02*
X125785000Y-73720000D01*
X120585000Y-65980000D02*
X121915000Y-65980000D01*
X123185000Y-68580000D02*
X123185000Y-65980000D01*
X120585000Y-68580000D02*
X123185000Y-68580000D01*
X120585000Y-68580000D02*
X120585000Y-73720000D01*
%TO.C,UB2*%
X159955000Y-90270000D02*
X177855000Y-90270000D01*
X159955000Y-84970000D02*
X159955000Y-86620000D01*
X177855000Y-84970000D02*
X159955000Y-84970000D01*
X159955000Y-88620000D02*
X159955000Y-90270000D01*
X177855000Y-90270000D02*
X177855000Y-84970000D01*
X159955000Y-88620000D02*
G75*
G03*
X159955000Y-86620000I0J1000000D01*
G01*
%TO.C,R7*%
X116305000Y-94710000D02*
X116305000Y-88170000D01*
X113895000Y-94710000D02*
X113565000Y-94710000D01*
X115975000Y-94710000D02*
X116305000Y-94710000D01*
X116305000Y-88170000D02*
X115975000Y-88170000D01*
X113565000Y-94710000D02*
X113565000Y-88170000D01*
X113565000Y-88170000D02*
X113895000Y-88170000D01*
%TD*%
M02*
