M48
; DRILL file {KiCad (6.0.5-0)} date Wednesday, August 03, 2022 at 01:41:13 AM
; FORMAT={-:-/ absolute / inch / decimal}
; #@! TF.CreationDate,2022-08-03T01:41:13-07:00
; #@! TF.GenerationSoftware,Kicad,Pcbnew,(6.0.5-0)
; #@! TF.FileFunction,Plated,1,2,PTH
FMAT,2
INCH
; #@! TA.AperFunction,Plated,PTH,ViaDrill
T1C0.0157
; #@! TA.AperFunction,Plated,PTH,ComponentDrill
T2C0.0315
; #@! TA.AperFunction,Plated,PTH,ComponentDrill
T3C0.0394
; #@! TA.AperFunction,Plated,PTH,ComponentDrill
T4C0.0433
%
G90
G05
T1
X4.64Y-4.4
X4.94Y-3.82
X5.1Y-3.875
X5.12Y-4.14
X5.125Y-4.375
X5.2Y-4.175
X5.25Y-3.425
X5.3Y-4.175
X5.41Y-4.29
X5.525Y-3.025
X5.675Y-3.075
X5.8Y-3.46
X6.025Y-4.525
X6.05Y-4.575
X6.075Y-4.625
X6.1Y-4.675
X6.15Y-3.25
X6.325Y-2.775
X6.34Y-4.16
X6.4Y-4.325
X6.45Y-4.15
X6.55Y-3.725
X6.55Y-4.15
X6.6Y-3.5
X6.65Y-4.125
X6.75Y-4.02
X6.9Y-3.48
X7.125Y-3.3
X7.225Y-4.1
X7.325Y-4.125
X7.425Y-4.15
X7.525Y-4.175
X7.625Y-3.55
X7.65Y-5.225
X7.75Y-5.225
X7.825Y-3.5
X7.925Y-3.475
X8.025Y-3.45
X8.125Y-4.05
T2
X4.525Y-3.05
X4.525Y-3.45
X4.525Y-3.75
X4.525Y-3.85
X4.525Y-4.15
X4.525Y-4.525
X4.525Y-4.825
X4.525Y-4.9892
X4.625Y-4.9892
X4.7Y-4.5316
X4.7Y-4.7284
X4.725Y-4.9892
X4.825Y-3.05
X4.825Y-4.9516
X4.825Y-5.1484
X4.85Y-3.9554
X4.85Y-4.1523
X4.9502Y-3.15
X4.9502Y-3.75
X4.9502Y-4.45
X4.9502Y-5.05
X5.0502Y-3.15
X5.0502Y-3.75
X5.0502Y-4.45
X5.0502Y-5.05
X5.1502Y-3.15
X5.1502Y-3.75
X5.1502Y-3.95
X5.1502Y-4.25
X5.1502Y-4.45
X5.1502Y-5.05
X5.2502Y-3.15
X5.2502Y-3.75
X5.2502Y-3.95
X5.2502Y-4.25
X5.2502Y-4.45
X5.2502Y-5.05
X5.3502Y-3.15
X5.3502Y-3.75
X5.3502Y-3.95
X5.3502Y-4.25
X5.3502Y-4.45
X5.3502Y-5.05
X5.3506Y-2.65
X5.3506Y-2.95
X5.4502Y-3.15
X5.4502Y-3.75
X5.4502Y-3.95
X5.4502Y-4.25
X5.4502Y-4.45
X5.4502Y-5.05
X5.4506Y-2.65
X5.4506Y-2.95
X5.5502Y-3.15
X5.5502Y-3.75
X5.5502Y-3.95
X5.5502Y-4.25
X5.5502Y-4.45
X5.5502Y-5.05
X5.5506Y-2.65
X5.5506Y-2.95
X5.6502Y-3.15
X5.6502Y-3.75
X5.6502Y-3.95
X5.6502Y-4.25
X5.6502Y-4.45
X5.6502Y-5.05
X5.6506Y-2.65
X5.6506Y-2.95
X5.7502Y-3.15
X5.7502Y-3.75
X5.7502Y-3.95
X5.7502Y-4.25
X5.7502Y-4.45
X5.7502Y-5.05
X5.7506Y-2.65
X5.7506Y-2.95
X5.8502Y-3.15
X5.8502Y-3.75
X5.8502Y-3.95
X5.8502Y-4.25
X5.8502Y-4.45
X5.8502Y-5.05
X5.8506Y-2.65
X5.8506Y-2.95
X5.9502Y-3.15
X5.9502Y-3.75
X5.9502Y-3.95
X5.9502Y-4.25
X5.9502Y-4.45
X5.9502Y-5.05
X5.9506Y-2.65
X5.9506Y-2.95
X6.0502Y-3.15
X6.0502Y-3.75
X6.0502Y-3.95
X6.0502Y-4.25
X6.0502Y-4.45
X6.0502Y-5.05
X6.0506Y-2.65
X6.0506Y-2.95
X6.2531Y-5.075
X6.275Y-3.125
X6.3498Y-2.65
X6.3498Y-2.95
X6.3498Y-3.2996
X6.3498Y-3.5996
X6.3498Y-4.5996
X6.3498Y-4.8996
X6.35Y-3.775
X6.35Y-4.425
X6.3506Y-3.95
X6.3506Y-4.25
X6.4498Y-2.65
X6.4498Y-2.95
X6.4498Y-3.2996
X6.4498Y-3.5996
X6.4498Y-4.5996
X6.4498Y-4.8996
X6.45Y-5.075
X6.4506Y-3.95
X6.4506Y-4.25
X6.5498Y-2.65
X6.5498Y-2.95
X6.5498Y-3.2996
X6.5498Y-3.5996
X6.5498Y-4.5996
X6.5498Y-4.8996
X6.5506Y-3.95
X6.5506Y-4.25
X6.575Y-3.125
X6.6498Y-2.65
X6.6498Y-2.95
X6.6498Y-3.2996
X6.6498Y-3.5996
X6.6498Y-4.5996
X6.6498Y-4.8996
X6.6506Y-3.95
X6.6506Y-4.25
X6.7498Y-2.65
X6.7498Y-2.95
X6.7498Y-3.2996
X6.7498Y-3.5996
X6.7498Y-4.5996
X6.7498Y-4.8996
X6.7506Y-3.95
X6.7506Y-4.25
X6.8498Y-2.65
X6.8498Y-2.95
X6.8498Y-3.2996
X6.8498Y-3.5996
X6.8498Y-4.5996
X6.8498Y-4.8996
X6.85Y-3.775
X6.85Y-4.425
X6.8506Y-3.95
X6.8506Y-4.25
X6.9498Y-2.65
X6.9498Y-2.95
X6.9498Y-3.2996
X6.9498Y-3.5996
X6.9498Y-4.5996
X6.9498Y-4.8996
X6.9506Y-3.95
X6.9506Y-4.25
X7.0506Y-3.95
X7.0506Y-4.25
X7.25Y-5.05
X7.4469Y-5.05
X7.6016Y-5.05
X7.7984Y-5.05
X7.9516Y-5.05
X8.1484Y-5.05
T3
X4.5248Y-2.65
X4.5248Y-2.75
X4.5248Y-2.85
X4.6248Y-2.65
X4.6248Y-2.75
X4.6248Y-2.85
X4.7998Y-2.65
X4.7998Y-2.75
X4.7998Y-2.85
X4.8998Y-2.65
X4.8998Y-2.75
X4.8998Y-2.85
X5.0748Y-2.65
X5.0748Y-2.75
X5.0748Y-2.85
X5.1748Y-2.65
X5.1748Y-2.75
X5.1748Y-2.85
X7.25Y-3.2
X7.25Y-3.3
X7.25Y-4.8
X7.25Y-4.9
X7.35Y-3.2
X7.35Y-3.3
X7.35Y-4.8
X7.35Y-4.9
X7.45Y-3.2
X7.45Y-3.3
X7.45Y-4.8
X7.45Y-4.9
X7.55Y-3.2
X7.55Y-3.3
X7.55Y-4.8
X7.55Y-4.9
X7.65Y-3.2
X7.65Y-3.3
X7.65Y-4.8
X7.65Y-4.9
X7.75Y-3.2
X7.75Y-3.3
X7.75Y-4.8
X7.75Y-4.9
X7.85Y-3.2
X7.85Y-3.3
X7.85Y-4.8
X7.85Y-4.9
X7.95Y-3.2
X7.95Y-3.3
X7.95Y-4.8
X7.95Y-4.9
X8.05Y-3.2
X8.05Y-3.3
X8.05Y-4.8
X8.05Y-4.9
X8.15Y-3.2
X8.15Y-3.3
X8.15Y-4.8
X8.15Y-4.9
T4
X4.5Y-3.2628
X4.5Y-4.3378
X4.6Y-3.2628
X4.6Y-4.3378
X4.7Y-3.2628
X4.7Y-4.3378
T0
M30
